SplineFontDB: 3.0
FontName: UniVGA-sidav
FullName: UniVGA sidav
FamilyName: UniVGA-sidav
Weight: Medium
Copyright: 
Version: 1.5 Sep 17, 2018, alpha
ItalicAngle: 0
UnderlinePosition: -259
UnderlineWidth: 42
Ascent: 819
Descent: 205
sfntRevision: 0x00010000
LayerCount: 2
Layer: 0 1 "+BBcEMAQ0BD0EOAQ5 +BD8EOwQwBD0A"  1
Layer: 1 1 "+BB8ENQRABDUENAQ9BDgEOQAA +BD8EOwQwBD0A"  0
XUID: [1021 21 1167172666 9957156]
FSType: 0
OS2Version: 3
OS2_WeightWidthSlopeOnly: 0
OS2_UseTypoMetrics: 0
CreationTime: 1391613416
ModificationTime: 1537181383
PfmFamily: 17
TTFWeight: 500
TTFWidth: 5
LineGap: 0
VLineGap: 0
Panose: 2 0 6 9 0 0 0 0 0 0
OS2TypoAscent: 819
OS2TypoAOffset: 0
OS2TypoDescent: -205
OS2TypoDOffset: 0
OS2TypoLinegap: 0
OS2WinAscent: 896
OS2WinAOffset: 0
OS2WinDescent: 128
OS2WinDOffset: 0
HheadAscent: 896
HheadAOffset: 0
HheadDescent: -128
HheadDOffset: 0
OS2SubXSize: 665
OS2SubYSize: 716
OS2SubXOff: 0
OS2SubYOff: 143
OS2SupXSize: 665
OS2SupYSize: 716
OS2SupXOff: 0
OS2SupYOff: 491
OS2StrikeYSize: 51
OS2StrikeYPos: 265
OS2Vendor: 'PfEd'
OS2CodePages: 600001ff.ffff0000
OS2UnicodeRanges: e4002eff.c00079fb.0000002c.00000000
MarkAttachClasses: 1
DEI: 91125
ShortTable: maxp 16
  1
  0
  2932
  256
  32
  0
  0
  0
  0
  0
  0
  0
  0
  0
  0
  0
EndShort
LangName: 1033 "" "" "" "" "" "Version 1.00 August 24, 2014, initial release" 
GaspTable: 1 65535 2 0
Encoding: UnicodeBmp
UnicodeInterp: none
NameList: Adobe Glyph List
DisplaySize: -48
AntiAlias: 1
FitToEm: 0
WinInfo: 0 38 15
BeginPrivate: 0
EndPrivate
BeginChars: 65542 2932

StartChar: .notdef
Encoding: 65536 -1 0
Width: 512
Flags: W
LayerCount: 2
Fore
SplineSet
256 128 m 1,0,-1
 256 192 l 1,1,-1
 128 192 l 1,2,-1
 128 128 l 1,3,-1
 256 128 l 1,0,-1
448 128 m 1,4,-1
 448 192 l 1,5,-1
 320 192 l 1,6,-1
 320 128 l 1,7,-1
 448 128 l 1,4,-1
128 704 m 1,8,-1
 128 768 l 1,9,-1
 0 768 l 1,10,-1
 0 704 l 1,11,-1
 128 704 l 1,8,-1
320 704 m 1,12,-1
 320 768 l 1,13,-1
 192 768 l 1,14,-1
 192 704 l 1,15,-1
 320 704 l 1,12,-1
0 256 m 1,16,17
 0 256 0 256 0 128 c 1,18,-1
 64 128 l 1,19,20
 64 128 64 128 64 256 c 1,21,-1
 0 256 l 1,16,17
384 384 m 1,22,23
 384 384 384 384 384 256 c 1,24,-1
 448 256 l 1,25,26
 448 256 448 256 448 384 c 1,27,-1
 384 384 l 1,22,23
0 448 m 1,28,29
 0 448 0 448 0 320 c 1,30,-1
 64 320 l 1,31,32
 64 320 64 320 64 448 c 1,33,-1
 0 448 l 1,28,29
384 576 m 1,34,35
 384 576 384 576 384 448 c 1,36,-1
 448 448 l 1,37,38
 448 448 448 448 448 576 c 1,39,-1
 384 576 l 1,34,35
0 640 m 1,40,41
 0 640 0 640 0 512 c 1,42,-1
 64 512 l 1,43,44
 64 512 64 512 64 640 c 1,45,-1
 0 640 l 1,40,41
384 768 m 1,46,47
 384 768 384 768 384 640 c 1,48,-1
 448 640 l 1,49,50
 448 640 448 640 448 768 c 1,51,-1
 384 768 l 1,46,47
EndSplineSet
Validated: 9
EndChar

StartChar: glyph2
Encoding: 65538 -1 2
Width: 512
Flags: W
LayerCount: 2
Fore
SplineSet
192 192 m 1,0,-1
 256 192 l 1,1,2
 256 192 256 192 256 576 c 1,3,-1
 512 576 l 1,4,-1
 512 768 l 1,5,-1
 128 768 l 1,6,-1
 128 320 l 1,7,-1
 64 320 l 1,8,-1
 64 256 l 1,9,-1
 0 256 l 1,10,11
 0 256 0 256 0 128 c 1,12,-1
 192 128 l 1,13,-1
 192 192 l 1,0,-1
256 640 m 1,14,-1
 256 704 l 1,15,-1
 384 704 l 1,16,-1
 384 640 l 1,17,-1
 256 640 l 1,14,-1
EndSplineSet
Validated: 9
EndChar

StartChar: _3
Encoding: 65539 -1 3
Width: 512
Flags: W
LayerCount: 2
Fore
SplineSet
256 128 m 1,0,-1
 256 192 l 1,1,-1
 128 192 l 1,2,-1
 128 128 l 1,3,-1
 256 128 l 1,0,-1
448 128 m 1,4,-1
 448 192 l 1,5,-1
 320 192 l 1,6,-1
 320 128 l 1,7,-1
 448 128 l 1,4,-1
128 704 m 1,8,-1
 128 768 l 1,9,-1
 0 768 l 1,10,-1
 0 704 l 1,11,-1
 128 704 l 1,8,-1
320 704 m 1,12,-1
 320 768 l 1,13,-1
 192 768 l 1,14,-1
 192 704 l 1,15,-1
 320 704 l 1,12,-1
0 256 m 1,16,17
 0 256 0 256 0 128 c 1,18,-1
 64 128 l 1,19,20
 64 128 64 128 64 256 c 1,21,-1
 0 256 l 1,16,17
384 384 m 1,22,23
 384 384 384 384 384 256 c 1,24,-1
 448 256 l 1,25,26
 448 256 448 256 448 384 c 1,27,-1
 384 384 l 1,22,23
0 448 m 1,28,29
 0 448 0 448 0 320 c 1,30,-1
 64 320 l 1,31,32
 64 320 64 320 64 448 c 1,33,-1
 0 448 l 1,28,29
384 576 m 1,34,35
 384 576 384 576 384 448 c 1,36,-1
 448 448 l 1,37,38
 448 448 448 448 448 576 c 1,39,-1
 384 576 l 1,34,35
0 640 m 1,40,41
 0 640 0 640 0 512 c 1,42,-1
 64 512 l 1,43,44
 64 512 64 512 64 640 c 1,45,-1
 0 640 l 1,40,41
384 768 m 1,46,47
 384 768 384 768 384 640 c 1,48,-1
 448 640 l 1,49,50
 448 640 448 640 448 768 c 1,51,-1
 384 768 l 1,46,47
EndSplineSet
Validated: 9
EndChar

StartChar: uni0001
Encoding: 1 1 4
Width: 512
Flags: W
LayerCount: 2
Fore
SplineSet
384 384 m 1,0,-1
 384 448 l 1,1,-1
 128 448 l 1,2,-1
 128 384 l 1,3,-1
 192 384 l 1,4,-1
 192 320 l 1,5,-1
 320 320 l 1,6,-1
 320 384 l 1,7,-1
 384 384 l 1,0,-1
192 576 m 1,8,-1
 192 640 l 1,9,-1
 128 640 l 1,10,-1
 128 576 l 1,11,-1
 192 576 l 1,8,-1
384 576 m 1,12,-1
 384 640 l 1,13,-1
 320 640 l 1,14,-1
 320 576 l 1,15,-1
 384 576 l 1,12,-1
64 192 m 1,16,-1
 64 128 l 1,17,-1
 448 128 l 1,18,-1
 448 192 l 1,19,-1
 64 192 l 1,16,-1
64 192 m 1,20,21
 64 192 64 192 64 704 c 1,22,-1
 0 704 l 1,23,24
 0 704 0 704 0 192 c 1,25,-1
 64 192 l 1,20,21
448 192 m 1,26,-1
 512 192 l 1,27,28
 512 192 512 192 512 704 c 1,29,-1
 448 704 l 1,30,31
 448 704 448 704 448 192 c 1,26,-1
64 704 m 1,32,-1
 448 704 l 1,33,-1
 448 768 l 1,34,-1
 64 768 l 1,35,-1
 64 704 l 1,32,-1
EndSplineSet
Validated: 5
EndChar

StartChar: uni0002
Encoding: 2 2 5
Width: 512
Flags: W
LayerCount: 2
Fore
SplineSet
448 192 m 1,0,-1
 512 192 l 1,1,2
 512 192 512 192 512 704 c 1,3,-1
 448 704 l 1,4,-1
 448 768 l 1,5,-1
 64 768 l 1,6,-1
 64 704 l 1,7,-1
 0 704 l 1,8,9
 0 704 0 704 0 192 c 1,10,-1
 64 192 l 1,11,-1
 64 128 l 1,12,-1
 448 128 l 1,13,-1
 448 192 l 1,0,-1
192 320 m 1,14,-1
 192 384 l 1,15,-1
 128 384 l 1,16,-1
 128 448 l 1,17,-1
 384 448 l 1,18,-1
 384 384 l 1,19,-1
 320 384 l 1,20,-1
 320 320 l 1,21,-1
 192 320 l 1,14,-1
128 576 m 1,22,-1
 128 640 l 1,23,-1
 192 640 l 1,24,-1
 192 576 l 1,25,-1
 128 576 l 1,22,-1
320 576 m 1,26,-1
 320 640 l 1,27,-1
 384 640 l 1,28,-1
 384 576 l 1,29,-1
 320 576 l 1,26,-1
EndSplineSet
Validated: 9
EndChar

StartChar: uni0003
Encoding: 3 3 6
Width: 512
Flags: W
LayerCount: 2
Fore
SplineSet
256 192 m 1,0,-1
 320 192 l 1,1,-1
 320 256 l 1,2,-1
 384 256 l 1,3,-1
 384 320 l 1,4,-1
 448 320 l 1,5,6
 448 320 448 320 448 576 c 1,7,-1
 384 576 l 1,8,-1
 384 640 l 1,9,-1
 256 640 l 1,10,-1
 256 576 l 1,11,-1
 192 576 l 1,12,-1
 192 640 l 1,13,-1
 64 640 l 1,14,-1
 64 576 l 1,15,-1
 0 576 l 1,16,17
 0 576 0 576 0 320 c 1,18,-1
 64 320 l 1,19,-1
 64 256 l 1,20,-1
 128 256 l 1,21,-1
 128 192 l 1,22,-1
 192 192 l 1,23,-1
 192 128 l 1,24,-1
 256 128 l 1,25,-1
 256 192 l 1,0,-1
EndSplineSet
Validated: 9
EndChar

StartChar: uni0004
Encoding: 4 4 7
Width: 512
Flags: W
LayerCount: 2
Fore
SplineSet
448 384 m 1,0,-1
 448 448 l 1,1,-1
 384 448 l 1,2,-1
 384 512 l 1,3,-1
 320 512 l 1,4,-1
 320 576 l 1,5,-1
 256 576 l 1,6,-1
 256 640 l 1,7,-1
 192 640 l 1,8,-1
 192 576 l 1,9,-1
 128 576 l 1,10,-1
 128 512 l 1,11,-1
 64 512 l 1,12,-1
 64 448 l 1,13,-1
 0 448 l 1,14,-1
 0 384 l 1,15,-1
 64 384 l 1,16,-1
 64 320 l 1,17,-1
 128 320 l 1,18,-1
 128 256 l 1,19,-1
 192 256 l 1,20,-1
 192 192 l 1,21,-1
 256 192 l 1,22,-1
 256 256 l 1,23,-1
 320 256 l 1,24,-1
 320 320 l 1,25,-1
 384 320 l 1,26,-1
 384 384 l 1,27,-1
 448 384 l 1,0,-1
EndSplineSet
Validated: 9
EndChar

StartChar: uni0005
Encoding: 5 5 8
Width: 512
Flags: W
LayerCount: 2
Fore
SplineSet
384 128 m 1,0,-1
 384 192 l 1,1,-1
 320 192 l 1,2,3
 320 192 320 192 320 320 c 1,4,-1
 192 320 l 1,5,6
 192 320 192 320 192 192 c 1,7,-1
 128 192 l 1,8,-1
 128 128 l 1,9,-1
 384 128 l 1,0,-1
192 320 m 1,10,-1
 192 512 l 1,11,-1
 320 512 l 1,12,-1
 320 320 l 1,13,-1
 512 320 l 1,14,-1
 512 512 l 1,15,-1
 384 512 l 1,16,17
 384 512 384 512 384 640 c 1,18,-1
 320 640 l 1,19,-1
 320 704 l 1,20,-1
 192 704 l 1,21,-1
 192 640 l 1,22,-1
 128 640 l 1,23,24
 128 640 128 640 128 512 c 1,25,-1
 0 512 l 1,26,-1
 0 320 l 1,27,-1
 192 320 l 1,10,-1
EndSplineSet
Validated: 5
EndChar

StartChar: uni0006
Encoding: 6 6 9
Width: 512
Flags: W
LayerCount: 2
Fore
SplineSet
384 128 m 1,0,-1
 384 192 l 1,1,-1
 320 192 l 1,2,3
 320 192 320 192 320 320 c 1,4,-1
 448 320 l 1,5,-1
 448 384 l 1,6,-1
 512 384 l 1,7,8
 512 384 512 384 512 512 c 1,9,-1
 448 512 l 1,10,-1
 448 576 l 1,11,-1
 384 576 l 1,12,-1
 384 640 l 1,13,-1
 320 640 l 1,14,-1
 320 704 l 1,15,-1
 192 704 l 1,16,-1
 192 640 l 1,17,-1
 128 640 l 1,18,-1
 128 576 l 1,19,-1
 64 576 l 1,20,-1
 64 512 l 1,21,-1
 0 512 l 1,22,23
 0 512 0 512 0 384 c 1,24,-1
 64 384 l 1,25,-1
 64 320 l 1,26,-1
 192 320 l 1,27,28
 192 320 192 320 192 192 c 1,29,-1
 128 192 l 1,30,-1
 128 128 l 1,31,-1
 384 128 l 1,0,-1
EndSplineSet
Validated: 9
EndChar

StartChar: uni0007
Encoding: 7 7 10
Width: 512
Flags: W
LayerCount: 2
Fore
SplineSet
320 320 m 1,0,-1
 384 320 l 1,1,2
 384 320 384 320 384 448 c 1,3,-1
 320 448 l 1,4,-1
 320 512 l 1,5,-1
 192 512 l 1,6,-1
 192 448 l 1,7,-1
 128 448 l 1,8,9
 128 448 128 448 128 320 c 1,10,-1
 192 320 l 1,11,-1
 192 256 l 1,12,-1
 320 256 l 1,13,-1
 320 320 l 1,0,-1
EndSplineSet
Validated: 9
EndChar

StartChar: uni0008
Encoding: 65540 -1 11
Width: 512
Flags: W
LayerCount: 2
Fore
SplineSet
0 896 m 1,0,1
 0 896 0 896 0 -128 c 1,2,-1
 512 -128 l 1,3,4
 512 -128 512 -128 512 896 c 1,5,-1
 0 896 l 1,0,1
192 256 m 1,6,-1
 192 320 l 1,7,-1
 128 320 l 1,8,9
 128 320 128 320 128 448 c 1,10,-1
 192 448 l 1,11,-1
 192 512 l 1,12,-1
 320 512 l 1,13,-1
 320 448 l 1,14,-1
 384 448 l 1,15,16
 384 448 384 448 384 320 c 1,17,-1
 320 320 l 1,18,-1
 320 256 l 1,19,-1
 192 256 l 1,6,-1
EndSplineSet
Validated: 9
EndChar

StartChar: glyph12
Encoding: 65541 -1 12
Width: 512
Flags: W
LayerCount: 2
Fore
SplineSet
128 256 m 1,0,-1
 128 192 l 1,1,-1
 384 192 l 1,2,-1
 384 256 l 1,3,-1
 448 256 l 1,4,5
 448 256 448 256 448 512 c 1,6,-1
 384 512 l 1,7,-1
 384 576 l 1,8,-1
 128 576 l 1,9,-1
 128 512 l 1,10,-1
 64 512 l 1,11,12
 64 512 64 512 64 256 c 1,13,-1
 128 256 l 1,0,-1
192 256 m 1,14,-1
 192 320 l 1,15,-1
 128 320 l 1,16,17
 128 320 128 320 128 448 c 1,18,-1
 192 448 l 1,19,-1
 192 512 l 1,20,-1
 320 512 l 1,21,-1
 320 448 l 1,22,-1
 384 448 l 1,23,24
 384 448 384 448 384 320 c 1,25,-1
 320 320 l 1,26,-1
 320 256 l 1,27,-1
 192 256 l 1,14,-1
EndSplineSet
Validated: 9
EndChar

StartChar: nonmarkingreturn
Encoding: 10 10 13
Width: 512
Flags: W
LayerCount: 2
Fore
SplineSet
0 896 m 1,0,1
 0 896 0 896 0 -128 c 1,2,-1
 512 -128 l 1,3,4
 512 -128 512 -128 512 896 c 1,5,-1
 0 896 l 1,0,1
128 192 m 1,6,-1
 128 256 l 1,7,-1
 64 256 l 1,8,9
 64 256 64 256 64 512 c 1,10,-1
 128 512 l 1,11,-1
 128 576 l 1,12,-1
 384 576 l 1,13,-1
 384 512 l 1,14,-1
 448 512 l 1,15,16
 448 512 448 512 448 256 c 1,17,-1
 384 256 l 1,18,-1
 384 192 l 1,19,-1
 128 192 l 1,6,-1
320 320 m 1,20,-1
 384 320 l 1,21,22
 384 320 384 320 384 448 c 1,23,-1
 320 448 l 1,24,-1
 320 512 l 1,25,-1
 192 512 l 1,26,-1
 192 448 l 1,27,-1
 128 448 l 1,28,29
 128 448 128 448 128 320 c 1,30,-1
 192 320 l 1,31,-1
 192 256 l 1,32,-1
 320 256 l 1,33,-1
 320 320 l 1,20,-1
EndSplineSet
Validated: 9
EndChar

StartChar: uni000B
Encoding: 11 11 14
Width: 512
Flags: W
LayerCount: 2
Fore
SplineSet
64 192 m 1,0,-1
 64 128 l 1,1,-1
 320 128 l 1,2,-1
 320 192 l 1,3,-1
 384 192 l 1,4,5
 384 192 384 192 384 448 c 1,6,-1
 320 448 l 1,7,-1
 320 512 l 1,8,-1
 256 512 l 1,9,-1
 256 576 l 1,10,-1
 320 576 l 1,11,-1
 320 640 l 1,12,-1
 384 640 l 1,13,14
 384 640 384 640 384 512 c 1,15,-1
 448 512 l 1,16,17
 448 512 448 512 448 768 c 1,18,-1
 192 768 l 1,19,-1
 192 704 l 1,20,-1
 256 704 l 1,21,-1
 256 640 l 1,22,-1
 192 640 l 1,23,-1
 192 576 l 1,24,-1
 128 576 l 1,25,-1
 128 512 l 1,26,-1
 64 512 l 1,27,-1
 64 448 l 1,28,-1
 0 448 l 1,29,30
 0 448 0 448 0 192 c 1,31,-1
 64 192 l 1,0,-1
128 192 m 1,32,33
 128 192 128 192 128 448 c 1,34,-1
 256 448 l 1,35,36
 256 448 256 448 256 192 c 1,37,-1
 128 192 l 1,32,33
EndSplineSet
Validated: 9
EndChar

StartChar: uni000C
Encoding: 12 12 15
Width: 512
Flags: W
LayerCount: 2
Fore
SplineSet
448 256 m 1,0,-1
 448 320 l 1,1,-1
 320 320 l 1,2,-1
 320 384 l 1,3,-1
 384 384 l 1,4,-1
 384 448 l 1,5,-1
 448 448 l 1,6,7
 448 448 448 448 448 704 c 1,8,-1
 384 704 l 1,9,-1
 384 768 l 1,10,-1
 128 768 l 1,11,-1
 128 704 l 1,12,-1
 64 704 l 1,13,14
 64 704 64 704 64 448 c 1,15,-1
 128 448 l 1,16,-1
 128 384 l 1,17,-1
 192 384 l 1,18,-1
 192 320 l 1,19,-1
 64 320 l 1,20,-1
 64 256 l 1,21,-1
 192 256 l 1,22,23
 192 256 192 256 192 128 c 1,24,-1
 320 128 l 1,25,26
 320 128 320 128 320 256 c 1,27,-1
 448 256 l 1,0,-1
192 448 m 1,28,29
 192 448 192 448 192 704 c 1,30,-1
 320 704 l 1,31,32
 320 704 320 704 320 448 c 1,33,-1
 192 448 l 1,28,29
EndSplineSet
Validated: 9
EndChar

StartChar: uni000E
Encoding: 14 14 16
Width: 512
Flags: W
LayerCount: 2
Fore
SplineSet
128 128 m 1,0,-1
 192 128 l 1,1,-1
 192 576 l 1,2,-1
 384 576 l 1,3,4
 384 576 384 576 384 320 c 1,5,-1
 320 320 l 1,6,-1
 320 128 l 1,7,-1
 448 128 l 1,8,-1
 448 192 l 1,9,-1
 512 192 l 1,10,-1
 512 768 l 1,11,-1
 64 768 l 1,12,13
 64 768 64 768 64 256 c 1,14,-1
 0 256 l 1,15,-1
 0 64 l 1,16,-1
 128 64 l 1,17,-1
 128 128 l 1,0,-1
192 640 m 1,18,-1
 192 704 l 1,19,-1
 384 704 l 1,20,-1
 384 640 l 1,21,-1
 192 640 l 1,18,-1
EndSplineSet
Validated: 9
EndChar

StartChar: uni000F
Encoding: 15 15 17
Width: 512
Flags: W
LayerCount: 2
Fore
SplineSet
512 256 m 1,0,-1
 512 320 l 1,1,-1
 384 320 l 1,2,-1
 384 256 l 1,3,-1
 512 256 l 1,0,-1
512 384 m 1,4,-1
 512 448 l 1,5,-1
 384 448 l 1,6,-1
 384 512 l 1,7,-1
 320 512 l 1,8,-1
 320 704 l 1,9,-1
 192 704 l 1,10,-1
 192 512 l 1,11,-1
 128 512 l 1,12,-1
 128 448 l 1,13,-1
 0 448 l 1,14,-1
 0 384 l 1,15,-1
 128 384 l 1,16,-1
 128 320 l 1,17,-1
 0 320 l 1,18,-1
 0 256 l 1,19,-1
 128 256 l 1,20,-1
 128 320 l 1,21,-1
 192 320 l 1,22,-1
 192 128 l 1,23,-1
 320 128 l 1,24,-1
 320 320 l 1,25,-1
 384 320 l 1,26,-1
 384 384 l 1,27,-1
 512 384 l 1,4,-1
512 512 m 1,28,-1
 512 576 l 1,29,-1
 384 576 l 1,30,-1
 384 512 l 1,31,-1
 512 512 l 1,28,-1
192 384 m 1,32,-1
 192 448 l 1,33,-1
 320 448 l 1,34,-1
 320 384 l 1,35,-1
 192 384 l 1,32,-1
128 512 m 1,36,-1
 128 576 l 1,37,-1
 0 576 l 1,38,-1
 0 512 l 1,39,-1
 128 512 l 1,36,-1
EndSplineSet
Validated: 5
EndChar

StartChar: uni0010
Encoding: 16 16 18
Width: 512
Flags: W
LayerCount: 2
Fore
SplineSet
448 448 m 1,0,-1
 448 512 l 1,1,-1
 320 512 l 1,2,-1
 320 576 l 1,3,-1
 256 576 l 1,4,-1
 256 640 l 1,5,-1
 192 640 l 1,6,-1
 192 704 l 1,7,-1
 128 704 l 1,8,-1
 128 768 l 1,9,-1
 64 768 l 1,10,-1
 64 832 l 1,11,-1
 0 832 l 1,12,-1
 0 128 l 1,13,-1
 64 128 l 1,14,-1
 64 192 l 1,15,-1
 128 192 l 1,16,-1
 128 256 l 1,17,-1
 192 256 l 1,18,-1
 192 320 l 1,19,-1
 256 320 l 1,20,-1
 256 384 l 1,21,-1
 320 384 l 1,22,-1
 320 448 l 1,23,-1
 448 448 l 1,0,-1
EndSplineSet
Validated: 9
EndChar

StartChar: uni0011
Encoding: 17 17 19
Width: 512
Flags: W
LayerCount: 2
Fore
SplineSet
384 192 m 1,0,-1
 384 128 l 1,1,-1
 448 128 l 1,2,-1
 448 832 l 1,3,-1
 384 832 l 1,4,-1
 384 768 l 1,5,-1
 320 768 l 1,6,-1
 320 704 l 1,7,-1
 256 704 l 1,8,-1
 256 640 l 1,9,-1
 192 640 l 1,10,-1
 192 576 l 1,11,-1
 128 576 l 1,12,-1
 128 512 l 1,13,-1
 0 512 l 1,14,-1
 0 448 l 1,15,-1
 128 448 l 1,16,-1
 128 384 l 1,17,-1
 192 384 l 1,18,-1
 192 320 l 1,19,-1
 256 320 l 1,20,-1
 256 256 l 1,21,-1
 320 256 l 1,22,-1
 320 192 l 1,23,-1
 384 192 l 1,0,-1
EndSplineSet
Validated: 9
EndChar

StartChar: uni0012
Encoding: 18 18 20
Width: 512
Flags: W
LayerCount: 2
Fore
SplineSet
448 320 m 1,0,-1
 448 384 l 1,1,-1
 320 384 l 1,2,-1
 320 576 l 1,3,-1
 448 576 l 1,4,-1
 448 640 l 1,5,-1
 384 640 l 1,6,-1
 384 704 l 1,7,-1
 320 704 l 1,8,-1
 320 768 l 1,9,-1
 192 768 l 1,10,-1
 192 704 l 1,11,-1
 128 704 l 1,12,-1
 128 640 l 1,13,-1
 64 640 l 1,14,-1
 64 576 l 1,15,-1
 192 576 l 1,16,-1
 192 384 l 1,17,-1
 64 384 l 1,18,-1
 64 320 l 1,19,-1
 128 320 l 1,20,-1
 128 256 l 1,21,-1
 192 256 l 1,22,-1
 192 192 l 1,23,-1
 320 192 l 1,24,-1
 320 256 l 1,25,-1
 384 256 l 1,26,-1
 384 320 l 1,27,-1
 448 320 l 1,0,-1
EndSplineSet
Validated: 9
EndChar

StartChar: uni0013
Encoding: 19 19 21
Width: 512
Flags: W
LayerCount: 2
Fore
SplineSet
64 256 m 1,0,1
 64 256 64 256 64 128 c 1,2,-1
 192 128 l 1,3,4
 192 128 192 128 192 256 c 1,5,-1
 64 256 l 1,0,1
320 256 m 1,6,7
 320 256 320 256 320 128 c 1,8,-1
 448 128 l 1,9,10
 448 128 448 128 448 256 c 1,11,-1
 320 256 l 1,6,7
64 768 m 1,12,-1
 64 320 l 1,13,-1
 192 320 l 1,14,-1
 192 768 l 1,15,-1
 64 768 l 1,12,-1
320 768 m 1,16,-1
 320 320 l 1,17,-1
 448 320 l 1,18,-1
 448 768 l 1,19,-1
 320 768 l 1,16,-1
EndSplineSet
Validated: 9
EndChar

StartChar: uni0014
Encoding: 20 20 22
Width: 512
Flags: W
LayerCount: 2
Fore
SplineSet
192 448 m 1,0,-1
 192 128 l 1,1,-1
 320 128 l 1,2,-1
 320 704 l 1,3,-1
 384 704 l 1,4,-1
 384 128 l 1,5,-1
 512 128 l 1,6,7
 512 128 512 128 512 768 c 1,8,-1
 64 768 l 1,9,-1
 64 704 l 1,10,-1
 0 704 l 1,11,-1
 0 512 l 1,12,-1
 64 512 l 1,13,-1
 64 448 l 1,14,-1
 192 448 l 1,0,-1
128 512 m 1,15,-1
 128 704 l 1,16,-1
 192 704 l 1,17,-1
 192 512 l 1,18,-1
 128 512 l 1,15,-1
EndSplineSet
Validated: 9
EndChar

StartChar: uni0015
Encoding: 21 21 23
Width: 512
Flags: W
LayerCount: 2
Fore
SplineSet
448 128 m 1,0,-1
 448 192 l 1,1,-1
 384 192 l 1,2,-1
 384 256 l 1,3,-1
 320 256 l 1,4,-1
 320 320 l 1,5,-1
 384 320 l 1,6,-1
 384 384 l 1,7,-1
 448 384 l 1,8,9
 448 384 448 384 448 512 c 1,10,-1
 384 512 l 1,11,-1
 384 576 l 1,12,-1
 320 576 l 1,13,-1
 320 640 l 1,14,-1
 192 640 l 1,15,-1
 192 704 l 1,16,-1
 128 704 l 1,17,-1
 128 768 l 1,18,-1
 320 768 l 1,19,-1
 320 704 l 1,20,-1
 448 704 l 1,21,-1
 448 768 l 1,22,-1
 384 768 l 1,23,-1
 384 832 l 1,24,-1
 64 832 l 1,25,-1
 64 768 l 1,26,-1
 0 768 l 1,27,-1
 0 704 l 1,28,-1
 64 704 l 1,29,-1
 64 640 l 1,30,-1
 128 640 l 1,31,-1
 128 576 l 1,32,-1
 64 576 l 1,33,-1
 64 512 l 1,34,-1
 0 512 l 1,35,36
 0 512 0 512 0 384 c 1,37,-1
 64 384 l 1,38,-1
 64 320 l 1,39,-1
 128 320 l 1,40,-1
 128 256 l 1,41,-1
 256 256 l 1,42,-1
 256 192 l 1,43,-1
 320 192 l 1,44,-1
 320 128 l 1,45,-1
 128 128 l 1,46,-1
 128 192 l 1,47,-1
 0 192 l 1,48,-1
 0 128 l 1,49,-1
 64 128 l 1,50,-1
 64 64 l 1,51,-1
 384 64 l 1,52,-1
 384 128 l 1,53,-1
 448 128 l 1,0,-1
192 320 m 1,54,-1
 192 384 l 1,55,-1
 128 384 l 1,56,57
 128 384 128 384 128 512 c 1,58,-1
 192 512 l 1,59,-1
 192 576 l 1,60,-1
 256 576 l 1,61,-1
 256 512 l 1,62,-1
 320 512 l 1,63,64
 320 512 320 512 320 384 c 1,65,-1
 256 384 l 1,66,-1
 256 320 l 1,67,-1
 192 320 l 1,54,-1
EndSplineSet
Validated: 9
EndChar

StartChar: uni0016
Encoding: 22 22 24
Width: 512
Flags: W
LayerCount: 2
Fore
SplineSet
0 384 m 1,0,1
 0 384 0 384 0 128 c 1,2,-1
 448 128 l 1,3,4
 448 128 448 128 448 384 c 1,5,-1
 0 384 l 1,0,1
EndSplineSet
Validated: 9
EndChar

StartChar: uni0017
Encoding: 23 23 25
Width: 512
Flags: W
LayerCount: 2
Fore
SplineSet
448 128 m 1,0,-1
 448 192 l 1,1,-1
 320 192 l 1,2,-1
 320 256 l 1,3,-1
 384 256 l 1,4,-1
 384 320 l 1,5,-1
 448 320 l 1,6,-1
 448 384 l 1,7,-1
 320 384 l 1,8,-1
 320 576 l 1,9,-1
 448 576 l 1,10,-1
 448 640 l 1,11,-1
 384 640 l 1,12,-1
 384 704 l 1,13,-1
 320 704 l 1,14,-1
 320 768 l 1,15,-1
 192 768 l 1,16,-1
 192 704 l 1,17,-1
 128 704 l 1,18,-1
 128 640 l 1,19,-1
 64 640 l 1,20,-1
 64 576 l 1,21,-1
 192 576 l 1,22,-1
 192 384 l 1,23,-1
 64 384 l 1,24,-1
 64 320 l 1,25,-1
 128 320 l 1,26,-1
 128 256 l 1,27,-1
 192 256 l 1,28,-1
 192 192 l 1,29,-1
 64 192 l 1,30,-1
 64 128 l 1,31,-1
 448 128 l 1,0,-1
EndSplineSet
Validated: 9
EndChar

StartChar: uni0018
Encoding: 24 24 26
Width: 512
Flags: W
LayerCount: 2
Fore
SplineSet
448 576 m 1,0,-1
 448 640 l 1,1,-1
 384 640 l 1,2,-1
 384 704 l 1,3,-1
 320 704 l 1,4,-1
 320 768 l 1,5,-1
 192 768 l 1,6,-1
 192 704 l 1,7,-1
 128 704 l 1,8,-1
 128 640 l 1,9,-1
 64 640 l 1,10,-1
 64 576 l 1,11,-1
 192 576 l 1,12,-1
 192 128 l 1,13,-1
 320 128 l 1,14,-1
 320 576 l 1,15,-1
 448 576 l 1,0,-1
EndSplineSet
Validated: 9
EndChar

StartChar: uni0019
Encoding: 25 25 27
Width: 512
Flags: W
LayerCount: 2
Fore
SplineSet
448 256 m 1,0,-1
 448 320 l 1,1,-1
 320 320 l 1,2,-1
 320 768 l 1,3,-1
 192 768 l 1,4,-1
 192 320 l 1,5,-1
 64 320 l 1,6,-1
 64 256 l 1,7,-1
 128 256 l 1,8,-1
 128 192 l 1,9,-1
 192 192 l 1,10,-1
 192 128 l 1,11,-1
 320 128 l 1,12,-1
 320 192 l 1,13,-1
 384 192 l 1,14,-1
 384 256 l 1,15,-1
 448 256 l 1,0,-1
EndSplineSet
Validated: 9
EndChar

StartChar: uni001A
Encoding: 26 26 28
Width: 512
Flags: W
LayerCount: 2
Fore
SplineSet
448 384 m 1,0,-1
 448 448 l 1,1,-1
 384 448 l 1,2,-1
 384 512 l 1,3,-1
 320 512 l 1,4,-1
 320 576 l 1,5,-1
 192 576 l 1,6,-1
 192 512 l 1,7,-1
 256 512 l 1,8,-1
 256 448 l 1,9,-1
 0 448 l 1,10,-1
 0 384 l 1,11,-1
 256 384 l 1,12,-1
 256 320 l 1,13,-1
 192 320 l 1,14,-1
 192 256 l 1,15,-1
 320 256 l 1,16,-1
 320 320 l 1,17,-1
 384 320 l 1,18,-1
 384 384 l 1,19,-1
 448 384 l 1,0,-1
EndSplineSet
Validated: 9
EndChar

StartChar: uni001B
Encoding: 27 27 29
Width: 512
Flags: W
LayerCount: 2
Fore
SplineSet
256 256 m 1,0,-1
 256 320 l 1,1,-1
 192 320 l 1,2,-1
 192 384 l 1,3,-1
 448 384 l 1,4,-1
 448 448 l 1,5,-1
 192 448 l 1,6,-1
 192 512 l 1,7,-1
 256 512 l 1,8,-1
 256 576 l 1,9,-1
 128 576 l 1,10,-1
 128 512 l 1,11,-1
 64 512 l 1,12,-1
 64 448 l 1,13,-1
 0 448 l 1,14,-1
 0 384 l 1,15,-1
 64 384 l 1,16,-1
 64 320 l 1,17,-1
 128 320 l 1,18,-1
 128 256 l 1,19,-1
 256 256 l 1,0,-1
EndSplineSet
Validated: 9
EndChar

StartChar: uni001C
Encoding: 28 28 30
Width: 512
Flags: W
LayerCount: 2
Fore
SplineSet
448 256 m 1,0,-1
 448 320 l 1,1,-1
 128 320 l 1,2,-1
 128 512 l 1,3,-1
 0 512 l 1,4,5
 0 512 0 512 0 256 c 1,6,-1
 448 256 l 1,0,-1
EndSplineSet
Validated: 9
EndChar

StartChar: uni001D
Encoding: 29 29 31
Width: 512
Flags: W
LayerCount: 2
Fore
SplineSet
448 384 m 1,0,-1
 448 448 l 1,1,-1
 384 448 l 1,2,-1
 384 512 l 1,3,-1
 320 512 l 1,4,-1
 320 576 l 1,5,-1
 256 576 l 1,6,7
 256 576 256 576 256 448 c 1,8,-1
 192 448 l 1,9,10
 192 448 192 448 192 576 c 1,11,-1
 128 576 l 1,12,-1
 128 512 l 1,13,-1
 64 512 l 1,14,-1
 64 448 l 1,15,-1
 0 448 l 1,16,-1
 0 384 l 1,17,-1
 64 384 l 1,18,-1
 64 320 l 1,19,-1
 128 320 l 1,20,-1
 128 256 l 1,21,-1
 192 256 l 1,22,23
 192 256 192 256 192 384 c 1,24,-1
 256 384 l 1,25,26
 256 384 256 384 256 256 c 1,27,-1
 320 256 l 1,28,-1
 320 320 l 1,29,-1
 384 320 l 1,30,-1
 384 384 l 1,31,-1
 448 384 l 1,0,-1
EndSplineSet
Validated: 9
EndChar

StartChar: uni001E
Encoding: 30 30 32
Width: 512
Flags: W
LayerCount: 2
Fore
SplineSet
0 320 m 1,0,1
 0 320 0 320 0 192 c 1,2,-1
 448 192 l 1,3,4
 448 192 448 192 448 320 c 1,5,-1
 384 320 l 1,6,7
 384 320 384 320 384 448 c 1,8,-1
 320 448 l 1,9,10
 320 448 320 448 320 576 c 1,11,-1
 256 576 l 1,12,-1
 256 640 l 1,13,-1
 192 640 l 1,14,-1
 192 576 l 1,15,-1
 128 576 l 1,16,17
 128 576 128 576 128 448 c 1,18,-1
 64 448 l 1,19,20
 64 448 64 448 64 320 c 1,21,-1
 0 320 l 1,0,1
EndSplineSet
Validated: 9
EndChar

StartChar: uni001F
Encoding: 31 31 33
Width: 512
Flags: W
LayerCount: 2
Fore
SplineSet
256 256 m 1,0,-1
 320 256 l 1,1,2
 320 256 320 256 320 384 c 1,3,-1
 384 384 l 1,4,5
 384 384 384 384 384 512 c 1,6,-1
 448 512 l 1,7,8
 448 512 448 512 448 640 c 1,9,-1
 0 640 l 1,10,11
 0 640 0 640 0 512 c 1,12,-1
 64 512 l 1,13,14
 64 512 64 512 64 384 c 1,15,-1
 128 384 l 1,16,17
 128 384 128 384 128 256 c 1,18,-1
 192 256 l 1,19,-1
 192 192 l 1,20,-1
 256 192 l 1,21,-1
 256 256 l 1,0,-1
EndSplineSet
Validated: 9
EndChar

StartChar: exclam
Encoding: 33 33 35
Width: 512
Flags: W
LayerCount: 2
Fore
SplineSet
192 256 m 1,0,1
 192 256 192 256 192 128 c 1,2,-1
 320 128 l 1,3,4
 320 128 320 128 320 256 c 1,5,-1
 192 256 l 1,0,1
192 512 m 1,6,-1
 192 320 l 1,7,-1
 320 320 l 1,8,-1
 320 512 l 1,9,-1
 384 512 l 1,10,-1
 384 704 l 1,11,-1
 320 704 l 1,12,-1
 320 768 l 1,13,-1
 192 768 l 1,14,-1
 192 704 l 1,15,-1
 128 704 l 1,16,-1
 128 512 l 1,17,-1
 192 512 l 1,6,-1
EndSplineSet
Validated: 9
EndChar

StartChar: quotedbl
Encoding: 34 34 36
Width: 512
Flags: W
LayerCount: 2
Fore
SplineSet
128 640 m 1,0,-1
 128 576 l 1,1,-1
 192 576 l 1,2,3
 192 576 192 576 192 832 c 1,4,-1
 64 832 l 1,5,-1
 64 640 l 1,6,-1
 128 640 l 1,0,-1
384 640 m 1,7,-1
 448 640 l 1,8,-1
 448 832 l 1,9,-1
 320 832 l 1,10,11
 320 832 320 832 320 576 c 1,12,-1
 384 576 l 1,13,-1
 384 640 l 1,7,-1
EndSplineSet
Validated: 9
EndChar

StartChar: numbersign
Encoding: 35 35 37
Width: 512
Flags: W
LayerCount: 2
Fore
SplineSet
448 256 m 1,0,-1
 448 320 l 1,1,-1
 384 320 l 1,2,-1
 384 512 l 1,3,-1
 448 512 l 1,4,-1
 448 576 l 1,5,-1
 384 576 l 1,6,7
 384 576 384 576 384 704 c 1,8,-1
 256 704 l 1,9,10
 256 704 256 704 256 576 c 1,11,-1
 192 576 l 1,12,13
 192 576 192 576 192 704 c 1,14,-1
 64 704 l 1,15,16
 64 704 64 704 64 576 c 1,17,-1
 0 576 l 1,18,-1
 0 512 l 1,19,-1
 64 512 l 1,20,-1
 64 320 l 1,21,-1
 0 320 l 1,22,-1
 0 256 l 1,23,-1
 64 256 l 1,24,25
 64 256 64 256 64 128 c 1,26,-1
 192 128 l 1,27,28
 192 128 192 128 192 256 c 1,29,-1
 256 256 l 1,30,31
 256 256 256 256 256 128 c 1,32,-1
 384 128 l 1,33,34
 384 128 384 128 384 256 c 1,35,-1
 448 256 l 1,0,-1
192 320 m 1,36,-1
 192 512 l 1,37,-1
 256 512 l 1,38,-1
 256 320 l 1,39,-1
 192 320 l 1,36,-1
EndSplineSet
Validated: 9
EndChar

StartChar: dollar
Encoding: 36 36 38
Width: 512
Flags: W
LayerCount: 2
Fore
SplineSet
192 128 m 1,0,1
 192 128 192 128 192 0 c 1,2,-1
 320 0 l 1,3,4
 320 0 320 0 320 128 c 1,5,-1
 384 128 l 1,6,-1
 384 192 l 1,7,-1
 448 192 l 1,8,9
 448 192 448 192 448 448 c 1,10,-1
 384 448 l 1,11,-1
 384 512 l 1,12,-1
 128 512 l 1,13,-1
 128 704 l 1,14,-1
 320 704 l 1,15,-1
 320 640 l 1,16,-1
 384 640 l 1,17,-1
 384 576 l 1,18,-1
 448 576 l 1,19,20
 448 576 448 576 448 704 c 1,21,-1
 384 704 l 1,22,-1
 384 768 l 1,23,-1
 320 768 l 1,24,25
 320 768 320 768 320 896 c 1,26,-1
 192 896 l 1,27,28
 192 896 192 896 192 768 c 1,29,-1
 64 768 l 1,30,-1
 64 704 l 1,31,-1
 0 704 l 1,32,-1
 0 512 l 1,33,-1
 64 512 l 1,34,-1
 64 448 l 1,35,-1
 320 448 l 1,36,37
 320 448 320 448 320 192 c 1,38,-1
 128 192 l 1,39,-1
 128 256 l 1,40,-1
 64 256 l 1,41,-1
 64 320 l 1,42,-1
 0 320 l 1,43,44
 0 320 0 320 0 192 c 1,45,-1
 64 192 l 1,46,-1
 64 128 l 1,47,-1
 192 128 l 1,0,1
EndSplineSet
Validated: 9
EndChar

StartChar: percent
Encoding: 37 37 39
Width: 512
Flags: W
LayerCount: 2
Fore
SplineSet
64 192 m 1,0,-1
 128 192 l 1,1,-1
 128 256 l 1,2,-1
 192 256 l 1,3,-1
 192 320 l 1,4,-1
 256 320 l 1,5,-1
 256 384 l 1,6,-1
 320 384 l 1,7,-1
 320 448 l 1,8,-1
 384 448 l 1,9,-1
 384 512 l 1,10,-1
 448 512 l 1,11,12
 448 512 448 512 448 640 c 1,13,-1
 384 640 l 1,14,-1
 384 576 l 1,15,-1
 320 576 l 1,16,-1
 320 512 l 1,17,-1
 256 512 l 1,18,-1
 256 448 l 1,19,-1
 192 448 l 1,20,-1
 192 384 l 1,21,-1
 128 384 l 1,22,-1
 128 320 l 1,23,-1
 64 320 l 1,24,-1
 64 256 l 1,25,-1
 0 256 l 1,26,27
 0 256 0 256 0 128 c 1,28,-1
 64 128 l 1,29,-1
 64 192 l 1,0,-1
320 256 m 1,30,31
 320 256 320 256 320 128 c 1,32,-1
 448 128 l 1,33,34
 448 128 448 128 448 256 c 1,35,-1
 320 256 l 1,30,31
0 640 m 1,36,37
 0 640 0 640 0 512 c 1,38,-1
 128 512 l 1,39,40
 128 512 128 512 128 640 c 1,41,-1
 0 640 l 1,36,37
EndSplineSet
Validated: 9
EndChar

StartChar: ampersand
Encoding: 38 38 40
Width: 512
Flags: W
LayerCount: 2
Fore
SplineSet
448 128 m 1,0,-1
 448 192 l 1,1,-1
 384 192 l 1,2,3
 384 192 384 192 384 448 c 1,4,-1
 448 448 l 1,5,-1
 448 512 l 1,6,-1
 320 512 l 1,7,-1
 320 448 l 1,8,-1
 256 448 l 1,9,-1
 256 512 l 1,10,-1
 320 512 l 1,11,-1
 320 576 l 1,12,-1
 384 576 l 1,13,14
 384 576 384 576 384 704 c 1,15,-1
 320 704 l 1,16,-1
 320 768 l 1,17,-1
 128 768 l 1,18,-1
 128 704 l 1,19,-1
 64 704 l 1,20,21
 64 704 64 704 64 576 c 1,22,-1
 128 576 l 1,23,-1
 128 512 l 1,24,-1
 64 512 l 1,25,-1
 64 448 l 1,26,-1
 0 448 l 1,27,28
 0 448 0 448 0 192 c 1,29,-1
 64 192 l 1,30,-1
 64 128 l 1,31,-1
 256 128 l 1,32,-1
 256 192 l 1,33,-1
 128 192 l 1,34,35
 128 192 128 192 128 448 c 1,36,-1
 192 448 l 1,37,-1
 192 384 l 1,38,-1
 256 384 l 1,39,-1
 256 192 l 1,40,-1
 320 192 l 1,41,-1
 320 128 l 1,42,-1
 448 128 l 1,0,-1
192 576 m 1,43,44
 192 576 192 576 192 704 c 1,45,-1
 256 704 l 1,46,47
 256 704 256 704 256 576 c 1,48,-1
 192 576 l 1,43,44
EndSplineSet
Validated: 5
EndChar

StartChar: quotesingle
Encoding: 39 39 41
Width: 512
Flags: W
LayerCount: 2
Fore
SplineSet
192 640 m 1,0,-1
 256 640 l 1,1,-1
 256 832 l 1,2,-1
 128 832 l 1,3,4
 128 832 128 832 128 576 c 1,5,-1
 192 576 l 1,6,-1
 192 640 l 1,0,-1
EndSplineSet
Validated: 9
EndChar

StartChar: parenleft
Encoding: 40 40 42
Width: 512
Flags: W
LayerCount: 2
Fore
SplineSet
384 128 m 1,0,-1
 384 192 l 1,1,-1
 320 192 l 1,2,-1
 320 256 l 1,3,-1
 256 256 l 1,4,5
 256 256 256 256 256 640 c 1,6,-1
 320 640 l 1,7,-1
 320 704 l 1,8,-1
 384 704 l 1,9,-1
 384 768 l 1,10,-1
 256 768 l 1,11,-1
 256 704 l 1,12,-1
 192 704 l 1,13,-1
 192 640 l 1,14,-1
 128 640 l 1,15,16
 128 640 128 640 128 256 c 1,17,-1
 192 256 l 1,18,-1
 192 192 l 1,19,-1
 256 192 l 1,20,-1
 256 128 l 1,21,-1
 384 128 l 1,0,-1
EndSplineSet
Validated: 9
EndChar

StartChar: parenright
Encoding: 41 41 43
Width: 512
Flags: W
LayerCount: 2
Fore
SplineSet
256 192 m 1,0,-1
 320 192 l 1,1,-1
 320 256 l 1,2,-1
 384 256 l 1,3,4
 384 256 384 256 384 640 c 1,5,-1
 320 640 l 1,6,-1
 320 704 l 1,7,-1
 256 704 l 1,8,-1
 256 768 l 1,9,-1
 128 768 l 1,10,-1
 128 704 l 1,11,-1
 192 704 l 1,12,-1
 192 640 l 1,13,-1
 256 640 l 1,14,15
 256 640 256 640 256 256 c 1,16,-1
 192 256 l 1,17,-1
 192 192 l 1,18,-1
 128 192 l 1,19,-1
 128 128 l 1,20,-1
 256 128 l 1,21,-1
 256 192 l 1,0,-1
EndSplineSet
Validated: 9
EndChar

StartChar: asterisk
Encoding: 42 42 44
Width: 512
Flags: W
LayerCount: 2
Fore
SplineSet
448 256 m 1,0,-1
 448 320 l 1,1,-1
 384 320 l 1,2,-1
 384 384 l 1,3,-1
 512 384 l 1,4,-1
 512 448 l 1,5,-1
 384 448 l 1,6,-1
 384 512 l 1,7,-1
 448 512 l 1,8,-1
 448 576 l 1,9,-1
 320 576 l 1,10,-1
 320 512 l 1,11,-1
 192 512 l 1,12,-1
 192 576 l 1,13,-1
 64 576 l 1,14,-1
 64 512 l 1,15,-1
 128 512 l 1,16,-1
 128 448 l 1,17,-1
 0 448 l 1,18,-1
 0 384 l 1,19,-1
 128 384 l 1,20,-1
 128 320 l 1,21,-1
 64 320 l 1,22,-1
 64 256 l 1,23,-1
 192 256 l 1,24,-1
 192 320 l 1,25,-1
 320 320 l 1,26,-1
 320 256 l 1,27,-1
 448 256 l 1,0,-1
EndSplineSet
Validated: 9
EndChar

StartChar: plus
Encoding: 43 43 45
Width: 512
Flags: W
LayerCount: 2
Fore
SplineSet
448 384 m 1,0,-1
 448 448 l 1,1,-1
 320 448 l 1,2,3
 320 448 320 448 320 576 c 1,4,-1
 192 576 l 1,5,6
 192 576 192 576 192 448 c 1,7,-1
 64 448 l 1,8,-1
 64 384 l 1,9,-1
 192 384 l 1,10,11
 192 384 192 384 192 256 c 1,12,-1
 320 256 l 1,13,14
 320 256 320 256 320 384 c 1,15,-1
 448 384 l 1,0,-1
EndSplineSet
Validated: 9
EndChar

StartChar: comma
Encoding: 44 44 46
Width: 512
Flags: W
LayerCount: 2
Fore
SplineSet
256 128 m 1,0,-1
 320 128 l 1,1,-1
 320 320 l 1,2,-1
 192 320 l 1,3,-1
 192 128 l 1,4,-1
 128 128 l 1,5,-1
 128 64 l 1,6,-1
 256 64 l 1,7,-1
 256 128 l 1,0,-1
EndSplineSet
Validated: 9
EndChar

StartChar: hyphen
Encoding: 45 45 47
Width: 512
Flags: W
LayerCount: 2
Fore
SplineSet
448 384 m 1,0,-1
 448 448 l 1,1,-1
 0 448 l 1,2,-1
 0 384 l 1,3,-1
 448 384 l 1,0,-1
EndSplineSet
Validated: 9
EndChar

StartChar: period
Encoding: 46 46 48
Width: 512
Flags: W
LayerCount: 2
Fore
SplineSet
192 256 m 1,0,1
 192 256 192 256 192 128 c 1,2,-1
 320 128 l 1,3,4
 320 128 320 128 320 256 c 1,5,-1
 192 256 l 1,0,1
EndSplineSet
Validated: 9
EndChar

StartChar: slash
Encoding: 47 47 49
Width: 512
Flags: W
LayerCount: 2
Fore
SplineSet
64 192 m 1,0,-1
 128 192 l 1,1,-1
 128 256 l 1,2,-1
 192 256 l 1,3,-1
 192 320 l 1,4,-1
 256 320 l 1,5,-1
 256 384 l 1,6,-1
 320 384 l 1,7,-1
 320 448 l 1,8,-1
 384 448 l 1,9,-1
 384 512 l 1,10,-1
 448 512 l 1,11,12
 448 512 448 512 448 640 c 1,13,-1
 384 640 l 1,14,-1
 384 576 l 1,15,-1
 320 576 l 1,16,-1
 320 512 l 1,17,-1
 256 512 l 1,18,-1
 256 448 l 1,19,-1
 192 448 l 1,20,-1
 192 384 l 1,21,-1
 128 384 l 1,22,-1
 128 320 l 1,23,-1
 64 320 l 1,24,-1
 64 256 l 1,25,-1
 0 256 l 1,26,27
 0 256 0 256 0 128 c 1,28,-1
 64 128 l 1,29,-1
 64 192 l 1,0,-1
EndSplineSet
Validated: 9
EndChar

StartChar: zero
Encoding: 48 48 50
Width: 512
Flags: W
LayerCount: 2
Fore
SplineSet
128 192 m 1,0,-1
 128 128 l 1,1,-1
 320 128 l 1,2,-1
 320 192 l 1,3,-1
 384 192 l 1,4,-1
 384 256 l 1,5,-1
 448 256 l 1,6,7
 448 256 448 256 448 640 c 1,8,-1
 384 640 l 1,9,-1
 384 704 l 1,10,-1
 320 704 l 1,11,-1
 320 768 l 1,12,-1
 128 768 l 1,13,-1
 128 704 l 1,14,-1
 64 704 l 1,15,-1
 64 640 l 1,16,-1
 0 640 l 1,17,18
 0 640 0 640 0 256 c 1,19,-1
 64 256 l 1,20,-1
 64 192 l 1,21,-1
 128 192 l 1,0,-1
192 192 m 1,22,-1
 192 256 l 1,23,-1
 128 256 l 1,24,25
 129 320 l 0,26,-1
 192 321 l 0,27,-1
 192 384 l 0,28,-1
 256 384 l 0,29,-1
 256 448 l 0,30,-1
 320 448 l 0,31,-1
 320 576 l 0,32,-1
 256 576 l 0,33,-1
 256 512 l 0,34,-1
 192 511 l 0,35,-1
 192 448 l 0,36,-1
 128 448 l 0,37,-1
 128 640 l 1,38,-1
 192 640 l 1,39,-1
 192 704 l 1,40,-1
 256 704 l 1,41,-1
 256 640 l 1,42,-1
 320 640 l 1,43,44
 320 256 l 1,45,-1
 256 256 l 1,46,-1
 256 192 l 1,47,-1
 192 192 l 1,22,-1
EndSplineSet
EndChar

StartChar: one
Encoding: 49 49 51
Width: 512
Flags: W
LayerCount: 2
Fore
SplineSet
448 128 m 1,0,-1
 448 192 l 1,1,-1
 320 192 l 1,2,-1
 320 768 l 1,3,-1
 192 768 l 1,4,-1
 192 704 l 1,5,-1
 128 704 l 1,6,-1
 128 640 l 1,7,-1
 64 640 l 1,8,-1
 64 576 l 1,9,-1
 192 576 l 1,10,11
 192 576 192 576 192 192 c 1,12,-1
 64 192 l 1,13,-1
 64 128 l 1,14,-1
 448 128 l 1,0,-1
EndSplineSet
Validated: 9
EndChar

StartChar: two
Encoding: 50 50 52
Width: 512
Flags: W
LayerCount: 2
Fore
SplineSet
0 320 m 1,0,-1
 0 128 l 1,1,-1
 448 128 l 1,2,3
 448 128 448 128 448 256 c 1,4,-1
 320 256 l 1,5,-1
 320 192 l 1,6,-1
 128 192 l 1,7,8
 128 192 128 192 128 320 c 1,9,-1
 192 320 l 1,10,-1
 192 384 l 1,11,-1
 256 384 l 1,12,-1
 256 448 l 1,13,-1
 320 448 l 1,14,-1
 320 512 l 1,15,-1
 384 512 l 1,16,-1
 384 576 l 1,17,-1
 448 576 l 1,18,19
 448 576 448 576 448 704 c 1,20,-1
 384 704 l 1,21,-1
 384 768 l 1,22,-1
 64 768 l 1,23,-1
 64 704 l 1,24,-1
 0 704 l 1,25,-1
 0 640 l 1,26,-1
 128 640 l 1,27,-1
 128 704 l 1,28,-1
 320 704 l 1,29,30
 320 704 320 704 320 576 c 1,31,-1
 256 576 l 1,32,-1
 256 512 l 1,33,-1
 192 512 l 1,34,-1
 192 448 l 1,35,-1
 128 448 l 1,36,-1
 128 384 l 1,37,-1
 64 384 l 1,38,-1
 64 320 l 1,39,-1
 0 320 l 1,0,-1
EndSplineSet
Validated: 9
EndChar

StartChar: three
Encoding: 51 51 53
Width: 512
Flags: W
LayerCount: 2
Fore
SplineSet
64 192 m 1,0,-1
 64 128 l 1,1,-1
 384 128 l 1,2,-1
 384 192 l 1,3,-1
 448 192 l 1,4,5
 448 192 448 192 448 448 c 1,6,-1
 384 448 l 1,7,-1
 384 512 l 1,8,-1
 448 512 l 1,9,-1
 448 704 l 1,10,-1
 384 704 l 1,11,-1
 384 768 l 1,12,-1
 64 768 l 1,13,-1
 64 704 l 1,14,-1
 0 704 l 1,15,-1
 0 640 l 1,16,-1
 128 640 l 1,17,-1
 128 704 l 1,18,-1
 320 704 l 1,19,-1
 320 512 l 1,20,-1
 128 512 l 1,21,-1
 128 448 l 1,22,-1
 320 448 l 1,23,24
 320 448 320 448 320 192 c 1,25,-1
 128 192 l 1,26,-1
 128 256 l 1,27,-1
 0 256 l 1,28,-1
 0 192 l 1,29,-1
 64 192 l 1,0,-1
EndSplineSet
Validated: 9
EndChar

StartChar: four
Encoding: 52 52 54
Width: 512
Flags: W
LayerCount: 2
Fore
SplineSet
448 128 m 1,0,-1
 448 192 l 1,1,-1
 384 192 l 1,2,-1
 384 384 l 1,3,-1
 448 384 l 1,4,-1
 448 448 l 1,5,-1
 384 448 l 1,6,-1
 384 768 l 1,7,-1
 256 768 l 1,8,-1
 256 704 l 1,9,-1
 192 704 l 1,10,-1
 192 640 l 1,11,-1
 128 640 l 1,12,-1
 128 576 l 1,13,-1
 64 576 l 1,14,-1
 64 512 l 1,15,-1
 0 512 l 1,16,17
 0 512 0 512 0 384 c 1,18,-1
 256 384 l 1,19,-1
 256 192 l 1,20,-1
 192 192 l 1,21,-1
 192 128 l 1,22,-1
 448 128 l 1,0,-1
128 448 m 1,23,-1
 128 512 l 1,24,-1
 192 512 l 1,25,-1
 192 576 l 1,26,-1
 256 576 l 1,27,28
 256 576 256 576 256 448 c 1,29,-1
 128 448 l 1,23,-1
EndSplineSet
Validated: 9
EndChar

StartChar: five
Encoding: 53 53 55
Width: 512
Flags: W
LayerCount: 2
Fore
SplineSet
448 704 m 1,0,-1
 448 768 l 1,1,-1
 0 768 l 1,2,-1
 0 448 l 1,3,-1
 320 448 l 1,4,5
 320 448 320 448 320 192 c 1,6,-1
 128 192 l 1,7,-1
 128 256 l 1,8,-1
 0 256 l 1,9,-1
 0 192 l 1,10,-1
 64 192 l 1,11,-1
 64 128 l 1,12,-1
 384 128 l 1,13,-1
 384 192 l 1,14,-1
 448 192 l 1,15,16
 448 192 448 192 448 448 c 1,17,-1
 384 448 l 1,18,-1
 384 512 l 1,19,-1
 128 512 l 1,20,-1
 128 704 l 1,21,-1
 448 704 l 1,0,-1
EndSplineSet
Validated: 9
EndChar

StartChar: six
Encoding: 54 54 56
Width: 512
Flags: W
LayerCount: 2
Fore
SplineSet
320 704 m 1,0,-1
 320 768 l 1,1,-1
 128 768 l 1,2,-1
 128 704 l 1,3,-1
 64 704 l 1,4,-1
 64 640 l 1,5,-1
 0 640 l 1,6,-1
 0 192 l 1,7,-1
 64 192 l 1,8,-1
 64 128 l 1,9,-1
 384 128 l 1,10,-1
 384 192 l 1,11,-1
 448 192 l 1,12,13
 448 192 448 192 448 448 c 1,14,-1
 384 448 l 1,15,-1
 384 512 l 1,16,-1
 128 512 l 1,17,18
 128 512 128 512 128 640 c 1,19,-1
 192 640 l 1,20,-1
 192 704 l 1,21,-1
 320 704 l 1,0,-1
128 192 m 1,22,23
 128 192 128 192 128 448 c 1,24,-1
 320 448 l 1,25,26
 320 448 320 448 320 192 c 1,27,-1
 128 192 l 1,22,23
EndSplineSet
Validated: 9
EndChar

StartChar: seven
Encoding: 55 55 57
Width: 512
Flags: W
LayerCount: 2
Fore
SplineSet
128 384 m 1,0,1
 128 384 128 384 128 128 c 1,2,-1
 256 128 l 1,3,4
 256 128 256 128 256 384 c 1,5,-1
 320 384 l 1,6,-1
 320 448 l 1,7,-1
 384 448 l 1,8,-1
 384 512 l 1,9,-1
 448 512 l 1,10,11
 448 512 448 512 448 768 c 1,12,-1
 0 768 l 1,13,14
 0 768 0 768 0 640 c 1,15,-1
 128 640 l 1,16,-1
 128 704 l 1,17,-1
 320 704 l 1,18,-1
 320 512 l 1,19,-1
 256 512 l 1,20,-1
 256 448 l 1,21,-1
 192 448 l 1,22,-1
 192 384 l 1,23,-1
 128 384 l 1,0,1
EndSplineSet
Validated: 9
EndChar

StartChar: eight
Encoding: 56 56 58
Width: 512
Flags: W
LayerCount: 2
Fore
SplineSet
64 192 m 1,0,-1
 64 128 l 1,1,-1
 384 128 l 1,2,-1
 384 192 l 1,3,-1
 448 192 l 1,4,5
 448 192 448 192 448 448 c 1,6,-1
 384 448 l 1,7,-1
 384 512 l 1,8,-1
 448 512 l 1,9,-1
 448 704 l 1,10,-1
 384 704 l 1,11,-1
 384 768 l 1,12,-1
 64 768 l 1,13,-1
 64 704 l 1,14,-1
 0 704 l 1,15,-1
 0 512 l 1,16,-1
 64 512 l 1,17,-1
 64 448 l 1,18,-1
 0 448 l 1,19,20
 0 448 0 448 0 192 c 1,21,-1
 64 192 l 1,0,-1
128 192 m 1,22,23
 128 192 128 192 128 448 c 1,24,-1
 320 448 l 1,25,26
 320 448 320 448 320 192 c 1,27,-1
 128 192 l 1,22,23
128 512 m 1,28,-1
 128 704 l 1,29,-1
 320 704 l 1,30,-1
 320 512 l 1,31,-1
 128 512 l 1,28,-1
EndSplineSet
Validated: 9
EndChar

StartChar: nine
Encoding: 57 57 59
Width: 512
Flags: W
LayerCount: 2
Fore
SplineSet
320 192 m 1,0,-1
 384 192 l 1,1,-1
 384 256 l 1,2,-1
 448 256 l 1,3,-1
 448 704 l 1,4,-1
 384 704 l 1,5,-1
 384 768 l 1,6,-1
 64 768 l 1,7,-1
 64 704 l 1,8,-1
 0 704 l 1,9,-1
 0 512 l 1,10,-1
 64 512 l 1,11,-1
 64 448 l 1,12,-1
 320 448 l 1,13,-1
 320 256 l 1,14,-1
 256 256 l 1,15,-1
 256 192 l 1,16,-1
 64 192 l 1,17,-1
 64 128 l 1,18,-1
 320 128 l 1,19,-1
 320 192 l 1,0,-1
128 512 m 1,20,-1
 128 704 l 1,21,-1
 320 704 l 1,22,-1
 320 512 l 1,23,-1
 128 512 l 1,20,-1
EndSplineSet
Validated: 9
EndChar

StartChar: colon
Encoding: 58 58 60
Width: 512
Flags: W
LayerCount: 2
Fore
SplineSet
192 320 m 1,0,1
 192 320 192 320 192 192 c 1,2,-1
 320 192 l 1,3,4
 320 192 320 192 320 320 c 1,5,-1
 192 320 l 1,0,1
192 640 m 1,6,7
 192 640 192 640 192 512 c 1,8,-1
 320 512 l 1,9,10
 320 512 320 512 320 640 c 1,11,-1
 192 640 l 1,6,7
EndSplineSet
Validated: 9
EndChar

StartChar: semicolon
Encoding: 59 59 61
Width: 512
Flags: W
LayerCount: 2
Fore
SplineSet
256 192 m 1,0,-1
 320 192 l 1,1,2
 320 192 320 192 320 320 c 1,3,-1
 192 320 l 1,4,5
 192 320 192 320 192 192 c 1,6,-1
 128 192 l 1,7,-1
 128 128 l 1,8,-1
 256 128 l 1,9,-1
 256 192 l 1,0,-1
192 640 m 1,10,11
 192 640 192 640 192 512 c 1,12,-1
 320 512 l 1,13,14
 320 512 320 512 320 640 c 1,15,-1
 192 640 l 1,10,11
EndSplineSet
Validated: 9
EndChar

StartChar: less
Encoding: 60 60 62
Width: 512
Flags: W
LayerCount: 2
Fore
SplineSet
448 128 m 1,0,-1
 448 192 l 1,1,-1
 384 192 l 1,2,-1
 384 256 l 1,3,-1
 320 256 l 1,4,-1
 320 320 l 1,5,-1
 256 320 l 1,6,-1
 256 384 l 1,7,-1
 192 384 l 1,8,-1
 192 448 l 1,9,-1
 256 448 l 1,10,-1
 256 512 l 1,11,-1
 320 512 l 1,12,-1
 320 576 l 1,13,-1
 384 576 l 1,14,-1
 384 640 l 1,15,-1
 448 640 l 1,16,-1
 448 704 l 1,17,-1
 320 704 l 1,18,-1
 320 640 l 1,19,-1
 256 640 l 1,20,-1
 256 576 l 1,21,-1
 192 576 l 1,22,-1
 192 512 l 1,23,-1
 128 512 l 1,24,-1
 128 448 l 1,25,-1
 64 448 l 1,26,-1
 64 384 l 1,27,-1
 128 384 l 1,28,-1
 128 320 l 1,29,-1
 192 320 l 1,30,-1
 192 256 l 1,31,-1
 256 256 l 1,32,-1
 256 192 l 1,33,-1
 320 192 l 1,34,-1
 320 128 l 1,35,-1
 448 128 l 1,0,-1
EndSplineSet
Validated: 9
EndChar

StartChar: equal
Encoding: 61 61 63
Width: 512
Flags: W
LayerCount: 2
Fore
SplineSet
448 320 m 1,0,-1
 448 384 l 1,1,-1
 64 384 l 1,2,-1
 64 320 l 1,3,-1
 448 320 l 1,0,-1
448 512 m 1,4,-1
 448 576 l 1,5,-1
 64 576 l 1,6,-1
 64 512 l 1,7,-1
 448 512 l 1,4,-1
EndSplineSet
Validated: 9
EndChar

StartChar: greater
Encoding: 62 62 64
Width: 512
Flags: W
LayerCount: 2
Fore
SplineSet
448 384 m 1,0,-1
 448 448 l 1,1,-1
 384 448 l 1,2,-1
 384 512 l 1,3,-1
 320 512 l 1,4,-1
 320 576 l 1,5,-1
 256 576 l 1,6,-1
 256 640 l 1,7,-1
 192 640 l 1,8,-1
 192 704 l 1,9,-1
 64 704 l 1,10,-1
 64 640 l 1,11,-1
 128 640 l 1,12,-1
 128 576 l 1,13,-1
 192 576 l 1,14,-1
 192 512 l 1,15,-1
 256 512 l 1,16,-1
 256 448 l 1,17,-1
 320 448 l 1,18,-1
 320 384 l 1,19,-1
 256 384 l 1,20,-1
 256 320 l 1,21,-1
 192 320 l 1,22,-1
 192 256 l 1,23,-1
 128 256 l 1,24,-1
 128 192 l 1,25,-1
 64 192 l 1,26,-1
 64 128 l 1,27,-1
 192 128 l 1,28,-1
 192 192 l 1,29,-1
 256 192 l 1,30,-1
 256 256 l 1,31,-1
 320 256 l 1,32,-1
 320 320 l 1,33,-1
 384 320 l 1,34,-1
 384 384 l 1,35,-1
 448 384 l 1,0,-1
EndSplineSet
Validated: 9
EndChar

StartChar: question
Encoding: 63 63 65
Width: 512
Flags: W
LayerCount: 2
Fore
SplineSet
192 256 m 1,0,1
 192 256 192 256 192 128 c 1,2,-1
 320 128 l 1,3,4
 320 128 320 128 320 256 c 1,5,-1
 192 256 l 1,0,1
192 512 m 1,6,-1
 192 320 l 1,7,-1
 320 320 l 1,8,-1
 320 512 l 1,9,-1
 384 512 l 1,10,-1
 384 576 l 1,11,-1
 448 576 l 1,12,13
 448 576 448 576 448 704 c 1,14,-1
 384 704 l 1,15,-1
 384 768 l 1,16,-1
 64 768 l 1,17,-1
 64 704 l 1,18,-1
 0 704 l 1,19,20
 0 704 0 704 0 576 c 1,21,-1
 128 576 l 1,22,23
 128 576 128 576 128 704 c 1,24,-1
 320 704 l 1,25,26
 320 704 320 704 320 576 c 1,27,-1
 256 576 l 1,28,-1
 256 512 l 1,29,-1
 192 512 l 1,6,-1
EndSplineSet
Validated: 9
EndChar

StartChar: at
Encoding: 64 64 66
Width: 512
Flags: W
LayerCount: 2
Fore
SplineSet
384 128 m 1,0,-1
 384 192 l 1,1,-1
 128 192 l 1,2,-1
 128 640 l 1,3,-1
 320 640 l 1,4,5
 320 640 320 640 320 512 c 1,6,-1
 192 512 l 1,7,8
 192 512 192 512 192 256 c 1,9,-1
 384 256 l 1,10,-1
 384 320 l 1,11,-1
 448 320 l 1,12,-1
 448 640 l 1,13,-1
 384 640 l 1,14,-1
 384 704 l 1,15,-1
 64 704 l 1,16,-1
 64 640 l 1,17,-1
 0 640 l 1,18,-1
 0 192 l 1,19,-1
 64 192 l 1,20,-1
 64 128 l 1,21,-1
 384 128 l 1,0,-1
EndSplineSet
Validated: 9
EndChar

StartChar: A
Encoding: 65 65 67
Width: 512
Flags: W
LayerCount: 2
Fore
SplineSet
0 576 m 1,0,-1
 0 128 l 1,1,-1
 128 128 l 1,2,3
 128 128 128 128 128 384 c 1,4,-1
 320 384 l 1,5,6
 320 384 320 384 320 128 c 1,7,-1
 448 128 l 1,8,-1
 448 576 l 1,9,-1
 384 576 l 1,10,-1
 384 640 l 1,11,-1
 320 640 l 1,12,-1
 320 704 l 1,13,-1
 256 704 l 1,14,-1
 256 768 l 1,15,-1
 192 768 l 1,16,-1
 192 704 l 1,17,-1
 128 704 l 1,18,-1
 128 640 l 1,19,-1
 64 640 l 1,20,-1
 64 576 l 1,21,-1
 0 576 l 1,0,-1
128 448 m 1,22,23
 128 448 128 448 128 576 c 1,24,-1
 192 576 l 1,25,-1
 192 640 l 1,26,-1
 256 640 l 1,27,-1
 256 576 l 1,28,-1
 320 576 l 1,29,30
 320 576 320 576 320 448 c 1,31,-1
 128 448 l 1,22,23
EndSplineSet
Validated: 9
EndChar

StartChar: B
Encoding: 66 66 68
Width: 512
Flags: W
LayerCount: 2
Fore
SplineSet
64 192 m 1,0,-1
 0 192 l 1,1,-1
 0 128 l 1,2,-1
 384 128 l 1,3,-1
 384 192 l 1,4,-1
 448 192 l 1,5,6
 448 192 448 192 448 448 c 1,7,-1
 384 448 l 1,8,-1
 384 512 l 1,9,-1
 448 512 l 1,10,-1
 448 704 l 1,11,-1
 384 704 l 1,12,-1
 384 768 l 1,13,-1
 0 768 l 1,14,-1
 0 704 l 1,15,-1
 64 704 l 1,16,17
 64 704 64 704 64 192 c 1,0,-1
192 192 m 1,18,19
 192 192 192 192 192 448 c 1,20,-1
 320 448 l 1,21,22
 320 448 320 448 320 192 c 1,23,-1
 192 192 l 1,18,19
192 512 m 1,24,-1
 192 704 l 1,25,-1
 320 704 l 1,26,-1
 320 512 l 1,27,-1
 192 512 l 1,24,-1
EndSplineSet
Validated: 9
EndChar

StartChar: C
Encoding: 67 67 69
Width: 512
Flags: W
LayerCount: 2
Fore
SplineSet
128 192 m 1,0,-1
 128 128 l 1,1,-1
 384 128 l 1,2,-1
 384 192 l 1,3,-1
 448 192 l 1,4,5
 448 192 448 192 448 320 c 1,6,-1
 384 320 l 1,7,-1
 384 256 l 1,8,-1
 320 256 l 1,9,-1
 320 192 l 1,10,-1
 192 192 l 1,11,-1
 192 256 l 1,12,-1
 128 256 l 1,13,14
 128 256 128 256 128 640 c 1,15,-1
 192 640 l 1,16,-1
 192 704 l 1,17,-1
 320 704 l 1,18,-1
 320 640 l 1,19,-1
 384 640 l 1,20,-1
 384 576 l 1,21,-1
 448 576 l 1,22,23
 448 576 448 576 448 704 c 1,24,-1
 384 704 l 1,25,-1
 384 768 l 1,26,-1
 128 768 l 1,27,-1
 128 704 l 1,28,-1
 64 704 l 1,29,-1
 64 640 l 1,30,-1
 0 640 l 1,31,32
 0 640 0 640 0 256 c 1,33,-1
 64 256 l 1,34,-1
 64 192 l 1,35,-1
 128 192 l 1,0,-1
EndSplineSet
Validated: 9
EndChar

StartChar: D
Encoding: 68 68 70
Width: 512
Flags: W
LayerCount: 2
Fore
SplineSet
64 192 m 1,0,-1
 0 192 l 1,1,-1
 0 128 l 1,2,-1
 320 128 l 1,3,-1
 320 192 l 1,4,-1
 384 192 l 1,5,-1
 384 256 l 1,6,-1
 448 256 l 1,7,8
 448 256 448 256 448 640 c 1,9,-1
 384 640 l 1,10,-1
 384 704 l 1,11,-1
 320 704 l 1,12,-1
 320 768 l 1,13,-1
 0 768 l 1,14,-1
 0 704 l 1,15,-1
 64 704 l 1,16,17
 64 704 64 704 64 192 c 1,0,-1
192 192 m 1,18,19
 192 192 192 192 192 704 c 1,20,-1
 256 704 l 1,21,-1
 256 640 l 1,22,-1
 320 640 l 1,23,24
 320 640 320 640 320 256 c 1,25,-1
 256 256 l 1,26,-1
 256 192 l 1,27,-1
 192 192 l 1,18,19
EndSplineSet
Validated: 9
EndChar

StartChar: E
Encoding: 69 69 71
Width: 512
Flags: W
LayerCount: 2
Fore
SplineSet
64 192 m 1,0,-1
 0 192 l 1,1,-1
 0 128 l 1,2,-1
 448 128 l 1,3,-1
 448 320 l 1,4,-1
 384 320 l 1,5,-1
 384 256 l 1,6,-1
 320 256 l 1,7,-1
 320 192 l 1,8,-1
 192 192 l 1,9,10
 192 192 192 192 192 448 c 1,11,-1
 256 448 l 1,12,-1
 256 384 l 1,13,-1
 320 384 l 1,14,-1
 320 576 l 1,15,-1
 256 576 l 1,16,-1
 256 512 l 1,17,-1
 192 512 l 1,18,-1
 192 704 l 1,19,-1
 320 704 l 1,20,-1
 320 640 l 1,21,-1
 384 640 l 1,22,-1
 384 576 l 1,23,-1
 448 576 l 1,24,-1
 448 768 l 1,25,-1
 0 768 l 1,26,-1
 0 704 l 1,27,-1
 64 704 l 1,28,29
 64 704 64 704 64 192 c 1,0,-1
EndSplineSet
Validated: 9
EndChar

StartChar: F
Encoding: 70 70 72
Width: 512
Flags: W
LayerCount: 2
Fore
SplineSet
256 128 m 1,0,-1
 256 192 l 1,1,-1
 192 192 l 1,2,3
 192 192 192 192 192 448 c 1,4,-1
 256 448 l 1,5,-1
 256 384 l 1,6,-1
 320 384 l 1,7,-1
 320 576 l 1,8,-1
 256 576 l 1,9,-1
 256 512 l 1,10,-1
 192 512 l 1,11,-1
 192 704 l 1,12,-1
 320 704 l 1,13,-1
 320 640 l 1,14,-1
 384 640 l 1,15,-1
 384 576 l 1,16,-1
 448 576 l 1,17,-1
 448 768 l 1,18,-1
 0 768 l 1,19,-1
 0 704 l 1,20,-1
 64 704 l 1,21,22
 64 704 64 704 64 192 c 1,23,-1
 0 192 l 1,24,-1
 0 128 l 1,25,-1
 256 128 l 1,0,-1
EndSplineSet
Validated: 9
EndChar

StartChar: G
Encoding: 71 71 73
Width: 512
Flags: W
LayerCount: 2
Fore
SplineSet
128 192 m 1,0,-1
 128 128 l 1,1,-1
 320 128 l 1,2,-1
 320 192 l 1,3,-1
 192 192 l 1,4,-1
 192 256 l 1,5,-1
 128 256 l 1,6,7
 128 256 128 256 128 640 c 1,8,-1
 192 640 l 1,9,-1
 192 704 l 1,10,-1
 320 704 l 1,11,-1
 320 640 l 1,12,-1
 384 640 l 1,13,-1
 384 576 l 1,14,-1
 448 576 l 1,15,16
 448 576 448 576 448 704 c 1,17,-1
 384 704 l 1,18,-1
 384 768 l 1,19,-1
 128 768 l 1,20,-1
 128 704 l 1,21,-1
 64 704 l 1,22,-1
 64 640 l 1,23,-1
 0 640 l 1,24,25
 0 640 0 640 0 256 c 1,26,-1
 64 256 l 1,27,-1
 64 192 l 1,28,-1
 128 192 l 1,0,-1
384 192 m 1,29,-1
 384 128 l 1,30,-1
 448 128 l 1,31,-1
 448 448 l 1,32,-1
 192 448 l 1,33,-1
 192 384 l 1,34,-1
 320 384 l 1,35,-1
 320 192 l 1,36,-1
 384 192 l 1,29,-1
EndSplineSet
Validated: 5
EndChar

StartChar: H
Encoding: 72 72 74
Width: 512
Flags: W
LayerCount: 2
Fore
SplineSet
0 768 m 1,0,1
 0 768 0 768 0 128 c 1,2,-1
 128 128 l 1,3,-1
 128 448 l 1,4,-1
 320 448 l 1,5,-1
 320 128 l 1,6,-1
 448 128 l 1,7,8
 448 128 448 128 448 768 c 1,9,-1
 320 768 l 1,10,11
 320 768 320 768 320 512 c 1,12,-1
 128 512 l 1,13,14
 128 512 128 512 128 768 c 1,15,-1
 0 768 l 1,0,1
EndSplineSet
Validated: 9
EndChar

StartChar: I
Encoding: 73 73 75
Width: 512
Flags: W
LayerCount: 2
Fore
SplineSet
384 128 m 1,0,-1
 384 192 l 1,1,-1
 320 192 l 1,2,3
 320 192 320 192 320 704 c 1,4,-1
 384 704 l 1,5,-1
 384 768 l 1,6,-1
 128 768 l 1,7,-1
 128 704 l 1,8,-1
 192 704 l 1,9,10
 192 704 192 704 192 192 c 1,11,-1
 128 192 l 1,12,-1
 128 128 l 1,13,-1
 384 128 l 1,0,-1
EndSplineSet
Validated: 9
EndChar

StartChar: J
Encoding: 74 74 76
Width: 512
Flags: W
LayerCount: 2
Fore
SplineSet
448 704 m 1,0,-1
 448 768 l 1,1,-1
 192 768 l 1,2,-1
 192 704 l 1,3,-1
 256 704 l 1,4,5
 256 704 256 704 256 192 c 1,6,-1
 128 192 l 1,7,-1
 128 384 l 1,8,-1
 0 384 l 1,9,-1
 0 192 l 1,10,-1
 64 192 l 1,11,-1
 64 128 l 1,12,-1
 320 128 l 1,13,-1
 320 192 l 1,14,-1
 384 192 l 1,15,16
 384 192 384 192 384 704 c 1,17,-1
 448 704 l 1,0,-1
EndSplineSet
Validated: 9
EndChar

StartChar: K
Encoding: 75 75 77
Width: 512
Flags: W
LayerCount: 2
Fore
SplineSet
64 192 m 1,0,-1
 0 192 l 1,1,-1
 0 128 l 1,2,-1
 192 128 l 1,3,4
 192 128 192 128 192 384 c 1,5,-1
 256 384 l 1,6,-1
 256 320 l 1,7,-1
 320 320 l 1,8,-1
 320 128 l 1,9,-1
 448 128 l 1,10,-1
 448 320 l 1,11,-1
 384 320 l 1,12,-1
 384 384 l 1,13,-1
 320 384 l 1,14,15
 320 384 320 384 320 512 c 1,16,-1
 384 512 l 1,17,-1
 384 576 l 1,18,-1
 448 576 l 1,19,-1
 448 768 l 1,20,-1
 320 768 l 1,21,-1
 320 576 l 1,22,-1
 256 576 l 1,23,-1
 256 512 l 1,24,-1
 192 512 l 1,25,26
 192 512 192 512 192 768 c 1,27,-1
 0 768 l 1,28,-1
 0 704 l 1,29,-1
 64 704 l 1,30,31
 64 704 64 704 64 192 c 1,0,-1
EndSplineSet
Validated: 9
EndChar

StartChar: L
Encoding: 76 76 78
Width: 512
Flags: W
LayerCount: 2
Fore
SplineSet
256 704 m 1,0,-1
 256 768 l 1,1,-1
 0 768 l 1,2,-1
 0 704 l 1,3,-1
 64 704 l 1,4,5
 64 704 64 704 64 192 c 1,6,-1
 0 192 l 1,7,-1
 0 128 l 1,8,-1
 448 128 l 1,9,-1
 448 320 l 1,10,-1
 384 320 l 1,11,-1
 384 256 l 1,12,-1
 320 256 l 1,13,-1
 320 192 l 1,14,-1
 192 192 l 1,15,16
 192 192 192 192 192 704 c 1,17,-1
 256 704 l 1,0,-1
EndSplineSet
Validated: 9
EndChar

StartChar: M
Encoding: 77 77 79
Width: 512
Flags: W
LayerCount: 2
Fore
SplineSet
0 768 m 1,0,1
 0 768 0 768 0 128 c 1,2,-1
 128 128 l 1,3,4
 128 128 128 128 128 512 c 1,5,-1
 192 512 l 1,6,-1
 192 448 l 1,7,-1
 256 448 l 1,8,-1
 256 512 l 1,9,-1
 320 512 l 1,10,11
 320 512 320 512 320 128 c 1,12,-1
 448 128 l 1,13,14
 448 128 448 128 448 768 c 1,15,-1
 320 768 l 1,16,-1
 320 704 l 1,17,-1
 256 704 l 1,18,-1
 256 640 l 1,19,-1
 192 640 l 1,20,-1
 192 704 l 1,21,-1
 128 704 l 1,22,-1
 128 768 l 1,23,-1
 0 768 l 1,0,1
EndSplineSet
Validated: 9
EndChar

StartChar: N
Encoding: 78 78 80
Width: 512
Flags: W
LayerCount: 2
Fore
SplineSet
0 768 m 1,0,1
 0 768 0 768 0 128 c 1,2,-1
 128 128 l 1,3,4
 128 128 128 128 128 512 c 1,5,-1
 192 512 l 1,6,-1
 192 448 l 1,7,-1
 256 448 l 1,8,-1
 256 384 l 1,9,-1
 320 384 l 1,10,11
 320 384 320 384 320 128 c 1,12,-1
 448 128 l 1,13,14
 448 128 448 128 448 768 c 1,15,-1
 320 768 l 1,16,-1
 320 576 l 1,17,-1
 256 576 l 1,18,-1
 256 640 l 1,19,-1
 192 640 l 1,20,-1
 192 704 l 1,21,-1
 128 704 l 1,22,-1
 128 768 l 1,23,-1
 0 768 l 1,0,1
EndSplineSet
Validated: 9
EndChar

StartChar: O
Encoding: 79 79 81
Width: 512
Flags: W
LayerCount: 2
Fore
SplineSet
64 192 m 1,0,-1
 64 128 l 1,1,-1
 384 128 l 1,2,-1
 384 192 l 1,3,-1
 448 192 l 1,4,5
 448 192 448 192 448 704 c 1,6,-1
 384 704 l 1,7,-1
 384 768 l 1,8,-1
 64 768 l 1,9,-1
 64 704 l 1,10,-1
 0 704 l 1,11,12
 0 704 0 704 0 192 c 1,13,-1
 64 192 l 1,0,-1
128 192 m 1,14,15
 128 192 128 192 128 704 c 1,16,-1
 320 704 l 1,17,18
 320 704 320 704 320 192 c 1,19,-1
 128 192 l 1,14,15
EndSplineSet
Validated: 9
EndChar

StartChar: P
Encoding: 80 80 82
Width: 512
Flags: W
LayerCount: 2
Fore
SplineSet
256 128 m 1,0,-1
 256 192 l 1,1,-1
 192 192 l 1,2,3
 192 192 192 192 192 448 c 1,4,-1
 384 448 l 1,5,-1
 384 512 l 1,6,-1
 448 512 l 1,7,-1
 448 704 l 1,8,-1
 384 704 l 1,9,-1
 384 768 l 1,10,-1
 0 768 l 1,11,-1
 0 704 l 1,12,-1
 64 704 l 1,13,14
 64 704 64 704 64 192 c 1,15,-1
 0 192 l 1,16,-1
 0 128 l 1,17,-1
 256 128 l 1,0,-1
192 512 m 1,18,-1
 192 704 l 1,19,-1
 320 704 l 1,20,-1
 320 512 l 1,21,-1
 192 512 l 1,18,-1
EndSplineSet
Validated: 9
EndChar

StartChar: Q
Encoding: 81 81 83
Width: 512
Flags: W
LayerCount: 2
Fore
SplineSet
448 0 m 1,0,-1
 448 64 l 1,1,-1
 384 64 l 1,2,3
 384 64 384 64 384 192 c 1,4,-1
 448 192 l 1,5,6
 448 192 448 192 448 704 c 1,7,-1
 384 704 l 1,8,-1
 384 768 l 1,9,-1
 64 768 l 1,10,-1
 64 704 l 1,11,-1
 0 704 l 1,12,13
 0 704 0 704 0 192 c 1,14,-1
 64 192 l 1,15,-1
 64 128 l 1,16,-1
 256 128 l 1,17,18
 256 128 256 128 256 0 c 1,19,-1
 448 0 l 1,0,-1
128 192 m 1,20,21
 128 192 128 192 128 704 c 1,22,-1
 320 704 l 1,23,-1
 320 256 l 1,24,-1
 256 256 l 1,25,-1
 256 320 l 1,26,-1
 192 320 l 1,27,28
 192 320 192 320 192 192 c 1,29,-1
 128 192 l 1,20,21
EndSplineSet
Validated: 9
EndChar

StartChar: R
Encoding: 82 82 84
Width: 512
Flags: W
LayerCount: 2
Fore
SplineSet
64 192 m 1,0,-1
 0 192 l 1,1,-1
 0 128 l 1,2,-1
 192 128 l 1,3,-1
 192 448 l 1,4,-1
 256 448 l 1,5,-1
 256 384 l 1,6,-1
 320 384 l 1,7,8
 320 384 320 384 320 128 c 1,9,-1
 448 128 l 1,10,11
 448 128 448 128 448 384 c 1,12,-1
 384 384 l 1,13,14
 384 384 384 384 384 512 c 1,15,-1
 448 512 l 1,16,-1
 448 704 l 1,17,-1
 384 704 l 1,18,-1
 384 768 l 1,19,-1
 0 768 l 1,20,-1
 0 704 l 1,21,-1
 64 704 l 1,22,23
 64 704 64 704 64 192 c 1,0,-1
192 512 m 1,24,-1
 192 704 l 1,25,-1
 320 704 l 1,26,-1
 320 512 l 1,27,-1
 192 512 l 1,24,-1
EndSplineSet
Validated: 9
EndChar

StartChar: S
Encoding: 83 83 85
Width: 512
Flags: W
LayerCount: 2
Fore
SplineSet
64 192 m 1,0,-1
 64 128 l 1,1,-1
 384 128 l 1,2,-1
 384 192 l 1,3,-1
 448 192 l 1,4,-1
 448 384 l 1,5,-1
 384 384 l 1,6,-1
 384 448 l 1,7,-1
 320 448 l 1,8,-1
 320 512 l 1,9,-1
 192 512 l 1,10,-1
 192 576 l 1,11,-1
 128 576 l 1,12,13
 128 576 128 576 128 704 c 1,14,-1
 320 704 l 1,15,16
 320 704 320 704 320 576 c 1,17,-1
 448 576 l 1,18,19
 448 576 448 576 448 704 c 1,20,-1
 384 704 l 1,21,-1
 384 768 l 1,22,-1
 64 768 l 1,23,-1
 64 704 l 1,24,-1
 0 704 l 1,25,26
 0 704 0 704 0 576 c 1,27,-1
 64 576 l 1,28,-1
 64 512 l 1,29,-1
 128 512 l 1,30,-1
 128 448 l 1,31,-1
 256 448 l 1,32,-1
 256 384 l 1,33,-1
 320 384 l 1,34,-1
 320 192 l 1,35,-1
 128 192 l 1,36,37
 128 192 128 192 128 320 c 1,38,-1
 0 320 l 1,39,40
 0 320 0 320 0 192 c 1,41,-1
 64 192 l 1,0,-1
EndSplineSet
Validated: 9
EndChar

StartChar: T
Encoding: 84 84 86
Width: 512
Flags: W
LayerCount: 2
Fore
SplineSet
384 128 m 1,0,-1
 384 192 l 1,1,-1
 320 192 l 1,2,-1
 320 640 l 1,3,-1
 384 640 l 1,4,-1
 384 576 l 1,5,-1
 448 576 l 1,6,-1
 448 768 l 1,7,-1
 64 768 l 1,8,-1
 64 576 l 1,9,-1
 128 576 l 1,10,-1
 128 640 l 1,11,-1
 192 640 l 1,12,-1
 192 192 l 1,13,-1
 128 192 l 1,14,-1
 128 128 l 1,15,-1
 384 128 l 1,0,-1
EndSplineSet
Validated: 9
EndChar

StartChar: U
Encoding: 85 85 87
Width: 512
Flags: W
LayerCount: 2
Fore
SplineSet
64 192 m 1,0,-1
 64 128 l 1,1,-1
 384 128 l 1,2,-1
 384 192 l 1,3,-1
 448 192 l 1,4,-1
 448 768 l 1,5,-1
 320 768 l 1,6,-1
 320 192 l 1,7,-1
 128 192 l 1,8,-1
 128 768 l 1,9,-1
 0 768 l 1,10,-1
 0 192 l 1,11,-1
 64 192 l 1,0,-1
EndSplineSet
Validated: 9
EndChar

StartChar: V
Encoding: 86 86 88
Width: 512
Flags: W
LayerCount: 2
Fore
SplineSet
256 192 m 1,0,-1
 320 192 l 1,1,-1
 320 256 l 1,2,-1
 384 256 l 1,3,-1
 384 320 l 1,4,-1
 448 320 l 1,5,-1
 448 768 l 1,6,-1
 320 768 l 1,7,-1
 320 320 l 1,8,-1
 256 320 l 1,9,-1
 256 256 l 1,10,-1
 192 256 l 1,11,-1
 192 320 l 1,12,-1
 128 320 l 1,13,-1
 128 768 l 1,14,-1
 0 768 l 1,15,-1
 0 320 l 1,16,-1
 64 320 l 1,17,-1
 64 256 l 1,18,-1
 128 256 l 1,19,-1
 128 192 l 1,20,-1
 192 192 l 1,21,-1
 192 128 l 1,22,-1
 256 128 l 1,23,-1
 256 192 l 1,0,-1
EndSplineSet
Validated: 9
EndChar

StartChar: W
Encoding: 87 87 89
Width: 512
Flags: W
LayerCount: 2
Fore
SplineSet
64 192 m 1,0,-1
 64 128 l 1,1,-1
 192 128 l 1,2,3
 192 128 192 128 192 256 c 1,4,-1
 256 256 l 1,5,6
 256 256 256 256 256 128 c 1,7,-1
 384 128 l 1,8,-1
 384 192 l 1,9,-1
 448 192 l 1,10,-1
 448 768 l 1,11,-1
 320 768 l 1,12,-1
 320 320 l 1,13,-1
 256 320 l 1,14,-1
 256 512 l 1,15,-1
 192 512 l 1,16,-1
 192 320 l 1,17,-1
 128 320 l 1,18,-1
 128 768 l 1,19,-1
 0 768 l 1,20,-1
 0 192 l 1,21,-1
 64 192 l 1,0,-1
EndSplineSet
Validated: 9
EndChar

StartChar: X
Encoding: 88 88 90
Width: 512
Flags: W
LayerCount: 2
Fore
SplineSet
0 256 m 1,0,1
 0 256 0 256 0 128 c 1,2,-1
 128 128 l 1,3,4
 128 128 128 128 128 256 c 1,5,-1
 192 256 l 1,6,-1
 192 320 l 1,7,-1
 256 320 l 1,8,-1
 256 256 l 1,9,-1
 320 256 l 1,10,11
 320 256 320 256 320 128 c 1,12,-1
 448 128 l 1,13,14
 448 128 448 128 448 256 c 1,15,-1
 384 256 l 1,16,17
 384 256 384 256 384 384 c 1,18,-1
 320 384 l 1,19,20
 320 384 320 384 320 512 c 1,21,-1
 384 512 l 1,22,23
 384 512 384 512 384 640 c 1,24,-1
 448 640 l 1,25,26
 448 640 448 640 448 768 c 1,27,-1
 320 768 l 1,28,29
 320 768 320 768 320 640 c 1,30,-1
 256 640 l 1,31,-1
 256 576 l 1,32,-1
 192 576 l 1,33,-1
 192 640 l 1,34,-1
 128 640 l 1,35,36
 128 640 128 640 128 768 c 1,37,-1
 0 768 l 1,38,39
 0 768 0 768 0 640 c 1,40,-1
 64 640 l 1,41,42
 64 640 64 640 64 512 c 1,43,-1
 128 512 l 1,44,45
 128 512 128 512 128 384 c 1,46,-1
 64 384 l 1,47,48
 64 384 64 384 64 256 c 1,49,-1
 0 256 l 1,0,1
EndSplineSet
Validated: 9
EndChar

StartChar: Y
Encoding: 89 89 91
Width: 512
Flags: W
LayerCount: 2
Fore
SplineSet
384 128 m 1,0,-1
 384 192 l 1,1,-1
 320 192 l 1,2,3
 320 192 320 192 320 448 c 1,4,-1
 384 448 l 1,5,-1
 384 512 l 1,6,-1
 448 512 l 1,7,8
 448 512 448 512 448 768 c 1,9,-1
 320 768 l 1,10,11
 320 768 320 768 320 512 c 1,12,-1
 192 512 l 1,13,14
 192 512 192 512 192 768 c 1,15,-1
 64 768 l 1,16,17
 64 768 64 768 64 512 c 1,18,-1
 128 512 l 1,19,-1
 128 448 l 1,20,-1
 192 448 l 1,21,22
 192 448 192 448 192 192 c 1,23,-1
 128 192 l 1,24,-1
 128 128 l 1,25,-1
 384 128 l 1,0,-1
EndSplineSet
Validated: 9
EndChar

StartChar: Z
Encoding: 90 90 92
Width: 512
Flags: W
LayerCount: 2
Fore
SplineSet
0 320 m 1,0,-1
 0 128 l 1,1,-1
 448 128 l 1,2,-1
 448 320 l 1,3,-1
 384 320 l 1,4,-1
 384 256 l 1,5,-1
 320 256 l 1,6,-1
 320 192 l 1,7,-1
 128 192 l 1,8,9
 128 192 128 192 128 320 c 1,10,-1
 192 320 l 1,11,-1
 192 384 l 1,12,-1
 256 384 l 1,13,-1
 256 448 l 1,14,-1
 320 448 l 1,15,-1
 320 512 l 1,16,-1
 384 512 l 1,17,-1
 384 576 l 1,18,-1
 448 576 l 1,19,-1
 448 768 l 1,20,-1
 0 768 l 1,21,-1
 0 576 l 1,22,-1
 64 576 l 1,23,-1
 64 640 l 1,24,-1
 128 640 l 1,25,-1
 128 704 l 1,26,-1
 320 704 l 1,27,28
 320 704 320 704 320 576 c 1,29,-1
 256 576 l 1,30,-1
 256 512 l 1,31,-1
 192 512 l 1,32,-1
 192 448 l 1,33,-1
 128 448 l 1,34,-1
 128 384 l 1,35,-1
 64 384 l 1,36,-1
 64 320 l 1,37,-1
 0 320 l 1,0,-1
EndSplineSet
Validated: 9
EndChar

StartChar: bracketleft
Encoding: 91 91 93
Width: 512
Flags: W
LayerCount: 2
Fore
SplineSet
384 128 m 1,0,-1
 384 192 l 1,1,-1
 256 192 l 1,2,3
 256 192 256 192 256 704 c 1,4,-1
 384 704 l 1,5,-1
 384 768 l 1,6,-1
 128 768 l 1,7,8
 128 768 128 768 128 128 c 1,9,-1
 384 128 l 1,0,-1
EndSplineSet
Validated: 9
EndChar

StartChar: backslash
Encoding: 92 92 94
Width: 512
Flags: W
LayerCount: 2
Fore
SplineSet
384 192 m 1,0,-1
 384 128 l 1,1,-1
 448 128 l 1,2,-1
 448 320 l 1,3,-1
 384 320 l 1,4,-1
 384 384 l 1,5,-1
 320 384 l 1,6,-1
 320 448 l 1,7,-1
 256 448 l 1,8,-1
 256 512 l 1,9,-1
 192 512 l 1,10,-1
 192 576 l 1,11,-1
 128 576 l 1,12,-1
 128 640 l 1,13,-1
 64 640 l 1,14,-1
 64 704 l 1,15,-1
 0 704 l 1,16,-1
 0 512 l 1,17,-1
 64 512 l 1,18,-1
 64 448 l 1,19,-1
 128 448 l 1,20,-1
 128 384 l 1,21,-1
 192 384 l 1,22,-1
 192 320 l 1,23,-1
 256 320 l 1,24,-1
 256 256 l 1,25,-1
 320 256 l 1,26,-1
 320 192 l 1,27,-1
 384 192 l 1,0,-1
EndSplineSet
Validated: 9
EndChar

StartChar: bracketright
Encoding: 93 93 95
Width: 512
Flags: W
LayerCount: 2
Fore
SplineSet
256 192 m 1,0,-1
 128 192 l 1,1,-1
 128 128 l 1,2,-1
 384 128 l 1,3,4
 384 128 384 128 384 768 c 1,5,-1
 128 768 l 1,6,-1
 128 704 l 1,7,-1
 256 704 l 1,8,9
 256 704 256 704 256 192 c 1,0,-1
EndSplineSet
Validated: 9
EndChar

StartChar: asciicircum
Encoding: 94 94 96
Width: 512
Flags: W
LayerCount: 2
Fore
SplineSet
448 640 m 1,0,-1
 448 704 l 1,1,-1
 384 704 l 1,2,-1
 384 768 l 1,3,-1
 320 768 l 1,4,-1
 320 832 l 1,5,-1
 256 832 l 1,6,-1
 256 896 l 1,7,-1
 192 896 l 1,8,-1
 192 832 l 1,9,-1
 128 832 l 1,10,-1
 128 768 l 1,11,-1
 64 768 l 1,12,-1
 64 704 l 1,13,-1
 0 704 l 1,14,-1
 0 640 l 1,15,-1
 128 640 l 1,16,-1
 128 704 l 1,17,-1
 192 704 l 1,18,-1
 192 768 l 1,19,-1
 256 768 l 1,20,-1
 256 704 l 1,21,-1
 320 704 l 1,22,-1
 320 640 l 1,23,-1
 448 640 l 1,0,-1
EndSplineSet
Validated: 9
EndChar

StartChar: underscore
Encoding: 95 95 97
Width: 512
Flags: W
LayerCount: 2
Fore
SplineSet
512 0 m 1,0,-1
 512 64 l 1,1,-1
 0 64 l 1,2,-1
 0 0 l 1,3,-1
 512 0 l 1,0,-1
EndSplineSet
Validated: 9
EndChar

StartChar: grave
Encoding: 96 96 98
Width: 512
Flags: W
LayerCount: 2
Fore
SplineSet
320 704 m 1,0,-1
 320 768 l 1,1,-1
 256 768 l 1,2,3
 256 768 256 768 256 896 c 1,4,-1
 128 896 l 1,5,6
 128 896 128 896 128 768 c 1,7,-1
 192 768 l 1,8,-1
 192 704 l 1,9,-1
 320 704 l 1,0,-1
EndSplineSet
Validated: 9
EndChar

StartChar: a
Encoding: 97 97 99
Width: 512
Flags: W
LayerCount: 2
Fore
SplineSet
448 128 m 1,0,-1
 448 192 l 1,1,-1
 384 192 l 1,2,-1
 384 512 l 1,3,-1
 320 512 l 1,4,-1
 320 576 l 1,5,-1
 64 576 l 1,6,-1
 64 512 l 1,7,-1
 256 512 l 1,8,-1
 256 448 l 1,9,-1
 64 448 l 1,10,-1
 64 384 l 1,11,-1
 0 384 l 1,12,-1
 0 192 l 1,13,-1
 64 192 l 1,14,-1
 64 128 l 1,15,-1
 256 128 l 1,16,-1
 256 192 l 1,17,-1
 128 192 l 1,18,-1
 128 384 l 1,19,-1
 256 384 l 1,20,-1
 256 192 l 1,21,-1
 320 192 l 1,22,-1
 320 128 l 1,23,-1
 448 128 l 1,0,-1
EndSplineSet
Validated: 5
EndChar

StartChar: b
Encoding: 98 98 100
Width: 512
Flags: W
LayerCount: 2
Fore
SplineSet
64 704 m 1,0,-1
 64 128 l 1,1,-1
 384 128 l 1,2,-1
 384 192 l 1,3,-1
 448 192 l 1,4,5
 448 192 448 192 448 448 c 1,6,-1
 384 448 l 1,7,-1
 384 512 l 1,8,-1
 320 512 l 1,9,-1
 320 576 l 1,10,-1
 192 576 l 1,11,-1
 192 768 l 1,12,-1
 0 768 l 1,13,-1
 0 704 l 1,14,-1
 64 704 l 1,0,-1
192 192 m 1,15,-1
 192 512 l 1,16,-1
 256 512 l 1,17,-1
 256 448 l 1,18,-1
 320 448 l 1,19,20
 320 448 320 448 320 192 c 1,21,-1
 192 192 l 1,15,-1
EndSplineSet
Validated: 9
EndChar

StartChar: c
Encoding: 99 99 101
Width: 512
Flags: W
LayerCount: 2
Fore
SplineSet
448 192 m 1,0,-1
 448 256 l 1,1,-1
 320 256 l 1,2,-1
 320 192 l 1,3,-1
 128 192 l 1,4,-1
 128 512 l 1,5,-1
 320 512 l 1,6,-1
 320 448 l 1,7,-1
 448 448 l 1,8,-1
 448 512 l 1,9,-1
 384 512 l 1,10,-1
 384 576 l 1,11,-1
 64 576 l 1,12,-1
 64 512 l 1,13,-1
 0 512 l 1,14,-1
 0 192 l 1,15,-1
 64 192 l 1,16,-1
 64 128 l 1,17,-1
 384 128 l 1,18,-1
 384 192 l 1,19,-1
 448 192 l 1,0,-1
EndSplineSet
Validated: 9
EndChar

StartChar: d
Encoding: 100 100 102
Width: 512
Flags: W
LayerCount: 2
Fore
SplineSet
448 128 m 1,0,-1
 448 192 l 1,1,-1
 384 192 l 1,2,-1
 384 768 l 1,3,-1
 192 768 l 1,4,-1
 192 704 l 1,5,-1
 256 704 l 1,6,7
 256 704 256 704 256 576 c 1,8,-1
 128 576 l 1,9,-1
 128 512 l 1,10,-1
 64 512 l 1,11,-1
 64 448 l 1,12,-1
 0 448 l 1,13,14
 0 448 0 448 0 192 c 1,15,-1
 64 192 l 1,16,-1
 64 128 l 1,17,-1
 256 128 l 1,18,-1
 256 192 l 1,19,-1
 128 192 l 1,20,21
 128 192 128 192 128 448 c 1,22,-1
 192 448 l 1,23,-1
 192 512 l 1,24,-1
 256 512 l 1,25,-1
 256 192 l 1,26,-1
 320 192 l 1,27,-1
 320 128 l 1,28,-1
 448 128 l 1,0,-1
EndSplineSet
Validated: 5
EndChar

StartChar: e
Encoding: 101 101 103
Width: 512
Flags: W
LayerCount: 2
Fore
SplineSet
448 192 m 1,0,-1
 448 256 l 1,1,-1
 320 256 l 1,2,-1
 320 192 l 1,3,-1
 128 192 l 1,4,-1
 128 384 l 1,5,-1
 448 384 l 1,6,7
 448 384 448 384 448 512 c 1,8,-1
 384 512 l 1,9,-1
 384 576 l 1,10,-1
 64 576 l 1,11,-1
 64 512 l 1,12,-1
 0 512 l 1,13,-1
 0 192 l 1,14,-1
 64 192 l 1,15,-1
 64 128 l 1,16,-1
 384 128 l 1,17,-1
 384 192 l 1,18,-1
 448 192 l 1,0,-1
128 448 m 1,19,-1
 128 512 l 1,20,-1
 320 512 l 1,21,-1
 320 448 l 1,22,-1
 128 448 l 1,19,-1
EndSplineSet
Validated: 9
EndChar

StartChar: f
Encoding: 102 102 104
Width: 512
Flags: W
LayerCount: 2
Fore
SplineSet
256 128 m 1,0,-1
 256 192 l 1,1,-1
 192 192 l 1,2,3
 192 192 192 192 192 448 c 1,4,-1
 256 448 l 1,5,-1
 256 512 l 1,6,-1
 192 512 l 1,7,-1
 192 704 l 1,8,-1
 256 704 l 1,9,-1
 256 640 l 1,10,-1
 320 640 l 1,11,-1
 320 576 l 1,12,-1
 384 576 l 1,13,14
 384 576 384 576 384 704 c 1,15,-1
 320 704 l 1,16,-1
 320 768 l 1,17,-1
 128 768 l 1,18,-1
 128 704 l 1,19,-1
 64 704 l 1,20,-1
 64 512 l 1,21,-1
 0 512 l 1,22,-1
 0 448 l 1,23,-1
 64 448 l 1,24,25
 64 448 64 448 64 192 c 1,26,-1
 0 192 l 1,27,-1
 0 128 l 1,28,-1
 256 128 l 1,0,-1
EndSplineSet
Validated: 9
EndChar

StartChar: g
Encoding: 103 103 105
Width: 512
Flags: W
LayerCount: 2
Fore
SplineSet
448 512 m 1,0,-1
 448 576 l 1,1,-1
 320 576 l 1,2,-1
 320 512 l 1,3,-1
 256 512 l 1,4,-1
 256 192 l 1,5,-1
 128 192 l 1,6,-1
 128 512 l 1,7,-1
 256 512 l 1,8,-1
 256 576 l 1,9,-1
 64 576 l 1,10,-1
 64 512 l 1,11,-1
 0 512 l 1,12,-1
 0 192 l 1,13,-1
 64 192 l 1,14,-1
 64 128 l 1,15,-1
 256 128 l 1,16,17
 256 128 256 128 256 0 c 1,18,-1
 128 0 l 1,19,-1
 128 64 l 1,20,-1
 0 64 l 1,21,-1
 0 0 l 1,22,-1
 64 0 l 1,23,-1
 64 -64 l 1,24,-1
 320 -64 l 1,25,-1
 320 0 l 1,26,-1
 384 0 l 1,27,28
 384 0 384 0 384 512 c 1,29,-1
 448 512 l 1,0,-1
EndSplineSet
Validated: 5
EndChar

StartChar: h
Encoding: 104 104 106
Width: 512
Flags: W
LayerCount: 2
Fore
SplineSet
64 192 m 1,0,-1
 0 192 l 1,1,-1
 0 128 l 1,2,-1
 192 128 l 1,3,-1
 192 448 l 1,4,-1
 256 448 l 1,5,-1
 256 512 l 1,6,-1
 192 512 l 1,7,8
 192 512 192 512 192 768 c 1,9,-1
 0 768 l 1,10,-1
 0 704 l 1,11,-1
 64 704 l 1,12,13
 64 704 64 704 64 192 c 1,0,-1
320 512 m 1,14,15
 320 512 320 512 320 128 c 1,16,-1
 448 128 l 1,17,18
 448 128 448 128 448 512 c 1,19,-1
 384 512 l 1,20,-1
 384 576 l 1,21,-1
 256 576 l 1,22,-1
 256 512 l 1,23,-1
 320 512 l 1,14,15
EndSplineSet
Validated: 5
EndChar

StartChar: i
Encoding: 105 105 107
Width: 512
Flags: W
LayerCount: 2
Fore
SplineSet
384 128 m 1,0,-1
 384 192 l 1,1,-1
 320 192 l 1,2,3
 320 192 320 192 320 576 c 1,4,-1
 128 576 l 1,5,-1
 128 512 l 1,6,-1
 192 512 l 1,7,-1
 192 192 l 1,8,-1
 128 192 l 1,9,-1
 128 128 l 1,10,-1
 384 128 l 1,0,-1
192 768 m 1,11,12
 192 768 192 768 192 640 c 1,13,-1
 320 640 l 1,14,15
 320 640 320 640 320 768 c 1,16,-1
 192 768 l 1,11,12
EndSplineSet
Validated: 9
EndChar

StartChar: j
Encoding: 106 106 108
Width: 512
Flags: W
LayerCount: 2
Fore
SplineSet
128 0 m 1,0,-1
 128 -64 l 1,1,-1
 384 -64 l 1,2,-1
 384 0 l 1,3,-1
 448 0 l 1,4,-1
 448 576 l 1,5,-1
 256 576 l 1,6,-1
 256 512 l 1,7,-1
 320 512 l 1,8,9
 320 512 320 512 320 0 c 1,10,-1
 192 0 l 1,11,12
 192 0 192 0 192 128 c 1,13,-1
 64 128 l 1,14,15
 64 128 64 128 64 0 c 1,16,-1
 128 0 l 1,0,-1
320 768 m 1,17,18
 320 768 320 768 320 640 c 1,19,-1
 448 640 l 1,20,21
 448 640 448 640 448 768 c 1,22,-1
 320 768 l 1,17,18
EndSplineSet
Validated: 9
EndChar

StartChar: k
Encoding: 107 107 109
Width: 512
Flags: W
LayerCount: 2
Fore
SplineSet
448 512 m 1,0,-1
 448 576 l 1,1,-1
 320 576 l 1,2,-1
 320 512 l 1,3,-1
 256 512 l 1,4,-1
 256 448 l 1,5,-1
 192 448 l 1,6,-1
 192 768 l 1,7,-1
 0 768 l 1,8,-1
 0 704 l 1,9,-1
 64 704 l 1,10,11
 64 704 64 704 64 192 c 1,12,-1
 0 192 l 1,13,-1
 0 128 l 1,14,-1
 192 128 l 1,15,-1
 192 320 l 1,16,-1
 256 320 l 1,17,-1
 256 256 l 1,18,-1
 320 256 l 1,19,20
 320 256 320 256 320 128 c 1,21,-1
 448 128 l 1,22,23
 448 128 448 128 448 256 c 1,24,-1
 384 256 l 1,25,-1
 384 320 l 1,26,-1
 320 320 l 1,27,28
 320 320 320 320 320 448 c 1,29,-1
 384 448 l 1,30,-1
 384 512 l 1,31,-1
 448 512 l 1,0,-1
EndSplineSet
Validated: 9
EndChar

StartChar: l
Encoding: 108 108 110
Width: 512
Flags: W
LayerCount: 2
Fore
SplineSet
384 128 m 1,0,-1
 384 192 l 1,1,-1
 320 192 l 1,2,-1
 320 768 l 1,3,-1
 128 768 l 1,4,-1
 128 704 l 1,5,-1
 192 704 l 1,6,7
 192 704 192 704 192 192 c 1,8,-1
 128 192 l 1,9,-1
 128 128 l 1,10,-1
 384 128 l 1,0,-1
EndSplineSet
Validated: 9
EndChar

StartChar: m
Encoding: 109 109 111
Width: 512
Flags: W
LayerCount: 2
Fore
SplineSet
0 576 m 1,0,-1
 0 128 l 1,1,-1
 128 128 l 1,2,-1
 128 448 l 1,3,-1
 192 448 l 1,4,5
 192 448 192 448 192 192 c 1,6,-1
 256 192 l 1,7,8
 256 192 256 192 256 448 c 1,9,-1
 320 448 l 1,10,-1
 320 128 l 1,11,-1
 448 128 l 1,12,13
 448 128 448 128 448 512 c 1,14,-1
 384 512 l 1,15,-1
 384 576 l 1,16,-1
 256 576 l 1,17,-1
 256 512 l 1,18,-1
 192 512 l 1,19,-1
 192 576 l 1,20,-1
 0 576 l 1,0,-1
EndSplineSet
Validated: 9
EndChar

StartChar: n
Encoding: 110 110 112
Width: 512
Flags: W
LayerCount: 2
Fore
SplineSet
64 512 m 1,0,1
 64 512 64 512 64 128 c 1,2,-1
 192 128 l 1,3,4
 192 128 192 128 192 512 c 1,5,-1
 128 512 l 1,6,-1
 128 576 l 1,7,-1
 0 576 l 1,8,-1
 0 512 l 1,9,-1
 64 512 l 1,0,1
320 512 m 1,10,11
 320 512 320 512 320 128 c 1,12,-1
 448 128 l 1,13,14
 448 128 448 128 448 512 c 1,15,-1
 384 512 l 1,16,-1
 384 576 l 1,17,-1
 192 576 l 1,18,-1
 192 512 l 1,19,-1
 320 512 l 1,10,11
EndSplineSet
Validated: 5
EndChar

StartChar: o
Encoding: 111 111 113
Width: 512
Flags: W
LayerCount: 2
Fore
SplineSet
64 192 m 1,0,-1
 64 128 l 1,1,-1
 384 128 l 1,2,-1
 384 192 l 1,3,-1
 448 192 l 1,4,-1
 448 512 l 1,5,-1
 384 512 l 1,6,-1
 384 576 l 1,7,-1
 64 576 l 1,8,-1
 64 512 l 1,9,-1
 0 512 l 1,10,-1
 0 192 l 1,11,-1
 64 192 l 1,0,-1
128 192 m 1,12,-1
 128 512 l 1,13,-1
 320 512 l 1,14,-1
 320 192 l 1,15,-1
 128 192 l 1,12,-1
EndSplineSet
Validated: 9
EndChar

StartChar: p
Encoding: 112 112 114
Width: 512
Flags: W
LayerCount: 2
Fore
SplineSet
256 -64 m 1,0,-1
 256 0 l 1,1,-1
 192 0 l 1,2,3
 192 0 192 0 192 128 c 1,4,-1
 384 128 l 1,5,-1
 384 192 l 1,6,-1
 448 192 l 1,7,-1
 448 512 l 1,8,-1
 384 512 l 1,9,-1
 384 576 l 1,10,-1
 192 576 l 1,11,-1
 192 512 l 1,12,-1
 128 512 l 1,13,-1
 128 576 l 1,14,-1
 0 576 l 1,15,-1
 0 512 l 1,16,-1
 64 512 l 1,17,18
 64 512 64 512 64 0 c 1,19,-1
 0 0 l 1,20,-1
 0 -64 l 1,21,-1
 256 -64 l 1,0,-1
192 192 m 1,22,-1
 192 512 l 1,23,-1
 320 512 l 1,24,-1
 320 192 l 1,25,-1
 192 192 l 1,22,-1
EndSplineSet
Validated: 5
EndChar

StartChar: q
Encoding: 113 113 115
Width: 512
Flags: W
LayerCount: 2
Fore
SplineSet
448 -64 m 1,0,-1
 448 0 l 1,1,-1
 384 0 l 1,2,3
 384 0 384 0 384 512 c 1,4,-1
 448 512 l 1,5,-1
 448 576 l 1,6,-1
 320 576 l 1,7,-1
 320 512 l 1,8,-1
 256 512 l 1,9,-1
 256 192 l 1,10,-1
 128 192 l 1,11,-1
 128 512 l 1,12,-1
 256 512 l 1,13,-1
 256 576 l 1,14,-1
 64 576 l 1,15,-1
 64 512 l 1,16,-1
 0 512 l 1,17,-1
 0 192 l 1,18,-1
 64 192 l 1,19,-1
 64 128 l 1,20,-1
 256 128 l 1,21,22
 256 128 256 128 256 0 c 1,23,-1
 192 0 l 1,24,-1
 192 -64 l 1,25,-1
 448 -64 l 1,0,-1
EndSplineSet
Validated: 5
EndChar

StartChar: r
Encoding: 114 114 116
Width: 512
Flags: W
LayerCount: 2
Fore
SplineSet
256 128 m 1,0,-1
 256 192 l 1,1,-1
 192 192 l 1,2,3
 192 192 192 192 192 448 c 1,4,-1
 256 448 l 1,5,-1
 256 512 l 1,6,-1
 320 512 l 1,7,8
 320 512 320 512 320 384 c 1,9,-1
 448 384 l 1,10,11
 448 384 448 384 448 512 c 1,12,-1
 384 512 l 1,13,-1
 384 576 l 1,14,-1
 192 576 l 1,15,-1
 192 512 l 1,16,-1
 128 512 l 1,17,-1
 128 576 l 1,18,-1
 0 576 l 1,19,-1
 0 512 l 1,20,-1
 64 512 l 1,21,-1
 64 192 l 1,22,-1
 0 192 l 1,23,-1
 0 128 l 1,24,-1
 256 128 l 1,0,-1
EndSplineSet
Validated: 9
EndChar

StartChar: s
Encoding: 115 115 117
Width: 512
Flags: W
LayerCount: 2
Fore
SplineSet
448 192 m 1,0,-1
 448 256 l 1,1,-1
 384 256 l 1,2,-1
 384 320 l 1,3,-1
 320 320 l 1,4,-1
 320 384 l 1,5,-1
 192 384 l 1,6,-1
 192 448 l 1,7,-1
 128 448 l 1,8,-1
 128 512 l 1,9,-1
 320 512 l 1,10,-1
 320 448 l 1,11,-1
 448 448 l 1,12,-1
 448 512 l 1,13,-1
 384 512 l 1,14,-1
 384 576 l 1,15,-1
 64 576 l 1,16,-1
 64 512 l 1,17,-1
 0 512 l 1,18,-1
 0 448 l 1,19,-1
 64 448 l 1,20,-1
 64 384 l 1,21,-1
 128 384 l 1,22,-1
 128 320 l 1,23,-1
 256 320 l 1,24,-1
 256 256 l 1,25,-1
 320 256 l 1,26,-1
 320 192 l 1,27,-1
 128 192 l 1,28,-1
 128 256 l 1,29,-1
 0 256 l 1,30,-1
 0 192 l 1,31,-1
 64 192 l 1,32,-1
 64 128 l 1,33,-1
 384 128 l 1,34,-1
 384 192 l 1,35,-1
 448 192 l 1,0,-1
EndSplineSet
Validated: 9
EndChar

StartChar: t
Encoding: 116 116 118
Width: 512
Flags: W
LayerCount: 2
Fore
SplineSet
448 192 m 1,0,-1
 448 256 l 1,1,-1
 320 256 l 1,2,-1
 320 192 l 1,3,-1
 256 192 l 1,4,-1
 256 512 l 1,5,-1
 384 512 l 1,6,-1
 384 576 l 1,7,-1
 256 576 l 1,8,-1
 256 768 l 1,9,-1
 192 768 l 1,10,-1
 192 704 l 1,11,-1
 128 704 l 1,12,13
 128 704 128 704 128 576 c 1,14,-1
 0 576 l 1,15,-1
 0 512 l 1,16,-1
 128 512 l 1,17,-1
 128 192 l 1,18,-1
 192 192 l 1,19,-1
 192 128 l 1,20,-1
 384 128 l 1,21,-1
 384 192 l 1,22,-1
 448 192 l 1,0,-1
EndSplineSet
Validated: 9
EndChar

StartChar: u
Encoding: 117 117 119
Width: 512
Flags: W
LayerCount: 2
Fore
SplineSet
448 128 m 1,0,-1
 448 192 l 1,1,-1
 384 192 l 1,2,3
 384 192 384 192 384 576 c 1,4,-1
 256 576 l 1,5,6
 256 576 256 576 256 192 c 1,7,-1
 128 192 l 1,8,9
 128 192 128 192 128 576 c 1,10,-1
 0 576 l 1,11,12
 0 576 0 576 0 192 c 1,13,-1
 64 192 l 1,14,-1
 64 128 l 1,15,-1
 256 128 l 1,16,-1
 256 192 l 1,17,-1
 320 192 l 1,18,-1
 320 128 l 1,19,-1
 448 128 l 1,0,-1
EndSplineSet
Validated: 5
EndChar

StartChar: v
Encoding: 118 118 120
Width: 512
Flags: W
LayerCount: 2
Fore
SplineSet
320 192 m 1,0,-1
 384 192 l 1,1,-1
 384 256 l 1,2,-1
 448 256 l 1,3,-1
 448 576 l 1,4,-1
 320 576 l 1,5,-1
 320 256 l 1,6,-1
 192 256 l 1,7,-1
 192 576 l 1,8,-1
 64 576 l 1,9,-1
 64 256 l 1,10,-1
 128 256 l 1,11,-1
 128 192 l 1,12,-1
 192 192 l 1,13,-1
 192 128 l 1,14,-1
 320 128 l 1,15,-1
 320 192 l 1,0,-1
EndSplineSet
Validated: 9
EndChar

StartChar: w
Encoding: 119 119 121
Width: 512
Flags: W
LayerCount: 2
Fore
SplineSet
384 192 m 1,0,-1
 448 192 l 1,1,2
 448 192 448 192 448 576 c 1,3,-1
 320 576 l 1,4,-1
 320 256 l 1,5,-1
 256 256 l 1,6,-1
 256 448 l 1,7,-1
 192 448 l 1,8,-1
 192 256 l 1,9,-1
 128 256 l 1,10,-1
 128 576 l 1,11,-1
 0 576 l 1,12,13
 0 576 0 576 0 192 c 1,14,-1
 64 192 l 1,15,-1
 64 128 l 1,16,-1
 192 128 l 1,17,-1
 192 192 l 1,18,-1
 256 192 l 1,19,-1
 256 128 l 1,20,-1
 384 128 l 1,21,-1
 384 192 l 1,0,-1
EndSplineSet
Validated: 9
EndChar

StartChar: x
Encoding: 120 120 122
Width: 512
Flags: W
LayerCount: 2
Fore
SplineSet
448 128 m 1,0,-1
 448 192 l 1,1,-1
 384 192 l 1,2,-1
 384 256 l 1,3,-1
 320 256 l 1,4,-1
 320 448 l 1,5,-1
 384 448 l 1,6,-1
 384 512 l 1,7,-1
 448 512 l 1,8,-1
 448 576 l 1,9,-1
 320 576 l 1,10,-1
 320 512 l 1,11,-1
 256 512 l 1,12,-1
 256 448 l 1,13,-1
 192 448 l 1,14,-1
 192 512 l 1,15,-1
 128 512 l 1,16,-1
 128 576 l 1,17,-1
 0 576 l 1,18,-1
 0 512 l 1,19,-1
 64 512 l 1,20,-1
 64 448 l 1,21,-1
 128 448 l 1,22,-1
 128 256 l 1,23,-1
 64 256 l 1,24,-1
 64 192 l 1,25,-1
 0 192 l 1,26,-1
 0 128 l 1,27,-1
 128 128 l 1,28,-1
 128 192 l 1,29,-1
 192 192 l 1,30,-1
 192 256 l 1,31,-1
 256 256 l 1,32,-1
 256 192 l 1,33,-1
 320 192 l 1,34,-1
 320 128 l 1,35,-1
 448 128 l 1,0,-1
EndSplineSet
Validated: 9
EndChar

StartChar: y
Encoding: 121 121 123
Width: 512
Flags: W
LayerCount: 2
Fore
SplineSet
320 0 m 1,0,-1
 384 0 l 1,1,-1
 384 64 l 1,2,-1
 448 64 l 1,3,4
 448 64 448 64 448 576 c 1,5,-1
 320 576 l 1,6,7
 320 576 320 576 320 192 c 1,8,-1
 128 192 l 1,9,10
 128 192 128 192 128 576 c 1,11,-1
 0 576 l 1,12,13
 0 576 0 576 0 192 c 1,14,-1
 64 192 l 1,15,-1
 64 128 l 1,16,-1
 320 128 l 1,17,-1
 320 64 l 1,18,-1
 256 64 l 1,19,-1
 256 0 l 1,20,-1
 0 0 l 1,21,-1
 0 -64 l 1,22,-1
 320 -64 l 1,23,-1
 320 0 l 1,0,-1
EndSplineSet
Validated: 9
EndChar

StartChar: z
Encoding: 122 122 124
Width: 512
Flags: W
LayerCount: 2
Fore
SplineSet
448 512 m 1,0,-1
 448 576 l 1,1,-1
 0 576 l 1,2,3
 0 576 0 576 0 448 c 1,4,-1
 128 448 l 1,5,-1
 128 512 l 1,6,-1
 256 512 l 1,7,-1
 256 448 l 1,8,-1
 192 448 l 1,9,-1
 192 384 l 1,10,-1
 128 384 l 1,11,-1
 128 320 l 1,12,-1
 64 320 l 1,13,-1
 64 256 l 1,14,-1
 0 256 l 1,15,16
 0 256 0 256 0 128 c 1,17,-1
 448 128 l 1,18,19
 448 128 448 128 448 256 c 1,20,-1
 320 256 l 1,21,-1
 320 192 l 1,22,-1
 128 192 l 1,23,-1
 128 256 l 1,24,-1
 192 256 l 1,25,-1
 192 320 l 1,26,-1
 256 320 l 1,27,-1
 256 384 l 1,28,-1
 320 384 l 1,29,-1
 320 448 l 1,30,-1
 384 448 l 1,31,-1
 384 512 l 1,32,-1
 448 512 l 1,0,-1
EndSplineSet
Validated: 9
EndChar

StartChar: braceleft
Encoding: 123 123 125
Width: 512
Flags: W
LayerCount: 2
Fore
SplineSet
448 128 m 1,0,-1
 448 192 l 1,1,-1
 320 192 l 1,2,3
 320 192 320 192 320 448 c 1,4,-1
 256 448 l 1,5,-1
 256 512 l 1,6,-1
 320 512 l 1,7,-1
 320 704 l 1,8,-1
 448 704 l 1,9,-1
 448 768 l 1,10,-1
 256 768 l 1,11,-1
 256 704 l 1,12,-1
 192 704 l 1,13,-1
 192 512 l 1,14,-1
 64 512 l 1,15,-1
 64 448 l 1,16,-1
 192 448 l 1,17,18
 192 448 192 448 192 192 c 1,19,-1
 256 192 l 1,20,-1
 256 128 l 1,21,-1
 448 128 l 1,0,-1
EndSplineSet
Validated: 9
EndChar

StartChar: bar
Encoding: 124 124 126
Width: 512
Flags: W
LayerCount: 2
Fore
SplineSet
192 448 m 1,0,-1
 192 128 l 1,1,-1
 320 128 l 1,2,-1
 320 448 l 1,3,-1
 192 448 l 1,0,-1
192 768 m 1,4,5
 192 768 192 768 192 512 c 1,6,-1
 320 512 l 1,7,8
 320 512 320 512 320 768 c 1,9,-1
 192 768 l 1,4,5
EndSplineSet
Validated: 9
EndChar

StartChar: braceright
Encoding: 125 125 127
Width: 512
Flags: W
LayerCount: 2
Fore
SplineSet
448 448 m 1,0,-1
 448 512 l 1,1,-1
 320 512 l 1,2,-1
 320 704 l 1,3,-1
 256 704 l 1,4,-1
 256 768 l 1,5,-1
 64 768 l 1,6,-1
 64 704 l 1,7,-1
 192 704 l 1,8,-1
 192 512 l 1,9,-1
 256 512 l 1,10,-1
 256 448 l 1,11,-1
 192 448 l 1,12,13
 192 448 192 448 192 192 c 1,14,-1
 64 192 l 1,15,-1
 64 128 l 1,16,-1
 256 128 l 1,17,-1
 256 192 l 1,18,-1
 320 192 l 1,19,20
 320 192 320 192 320 448 c 1,21,-1
 448 448 l 1,0,-1
EndSplineSet
Validated: 9
EndChar

StartChar: asciitilde
Encoding: 126 126 128
Width: 512
Flags: W
LayerCount: 2
Fore
SplineSet
448 704 m 1,0,-1
 448 768 l 1,1,-1
 320 768 l 1,2,-1
 320 704 l 1,3,-1
 256 704 l 1,4,-1
 256 768 l 1,5,-1
 64 768 l 1,6,-1
 64 704 l 1,7,-1
 0 704 l 1,8,-1
 0 640 l 1,9,-1
 128 640 l 1,10,-1
 128 704 l 1,11,-1
 192 704 l 1,12,-1
 192 640 l 1,13,-1
 384 640 l 1,14,-1
 384 704 l 1,15,-1
 448 704 l 1,0,-1
EndSplineSet
Validated: 9
EndChar

StartChar: uni007F
Encoding: 127 127 129
Width: 512
Flags: W
LayerCount: 2
Fore
SplineSet
0 448 m 1,0,1
 0 448 0 448 0 192 c 1,2,-1
 448 192 l 1,3,4
 448 192 448 192 448 448 c 1,5,-1
 384 448 l 1,6,-1
 384 512 l 1,7,-1
 320 512 l 1,8,-1
 320 576 l 1,9,-1
 256 576 l 1,10,-1
 256 640 l 1,11,-1
 192 640 l 1,12,-1
 192 576 l 1,13,-1
 128 576 l 1,14,-1
 128 512 l 1,15,-1
 64 512 l 1,16,-1
 64 448 l 1,17,-1
 0 448 l 1,0,1
128 256 m 1,18,-1
 128 448 l 1,19,-1
 192 448 l 1,20,-1
 192 512 l 1,21,-1
 256 512 l 1,22,-1
 256 448 l 1,23,-1
 320 448 l 1,24,-1
 320 256 l 1,25,-1
 128 256 l 1,18,-1
EndSplineSet
Validated: 9
EndChar

StartChar: exclamdown
Encoding: 161 161 131
Width: 512
Flags: W
LayerCount: 2
Fore
SplineSet
320 192 m 1,0,-1
 384 192 l 1,1,-1
 384 384 l 1,2,-1
 320 384 l 1,3,-1
 320 576 l 1,4,-1
 192 576 l 1,5,-1
 192 384 l 1,6,-1
 128 384 l 1,7,-1
 128 192 l 1,8,-1
 192 192 l 1,9,-1
 192 128 l 1,10,-1
 320 128 l 1,11,-1
 320 192 l 1,0,-1
192 768 m 1,12,13
 192 768 192 768 192 640 c 1,14,-1
 320 640 l 1,15,16
 320 640 320 640 320 768 c 1,17,-1
 192 768 l 1,12,13
EndSplineSet
Validated: 9
EndChar

StartChar: cent
Encoding: 162 162 132
Width: 512
Flags: W
LayerCount: 2
Fore
SplineSet
448 320 m 1,0,-1
 448 384 l 1,1,-1
 320 384 l 1,2,-1
 320 320 l 1,3,-1
 192 320 l 1,4,-1
 192 640 l 1,5,-1
 320 640 l 1,6,-1
 320 576 l 1,7,-1
 448 576 l 1,8,-1
 448 640 l 1,9,-1
 384 640 l 1,10,-1
 384 704 l 1,11,-1
 320 704 l 1,12,13
 320 704 320 704 320 832 c 1,14,-1
 192 832 l 1,15,16
 192 832 192 832 192 704 c 1,17,-1
 128 704 l 1,18,-1
 128 640 l 1,19,-1
 64 640 l 1,20,-1
 64 320 l 1,21,-1
 128 320 l 1,22,-1
 128 256 l 1,23,-1
 192 256 l 1,24,25
 192 256 192 256 192 128 c 1,26,-1
 320 128 l 1,27,28
 320 128 320 128 320 256 c 1,29,-1
 384 256 l 1,30,-1
 384 320 l 1,31,-1
 448 320 l 1,0,-1
EndSplineSet
Validated: 9
EndChar

StartChar: sterling
Encoding: 163 163 133
Width: 512
Flags: W
LayerCount: 2
Fore
SplineSet
448 192 m 1,0,-1
 448 256 l 1,1,-1
 320 256 l 1,2,-1
 320 192 l 1,3,-1
 192 192 l 1,4,-1
 192 512 l 1,5,-1
 256 512 l 1,6,-1
 256 576 l 1,7,-1
 192 576 l 1,8,-1
 192 768 l 1,9,-1
 256 768 l 1,10,-1
 256 704 l 1,11,-1
 320 704 l 1,12,-1
 320 640 l 1,13,-1
 384 640 l 1,14,15
 384 640 384 640 384 768 c 1,16,-1
 320 768 l 1,17,-1
 320 832 l 1,18,-1
 128 832 l 1,19,-1
 128 768 l 1,20,-1
 64 768 l 1,21,-1
 64 576 l 1,22,-1
 0 576 l 1,23,-1
 0 512 l 1,24,-1
 64 512 l 1,25,26
 64 512 64 512 64 256 c 1,27,-1
 0 256 l 1,28,29
 0 256 0 256 0 128 c 1,30,-1
 384 128 l 1,31,-1
 384 192 l 1,32,-1
 448 192 l 1,0,-1
EndSplineSet
Validated: 9
EndChar

StartChar: currency
Encoding: 164 164 134
Width: 512
Flags: W
LayerCount: 2
Fore
SplineSet
448 192 m 1,0,-1
 448 256 l 1,1,-1
 384 256 l 1,2,-1
 384 320 l 1,3,-1
 448 320 l 1,4,-1
 448 512 l 1,5,-1
 384 512 l 1,6,-1
 384 576 l 1,7,-1
 448 576 l 1,8,-1
 448 640 l 1,9,-1
 320 640 l 1,10,-1
 320 576 l 1,11,-1
 192 576 l 1,12,-1
 192 640 l 1,13,-1
 64 640 l 1,14,-1
 64 576 l 1,15,-1
 128 576 l 1,16,-1
 128 512 l 1,17,-1
 64 512 l 1,18,-1
 64 320 l 1,19,-1
 128 320 l 1,20,-1
 128 256 l 1,21,-1
 64 256 l 1,22,-1
 64 192 l 1,23,-1
 192 192 l 1,24,-1
 192 256 l 1,25,-1
 320 256 l 1,26,-1
 320 192 l 1,27,-1
 448 192 l 1,0,-1
192 320 m 1,28,-1
 192 512 l 1,29,-1
 320 512 l 1,30,-1
 320 320 l 1,31,-1
 192 320 l 1,28,-1
EndSplineSet
Validated: 9
EndChar

StartChar: yen
Encoding: 165 165 135
Width: 512
Flags: W
LayerCount: 2
Fore
SplineSet
448 320 m 1,0,-1
 448 384 l 1,1,-1
 320 384 l 1,2,-1
 320 448 l 1,3,-1
 448 448 l 1,4,-1
 448 512 l 1,5,-1
 320 512 l 1,6,-1
 320 576 l 1,7,-1
 384 576 l 1,8,-1
 384 640 l 1,9,-1
 448 640 l 1,10,11
 448 640 448 640 448 768 c 1,12,-1
 320 768 l 1,13,14
 320 768 320 768 320 640 c 1,15,-1
 192 640 l 1,16,17
 192 640 192 640 192 768 c 1,18,-1
 64 768 l 1,19,20
 64 768 64 768 64 640 c 1,21,-1
 128 640 l 1,22,-1
 128 576 l 1,23,-1
 192 576 l 1,24,-1
 192 512 l 1,25,-1
 64 512 l 1,26,-1
 64 448 l 1,27,-1
 192 448 l 1,28,-1
 192 384 l 1,29,-1
 64 384 l 1,30,-1
 64 320 l 1,31,-1
 192 320 l 1,32,-1
 192 128 l 1,33,-1
 320 128 l 1,34,-1
 320 320 l 1,35,-1
 448 320 l 1,0,-1
EndSplineSet
Validated: 9
EndChar

StartChar: brokenbar
Encoding: 166 166 136
Width: 512
Flags: W
LayerCount: 2
Fore
SplineSet
192 448 m 1,0,-1
 192 128 l 1,1,-1
 320 128 l 1,2,-1
 320 448 l 1,3,-1
 192 448 l 1,0,-1
192 768 m 1,4,5
 192 768 192 768 192 512 c 1,6,-1
 320 512 l 1,7,8
 320 512 320 512 320 768 c 1,9,-1
 192 768 l 1,4,5
EndSplineSet
Validated: 9
EndChar

StartChar: section
Encoding: 167 167 137
Width: 512
Flags: W
LayerCount: 2
Fore
SplineSet
448 128 m 1,0,-1
 448 192 l 1,1,-1
 384 192 l 1,2,-1
 384 256 l 1,3,-1
 320 256 l 1,4,-1
 320 320 l 1,5,-1
 384 320 l 1,6,-1
 384 384 l 1,7,-1
 448 384 l 1,8,9
 448 384 448 384 448 512 c 1,10,-1
 384 512 l 1,11,-1
 384 576 l 1,12,-1
 320 576 l 1,13,-1
 320 640 l 1,14,-1
 192 640 l 1,15,-1
 192 704 l 1,16,-1
 128 704 l 1,17,-1
 128 768 l 1,18,-1
 320 768 l 1,19,-1
 320 704 l 1,20,-1
 448 704 l 1,21,-1
 448 768 l 1,22,-1
 384 768 l 1,23,-1
 384 832 l 1,24,-1
 64 832 l 1,25,-1
 64 768 l 1,26,-1
 0 768 l 1,27,-1
 0 704 l 1,28,-1
 64 704 l 1,29,-1
 64 640 l 1,30,-1
 128 640 l 1,31,-1
 128 576 l 1,32,-1
 64 576 l 1,33,-1
 64 512 l 1,34,-1
 0 512 l 1,35,36
 0 512 0 512 0 384 c 1,37,-1
 64 384 l 1,38,-1
 64 320 l 1,39,-1
 128 320 l 1,40,-1
 128 256 l 1,41,-1
 256 256 l 1,42,-1
 256 192 l 1,43,-1
 320 192 l 1,44,-1
 320 128 l 1,45,-1
 128 128 l 1,46,-1
 128 192 l 1,47,-1
 0 192 l 1,48,-1
 0 128 l 1,49,-1
 64 128 l 1,50,-1
 64 64 l 1,51,-1
 384 64 l 1,52,-1
 384 128 l 1,53,-1
 448 128 l 1,0,-1
192 320 m 1,54,-1
 192 384 l 1,55,-1
 128 384 l 1,56,57
 128 384 128 384 128 512 c 1,58,-1
 192 512 l 1,59,-1
 192 576 l 1,60,-1
 256 576 l 1,61,-1
 256 512 l 1,62,-1
 320 512 l 1,63,64
 320 512 320 512 320 384 c 1,65,-1
 256 384 l 1,66,-1
 256 320 l 1,67,-1
 192 320 l 1,54,-1
EndSplineSet
Validated: 9
EndChar

StartChar: dieresis
Encoding: 168 168 138
Width: 512
Flags: W
LayerCount: 2
Fore
SplineSet
64 768 m 1,0,1
 64 768 64 768 64 640 c 1,2,-1
 192 640 l 1,3,4
 192 640 192 640 192 768 c 1,5,-1
 64 768 l 1,0,1
256 768 m 1,6,7
 256 768 256 768 256 640 c 1,8,-1
 384 640 l 1,9,10
 384 640 384 640 384 768 c 1,11,-1
 256 768 l 1,6,7
EndSplineSet
Validated: 9
EndChar

StartChar: copyright
Encoding: 169 169 139
Width: 512
Flags: W
LayerCount: 2
Fore
SplineSet
384 320 m 1,0,-1
 384 384 l 1,1,-1
 320 384 l 1,2,-1
 320 320 l 1,3,-1
 192 320 l 1,4,-1
 192 256 l 1,5,-1
 320 256 l 1,6,-1
 320 320 l 1,7,-1
 384 320 l 1,0,-1
384 512 m 1,8,-1
 384 576 l 1,9,-1
 320 576 l 1,10,-1
 320 512 l 1,11,-1
 384 512 l 1,8,-1
128 192 m 1,12,-1
 128 128 l 1,13,-1
 384 128 l 1,14,-1
 384 192 l 1,15,-1
 128 192 l 1,12,-1
128 192 m 1,16,-1
 128 256 l 1,17,-1
 64 256 l 1,18,-1
 64 192 l 1,19,-1
 128 192 l 1,16,-1
384 192 m 1,20,-1
 448 192 l 1,21,-1
 448 256 l 1,22,-1
 384 256 l 1,23,-1
 384 192 l 1,20,-1
64 256 m 1,24,25
 64 256 64 256 64 640 c 1,26,-1
 0 640 l 1,27,28
 0 640 0 640 0 256 c 1,29,-1
 64 256 l 1,24,25
448 256 m 1,30,-1
 512 256 l 1,31,32
 512 256 512 256 512 640 c 1,33,-1
 448 640 l 1,34,35
 448 640 448 640 448 256 c 1,30,-1
192 320 m 1,36,37
 192 320 192 320 192 576 c 1,38,-1
 128 576 l 1,39,40
 128 576 128 576 128 320 c 1,41,-1
 192 320 l 1,36,37
192 576 m 1,42,-1
 320 576 l 1,43,-1
 320 640 l 1,44,-1
 192 640 l 1,45,-1
 192 576 l 1,42,-1
64 640 m 1,46,-1
 128 640 l 1,47,-1
 128 704 l 1,48,-1
 64 704 l 1,49,-1
 64 640 l 1,46,-1
448 640 m 1,50,-1
 448 704 l 1,51,-1
 384 704 l 1,52,-1
 384 640 l 1,53,-1
 448 640 l 1,50,-1
128 704 m 1,54,-1
 384 704 l 1,55,-1
 384 768 l 1,56,-1
 128 768 l 1,57,-1
 128 704 l 1,54,-1
EndSplineSet
Validated: 5
EndChar

StartChar: ordfeminine
Encoding: 170 170 140
Width: 512
Flags: W
LayerCount: 2
Fore
SplineSet
448 448 m 1,0,-1
 448 512 l 1,1,-1
 64 512 l 1,2,-1
 64 448 l 1,3,-1
 448 448 l 1,0,-1
448 576 m 1,4,-1
 448 640 l 1,5,-1
 384 640 l 1,6,-1
 384 832 l 1,7,-1
 128 832 l 1,8,-1
 128 768 l 1,9,-1
 64 768 l 1,10,11
 64 768 64 768 64 640 c 1,12,-1
 128 640 l 1,13,-1
 128 576 l 1,14,-1
 448 576 l 1,4,-1
192 640 m 1,15,16
 192 640 192 640 192 768 c 1,17,-1
 256 768 l 1,18,19
 256 768 256 768 256 640 c 1,20,-1
 192 640 l 1,15,16
EndSplineSet
Validated: 9
EndChar

StartChar: guillemotleft
Encoding: 171 171 141
Width: 512
Flags: W
LayerCount: 2
Fore
SplineSet
448 256 m 1,0,-1
 448 320 l 1,1,-1
 384 320 l 1,2,-1
 384 384 l 1,3,-1
 320 384 l 1,4,-1
 320 448 l 1,5,-1
 384 448 l 1,6,-1
 384 512 l 1,7,-1
 448 512 l 1,8,-1
 448 576 l 1,9,-1
 320 576 l 1,10,-1
 320 512 l 1,11,-1
 256 512 l 1,12,-1
 256 448 l 1,13,-1
 192 448 l 1,14,-1
 192 384 l 1,15,-1
 128 384 l 1,16,-1
 128 448 l 1,17,-1
 192 448 l 1,18,-1
 192 512 l 1,19,-1
 256 512 l 1,20,-1
 256 576 l 1,21,-1
 128 576 l 1,22,-1
 128 512 l 1,23,-1
 64 512 l 1,24,-1
 64 448 l 1,25,-1
 0 448 l 1,26,-1
 0 384 l 1,27,-1
 64 384 l 1,28,-1
 64 320 l 1,29,-1
 128 320 l 1,30,-1
 128 256 l 1,31,-1
 256 256 l 1,32,-1
 256 320 l 1,33,-1
 192 320 l 1,34,-1
 192 384 l 1,35,-1
 256 384 l 1,36,-1
 256 320 l 1,37,-1
 320 320 l 1,38,-1
 320 256 l 1,39,-1
 448 256 l 1,0,-1
EndSplineSet
Validated: 5
EndChar

StartChar: logicalnot
Encoding: 172 172 142
Width: 512
Flags: W
LayerCount: 2
Fore
SplineSet
320 448 m 1,0,1
 320 448 320 448 320 192 c 1,2,-1
 448 192 l 1,3,-1
 448 512 l 1,4,-1
 0 512 l 1,5,-1
 0 448 l 1,6,-1
 320 448 l 1,0,1
EndSplineSet
Validated: 9
EndChar

StartChar: uni00AD
Encoding: 173 173 143
Width: 512
Flags: W
LayerCount: 2
Fore
SplineSet
384 384 m 1,0,-1
 384 448 l 1,1,-1
 128 448 l 1,2,-1
 128 384 l 1,3,-1
 384 384 l 1,0,-1
EndSplineSet
Validated: 9
EndChar

StartChar: registered
Encoding: 174 174 144
Width: 512
Flags: W
LayerCount: 2
Fore
SplineSet
128 384 m 1,0,-1
 128 320 l 1,1,-1
 320 320 l 1,2,-1
 320 384 l 1,3,-1
 128 384 l 1,0,-1
128 384 m 1,4,-1
 128 448 l 1,5,-1
 64 448 l 1,6,-1
 64 384 l 1,7,-1
 128 384 l 1,4,-1
320 384 m 1,8,-1
 384 384 l 1,9,-1
 384 448 l 1,10,-1
 320 448 l 1,11,-1
 320 384 l 1,8,-1
64 448 m 1,12,-1
 64 640 l 1,13,-1
 0 640 l 1,14,-1
 0 448 l 1,15,-1
 64 448 l 1,12,-1
128 448 m 1,16,-1
 192 448 l 1,17,-1
 192 512 l 1,18,-1
 256 512 l 1,19,-1
 256 448 l 1,20,-1
 320 448 l 1,21,-1
 320 512 l 1,22,-1
 256 512 l 1,23,-1
 256 576 l 1,24,-1
 320 576 l 1,25,-1
 320 640 l 1,26,-1
 128 640 l 1,27,-1
 128 448 l 1,16,-1
384 448 m 1,28,-1
 448 448 l 1,29,-1
 448 640 l 1,30,-1
 384 640 l 1,31,-1
 384 448 l 1,28,-1
64 640 m 1,32,-1
 128 640 l 1,33,-1
 128 704 l 1,34,-1
 64 704 l 1,35,-1
 64 640 l 1,32,-1
320 640 m 1,36,-1
 384 640 l 1,37,-1
 384 704 l 1,38,-1
 320 704 l 1,39,-1
 320 640 l 1,36,-1
128 704 m 1,40,-1
 320 704 l 1,41,-1
 320 768 l 1,42,-1
 128 768 l 1,43,-1
 128 704 l 1,40,-1
EndSplineSet
Validated: 5
EndChar

StartChar: macron
Encoding: 175 175 145
Width: 512
Flags: W
LayerCount: 2
Fore
SplineSet
384 640 m 1,0,-1
 384 704 l 1,1,-1
 64 704 l 1,2,-1
 64 640 l 1,3,-1
 384 640 l 1,0,-1
EndSplineSet
Validated: 9
EndChar

StartChar: degree
Encoding: 176 176 146
Width: 512
Flags: W
LayerCount: 2
Fore
SplineSet
128 640 m 1,0,-1
 128 576 l 1,1,-1
 320 576 l 1,2,-1
 320 640 l 1,3,-1
 384 640 l 1,4,5
 384 640 384 640 384 768 c 1,6,-1
 320 768 l 1,7,-1
 320 832 l 1,8,-1
 128 832 l 1,9,-1
 128 768 l 1,10,-1
 64 768 l 1,11,12
 64 768 64 768 64 640 c 1,13,-1
 128 640 l 1,0,-1
192 640 m 1,14,15
 192 640 192 640 192 768 c 1,16,-1
 256 768 l 1,17,18
 256 768 256 768 256 640 c 1,19,-1
 192 640 l 1,14,15
EndSplineSet
Validated: 9
EndChar

StartChar: plusminus
Encoding: 177 177 147
Width: 512
Flags: W
LayerCount: 2
Fore
SplineSet
448 192 m 1,0,-1
 448 256 l 1,1,-1
 64 256 l 1,2,-1
 64 192 l 1,3,-1
 448 192 l 1,0,-1
448 448 m 1,4,-1
 448 512 l 1,5,-1
 320 512 l 1,6,7
 320 512 320 512 320 640 c 1,8,-1
 192 640 l 1,9,10
 192 640 192 640 192 512 c 1,11,-1
 64 512 l 1,12,-1
 64 448 l 1,13,-1
 192 448 l 1,14,15
 192 448 192 448 192 320 c 1,16,-1
 320 320 l 1,17,18
 320 320 320 320 320 448 c 1,19,-1
 448 448 l 1,4,-1
EndSplineSet
Validated: 9
EndChar

StartChar: uni00B2
Encoding: 178 178 148
Width: 512
Flags: W
LayerCount: 2
Fore
SplineSet
320 704 m 1,0,-1
 320 768 l 1,1,-1
 256 768 l 1,2,-1
 256 832 l 1,3,-1
 64 832 l 1,4,-1
 64 768 l 1,5,-1
 0 768 l 1,6,-1
 0 704 l 1,7,-1
 128 704 l 1,8,-1
 128 640 l 1,9,-1
 64 640 l 1,10,-1
 64 576 l 1,11,-1
 0 576 l 1,12,13
 0 576 0 576 0 448 c 1,14,-1
 320 448 l 1,15,16
 320 448 320 448 320 576 c 1,17,-1
 256 576 l 1,18,-1
 256 512 l 1,19,-1
 128 512 l 1,20,-1
 128 576 l 1,21,-1
 192 576 l 1,22,-1
 192 640 l 1,23,-1
 256 640 l 1,24,-1
 256 704 l 1,25,-1
 320 704 l 1,0,-1
128 704 m 1,26,-1
 128 768 l 1,27,-1
 192 768 l 1,28,-1
 192 704 l 1,29,-1
 128 704 l 1,26,-1
EndSplineSet
Validated: 5
EndChar

StartChar: uni00B3
Encoding: 179 179 149
Width: 512
Flags: W
LayerCount: 2
Fore
SplineSet
320 704 m 1,0,-1
 320 768 l 1,1,-1
 256 768 l 1,2,-1
 256 832 l 1,3,-1
 64 832 l 1,4,-1
 64 768 l 1,5,-1
 0 768 l 1,6,-1
 0 704 l 1,7,-1
 128 704 l 1,8,-1
 128 640 l 1,9,-1
 192 640 l 1,10,11
 192 640 192 640 192 512 c 1,12,-1
 128 512 l 1,13,-1
 128 576 l 1,14,-1
 0 576 l 1,15,-1
 0 512 l 1,16,-1
 64 512 l 1,17,-1
 64 448 l 1,18,-1
 256 448 l 1,19,-1
 256 512 l 1,20,-1
 320 512 l 1,21,22
 320 512 320 512 320 640 c 1,23,-1
 256 640 l 1,24,-1
 256 704 l 1,25,-1
 320 704 l 1,0,-1
128 704 m 1,26,-1
 128 768 l 1,27,-1
 192 768 l 1,28,-1
 192 704 l 1,29,-1
 128 704 l 1,26,-1
EndSplineSet
Validated: 5
EndChar

StartChar: acute
Encoding: 180 180 150
Width: 512
Flags: W
LayerCount: 2
Fore
SplineSet
384 704 m 1,0,-1
 384 768 l 1,1,-1
 256 768 l 1,2,-1
 256 704 l 1,3,-1
 192 704 l 1,4,-1
 192 640 l 1,5,-1
 320 640 l 1,6,-1
 320 704 l 1,7,-1
 384 704 l 1,0,-1
EndSplineSet
Validated: 9
EndChar

StartChar: mu
Encoding: 181 181 151
Width: 512
Flags: W
LayerCount: 2
Fore
SplineSet
448 128 m 1,0,-1
 448 192 l 1,1,-1
 384 192 l 1,2,3
 384 192 384 192 384 576 c 1,4,-1
 256 576 l 1,5,6
 256 576 256 576 256 192 c 1,7,-1
 128 192 l 1,8,9
 128 192 128 192 128 576 c 1,10,-1
 0 576 l 1,11,12
 0 576 0 576 0 -64 c 1,13,-1
 128 -64 l 1,14,-1
 128 128 l 1,15,-1
 256 128 l 1,16,-1
 256 192 l 1,17,-1
 320 192 l 1,18,-1
 320 128 l 1,19,-1
 448 128 l 1,0,-1
EndSplineSet
Validated: 5
EndChar

StartChar: paragraph
Encoding: 182 182 152
Width: 512
Flags: W
LayerCount: 2
Fore
SplineSet
192 448 m 1,0,-1
 192 128 l 1,1,-1
 320 128 l 1,2,-1
 320 704 l 1,3,-1
 384 704 l 1,4,-1
 384 128 l 1,5,-1
 512 128 l 1,6,7
 512 128 512 128 512 768 c 1,8,-1
 64 768 l 1,9,-1
 64 704 l 1,10,-1
 0 704 l 1,11,-1
 0 512 l 1,12,-1
 64 512 l 1,13,-1
 64 448 l 1,14,-1
 192 448 l 1,0,-1
128 512 m 1,15,-1
 128 704 l 1,16,-1
 192 704 l 1,17,-1
 192 512 l 1,18,-1
 128 512 l 1,15,-1
EndSplineSet
Validated: 9
EndChar

StartChar: periodcentered
Encoding: 183 183 153
Width: 512
Flags: W
LayerCount: 2
Fore
SplineSet
320 320 m 1,0,-1
 320 384 l 1,1,-1
 192 384 l 1,2,-1
 192 320 l 1,3,-1
 320 320 l 1,0,-1
EndSplineSet
Validated: 9
EndChar

StartChar: cedilla
Encoding: 184 184 154
Width: 512
Flags: W
LayerCount: 2
Fore
SplineSet
384 0 m 1,0,-1
 384 64 l 1,1,-1
 320 64 l 1,2,-1
 320 128 l 1,3,-1
 192 128 l 1,4,-1
 192 64 l 1,5,-1
 256 64 l 1,6,-1
 256 0 l 1,7,-1
 128 0 l 1,8,-1
 128 -64 l 1,9,-1
 320 -64 l 1,10,-1
 320 0 l 1,11,-1
 384 0 l 1,0,-1
EndSplineSet
Validated: 9
EndChar

StartChar: uni00B9
Encoding: 185 185 155
Width: 512
Flags: W
LayerCount: 2
Fore
SplineSet
320 448 m 1,0,-1
 320 512 l 1,1,-1
 256 512 l 1,2,-1
 256 832 l 1,3,-1
 128 832 l 1,4,-1
 128 768 l 1,5,-1
 64 768 l 1,6,-1
 64 704 l 1,7,-1
 128 704 l 1,8,-1
 128 512 l 1,9,-1
 64 512 l 1,10,-1
 64 448 l 1,11,-1
 320 448 l 1,0,-1
EndSplineSet
Validated: 9
EndChar

StartChar: ordmasculine
Encoding: 186 186 156
Width: 512
Flags: W
LayerCount: 2
Fore
SplineSet
384 448 m 1,0,-1
 384 512 l 1,1,-1
 64 512 l 1,2,-1
 64 448 l 1,3,-1
 384 448 l 1,0,-1
128 640 m 1,4,-1
 128 576 l 1,5,-1
 320 576 l 1,6,-1
 320 640 l 1,7,-1
 384 640 l 1,8,9
 384 640 384 640 384 768 c 1,10,-1
 320 768 l 1,11,-1
 320 832 l 1,12,-1
 128 832 l 1,13,-1
 128 768 l 1,14,-1
 64 768 l 1,15,16
 64 768 64 768 64 640 c 1,17,-1
 128 640 l 1,4,-1
192 640 m 1,18,19
 192 640 192 640 192 768 c 1,20,-1
 256 768 l 1,21,22
 256 768 256 768 256 640 c 1,23,-1
 192 640 l 1,18,19
EndSplineSet
Validated: 9
EndChar

StartChar: guillemotright
Encoding: 187 187 157
Width: 512
Flags: W
LayerCount: 2
Fore
SplineSet
448 384 m 1,0,-1
 448 448 l 1,1,-1
 384 448 l 1,2,-1
 384 512 l 1,3,-1
 320 512 l 1,4,-1
 320 576 l 1,5,-1
 192 576 l 1,6,-1
 192 512 l 1,7,-1
 128 512 l 1,8,-1
 128 576 l 1,9,-1
 0 576 l 1,10,-1
 0 512 l 1,11,-1
 64 512 l 1,12,-1
 64 448 l 1,13,-1
 128 448 l 1,14,-1
 128 384 l 1,15,-1
 64 384 l 1,16,-1
 64 320 l 1,17,-1
 0 320 l 1,18,-1
 0 256 l 1,19,-1
 128 256 l 1,20,-1
 128 320 l 1,21,-1
 192 320 l 1,22,-1
 192 256 l 1,23,-1
 320 256 l 1,24,-1
 320 320 l 1,25,-1
 384 320 l 1,26,-1
 384 384 l 1,27,-1
 448 384 l 1,0,-1
192 320 m 1,28,-1
 192 384 l 1,29,-1
 256 384 l 1,30,-1
 256 320 l 1,31,-1
 192 320 l 1,28,-1
256 384 m 1,32,-1
 256 448 l 1,33,-1
 192 448 l 1,34,-1
 192 512 l 1,35,-1
 256 512 l 1,36,-1
 256 448 l 1,37,-1
 320 448 l 1,38,-1
 320 384 l 1,39,-1
 256 384 l 1,32,-1
EndSplineSet
Validated: 5
EndChar

StartChar: onequarter
Encoding: 188 188 158
Width: 512
Flags: W
LayerCount: 2
Fore
SplineSet
320 128 m 1,0,1
 320 128 320 128 320 0 c 1,2,-1
 448 0 l 1,3,4
 448 0 448 0 448 384 c 1,5,-1
 320 384 l 1,6,-1
 320 320 l 1,7,-1
 256 320 l 1,8,-1
 256 256 l 1,9,-1
 192 256 l 1,10,-1
 192 192 l 1,11,-1
 128 192 l 1,12,-1
 128 128 l 1,13,-1
 320 128 l 1,0,1
64 256 m 1,14,-1
 128 256 l 1,15,-1
 128 320 l 1,16,-1
 192 320 l 1,17,-1
 192 384 l 1,18,-1
 256 384 l 1,19,-1
 256 448 l 1,20,-1
 320 448 l 1,21,-1
 320 512 l 1,22,-1
 384 512 l 1,23,-1
 384 576 l 1,24,-1
 448 576 l 1,25,26
 448 576 448 576 448 704 c 1,27,-1
 384 704 l 1,28,-1
 384 640 l 1,29,-1
 320 640 l 1,30,-1
 320 576 l 1,31,-1
 256 576 l 1,32,-1
 256 512 l 1,33,-1
 192 512 l 1,34,-1
 192 448 l 1,35,-1
 128 448 l 1,36,-1
 128 384 l 1,37,-1
 64 384 l 1,38,-1
 64 320 l 1,39,-1
 0 320 l 1,40,41
 0 320 0 320 0 192 c 1,42,-1
 64 192 l 1,43,-1
 64 256 l 1,14,-1
0 832 m 1,44,-1
 0 512 l 1,45,-1
 128 512 l 1,46,-1
 128 832 l 1,47,-1
 0 832 l 1,44,-1
EndSplineSet
Validated: 9
EndChar

StartChar: onehalf
Encoding: 189 189 159
Width: 512
Flags: W
LayerCount: 2
Fore
SplineSet
448 0 m 1,0,-1
 448 64 l 1,1,-1
 320 64 l 1,2,-1
 320 128 l 1,3,-1
 384 128 l 1,4,-1
 384 192 l 1,5,-1
 448 192 l 1,6,-1
 448 256 l 1,7,-1
 384 256 l 1,8,-1
 384 320 l 1,9,-1
 192 320 l 1,10,-1
 192 256 l 1,11,-1
 320 256 l 1,12,-1
 320 192 l 1,13,-1
 256 192 l 1,14,-1
 256 128 l 1,15,-1
 192 128 l 1,16,-1
 192 64 l 1,17,-1
 128 64 l 1,18,-1
 128 0 l 1,19,-1
 448 0 l 1,0,-1
64 256 m 1,20,-1
 128 256 l 1,21,-1
 128 320 l 1,22,-1
 192 320 l 1,23,-1
 192 384 l 1,24,-1
 256 384 l 1,25,-1
 256 448 l 1,26,-1
 320 448 l 1,27,-1
 320 512 l 1,28,-1
 384 512 l 1,29,-1
 384 576 l 1,30,-1
 448 576 l 1,31,32
 448 576 448 576 448 704 c 1,33,-1
 384 704 l 1,34,-1
 384 640 l 1,35,-1
 320 640 l 1,36,-1
 320 576 l 1,37,-1
 256 576 l 1,38,-1
 256 512 l 1,39,-1
 192 512 l 1,40,-1
 192 448 l 1,41,-1
 128 448 l 1,42,-1
 128 384 l 1,43,-1
 64 384 l 1,44,-1
 64 320 l 1,45,-1
 0 320 l 1,46,47
 0 320 0 320 0 192 c 1,48,-1
 64 192 l 1,49,-1
 64 256 l 1,20,-1
0 832 m 1,50,-1
 0 512 l 1,51,-1
 128 512 l 1,52,-1
 128 832 l 1,53,-1
 0 832 l 1,50,-1
EndSplineSet
Validated: 5
EndChar

StartChar: threequarters
Encoding: 190 190 160
Width: 512
Flags: W
LayerCount: 2
Fore
SplineSet
256 704 m 1,0,-1
 256 768 l 1,1,-1
 192 768 l 1,2,-1
 192 832 l 1,3,-1
 0 832 l 1,4,-1
 0 768 l 1,5,-1
 128 768 l 1,6,-1
 128 704 l 1,7,-1
 64 704 l 1,8,-1
 64 640 l 1,9,-1
 128 640 l 1,10,-1
 128 576 l 1,11,-1
 0 576 l 1,12,-1
 0 512 l 1,13,-1
 192 512 l 1,14,-1
 192 448 l 1,15,-1
 128 448 l 1,16,-1
 128 384 l 1,17,-1
 64 384 l 1,18,-1
 64 320 l 1,19,-1
 0 320 l 1,20,21
 0 320 0 320 0 192 c 1,22,-1
 64 192 l 1,23,-1
 64 256 l 1,24,-1
 128 256 l 1,25,-1
 128 320 l 1,26,-1
 192 320 l 1,27,-1
 192 384 l 1,28,-1
 256 384 l 1,29,-1
 256 448 l 1,30,-1
 320 448 l 1,31,-1
 320 512 l 1,32,-1
 384 512 l 1,33,-1
 384 576 l 1,34,-1
 448 576 l 1,35,36
 448 576 448 576 448 704 c 1,37,-1
 384 704 l 1,38,-1
 384 640 l 1,39,-1
 320 640 l 1,40,-1
 320 576 l 1,41,-1
 256 576 l 1,42,-1
 256 512 l 1,43,-1
 192 512 l 1,44,-1
 192 576 l 1,45,-1
 256 576 l 1,46,-1
 256 640 l 1,47,-1
 192 640 l 1,48,-1
 192 704 l 1,49,-1
 256 704 l 1,0,-1
320 128 m 1,50,51
 320 128 320 128 320 0 c 1,52,-1
 448 0 l 1,53,54
 448 0 448 0 448 384 c 1,55,-1
 320 384 l 1,56,-1
 320 320 l 1,57,-1
 256 320 l 1,58,-1
 256 256 l 1,59,-1
 192 256 l 1,60,-1
 192 192 l 1,61,-1
 128 192 l 1,62,-1
 128 128 l 1,63,-1
 320 128 l 1,50,51
EndSplineSet
Validated: 5
EndChar

StartChar: questiondown
Encoding: 191 191 161
Width: 512
Flags: W
LayerCount: 2
Fore
SplineSet
64 192 m 1,0,-1
 64 128 l 1,1,-1
 384 128 l 1,2,-1
 384 192 l 1,3,-1
 448 192 l 1,4,5
 448 192 448 192 448 320 c 1,6,-1
 320 320 l 1,7,8
 320 320 320 320 320 192 c 1,9,-1
 128 192 l 1,10,-1
 128 384 l 1,11,-1
 192 384 l 1,12,-1
 192 448 l 1,13,-1
 256 448 l 1,14,15
 256 448 256 448 256 576 c 1,16,-1
 128 576 l 1,17,18
 128 576 128 576 128 448 c 1,19,-1
 64 448 l 1,20,-1
 64 384 l 1,21,-1
 0 384 l 1,22,-1
 0 192 l 1,23,-1
 64 192 l 1,0,-1
128 768 m 1,24,25
 128 768 128 768 128 640 c 1,26,-1
 256 640 l 1,27,28
 256 640 256 640 256 768 c 1,29,-1
 128 768 l 1,24,25
EndSplineSet
Validated: 9
EndChar

StartChar: Agrave
Encoding: 192 192 162
Width: 512
Flags: W
LayerCount: 2
Fore
SplineSet
256 768 m 1,0,-1
 256 832 l 1,1,-1
 192 832 l 1,2,-1
 192 896 l 1,3,-1
 64 896 l 1,4,-1
 64 832 l 1,5,-1
 128 832 l 1,6,-1
 128 768 l 1,7,-1
 256 768 l 1,0,-1
0 512 m 1,8,9
 0 512 0 512 0 128 c 1,10,-1
 128 128 l 1,11,-1
 128 320 l 1,12,-1
 320 320 l 1,13,-1
 320 128 l 1,14,-1
 448 128 l 1,15,16
 448 128 448 128 448 512 c 1,17,-1
 384 512 l 1,18,-1
 384 576 l 1,19,-1
 320 576 l 1,20,-1
 320 640 l 1,21,-1
 256 640 l 1,22,-1
 256 704 l 1,23,-1
 192 704 l 1,24,-1
 192 640 l 1,25,-1
 128 640 l 1,26,-1
 128 576 l 1,27,-1
 64 576 l 1,28,-1
 64 512 l 1,29,-1
 0 512 l 1,8,9
128 384 m 1,30,31
 128 384 128 384 128 512 c 1,32,-1
 192 512 l 1,33,-1
 192 576 l 1,34,-1
 256 576 l 1,35,-1
 256 512 l 1,36,-1
 320 512 l 1,37,38
 320 512 320 512 320 384 c 1,39,-1
 128 384 l 1,30,31
EndSplineSet
Validated: 9
EndChar

StartChar: Aacute
Encoding: 193 193 163
Width: 512
Flags: W
LayerCount: 2
Fore
SplineSet
384 832 m 1,0,-1
 384 896 l 1,1,-1
 256 896 l 1,2,-1
 256 832 l 1,3,-1
 192 832 l 1,4,-1
 192 768 l 1,5,-1
 320 768 l 1,6,-1
 320 832 l 1,7,-1
 384 832 l 1,0,-1
0 512 m 1,8,9
 0 512 0 512 0 128 c 1,10,-1
 128 128 l 1,11,-1
 128 320 l 1,12,-1
 320 320 l 1,13,-1
 320 128 l 1,14,-1
 448 128 l 1,15,16
 448 128 448 128 448 512 c 1,17,-1
 384 512 l 1,18,-1
 384 576 l 1,19,-1
 320 576 l 1,20,-1
 320 640 l 1,21,-1
 256 640 l 1,22,-1
 256 704 l 1,23,-1
 192 704 l 1,24,-1
 192 640 l 1,25,-1
 128 640 l 1,26,-1
 128 576 l 1,27,-1
 64 576 l 1,28,-1
 64 512 l 1,29,-1
 0 512 l 1,8,9
128 384 m 1,30,31
 128 384 128 384 128 512 c 1,32,-1
 192 512 l 1,33,-1
 192 576 l 1,34,-1
 256 576 l 1,35,-1
 256 512 l 1,36,-1
 320 512 l 1,37,38
 320 512 320 512 320 384 c 1,39,-1
 128 384 l 1,30,31
EndSplineSet
Validated: 9
EndChar

StartChar: Acircumflex
Encoding: 194 194 164
Width: 512
Flags: W
LayerCount: 2
Fore
SplineSet
384 704 m 1,0,-1
 384 768 l 1,1,-1
 320 768 l 1,2,-1
 320 832 l 1,3,-1
 256 832 l 1,4,-1
 256 896 l 1,5,-1
 192 896 l 1,6,-1
 192 832 l 1,7,-1
 128 832 l 1,8,-1
 128 768 l 1,9,-1
 64 768 l 1,10,-1
 64 704 l 1,11,-1
 192 704 l 1,12,-1
 192 640 l 1,13,-1
 128 640 l 1,14,-1
 128 576 l 1,15,-1
 64 576 l 1,16,-1
 64 512 l 1,17,-1
 0 512 l 1,18,19
 0 512 0 512 0 128 c 1,20,-1
 128 128 l 1,21,-1
 128 320 l 1,22,-1
 320 320 l 1,23,-1
 320 128 l 1,24,-1
 448 128 l 1,25,26
 448 128 448 128 448 512 c 1,27,-1
 384 512 l 1,28,-1
 384 576 l 1,29,-1
 320 576 l 1,30,-1
 320 640 l 1,31,-1
 256 640 l 1,32,-1
 256 704 l 1,33,-1
 192 704 l 1,34,-1
 192 768 l 1,35,-1
 256 768 l 1,36,-1
 256 704 l 1,37,-1
 384 704 l 1,0,-1
128 384 m 1,38,39
 128 384 128 384 128 512 c 1,40,-1
 192 512 l 1,41,-1
 192 576 l 1,42,-1
 256 576 l 1,43,-1
 256 512 l 1,44,-1
 320 512 l 1,45,46
 320 512 320 512 320 384 c 1,47,-1
 128 384 l 1,38,39
EndSplineSet
Validated: 5
EndChar

StartChar: Atilde
Encoding: 195 195 165
Width: 512
Flags: W
LayerCount: 2
Fore
SplineSet
448 832 m 1,0,-1
 448 896 l 1,1,-1
 320 896 l 1,2,-1
 320 832 l 1,3,-1
 256 832 l 1,4,-1
 256 896 l 1,5,-1
 64 896 l 1,6,-1
 64 832 l 1,7,-1
 0 832 l 1,8,-1
 0 768 l 1,9,-1
 128 768 l 1,10,-1
 128 832 l 1,11,-1
 192 832 l 1,12,-1
 192 768 l 1,13,-1
 384 768 l 1,14,-1
 384 832 l 1,15,-1
 448 832 l 1,0,-1
0 512 m 1,16,17
 0 512 0 512 0 128 c 1,18,-1
 128 128 l 1,19,-1
 128 320 l 1,20,-1
 320 320 l 1,21,-1
 320 128 l 1,22,-1
 448 128 l 1,23,24
 448 128 448 128 448 512 c 1,25,-1
 384 512 l 1,26,-1
 384 576 l 1,27,-1
 320 576 l 1,28,-1
 320 640 l 1,29,-1
 256 640 l 1,30,-1
 256 704 l 1,31,-1
 192 704 l 1,32,-1
 192 640 l 1,33,-1
 128 640 l 1,34,-1
 128 576 l 1,35,-1
 64 576 l 1,36,-1
 64 512 l 1,37,-1
 0 512 l 1,16,17
128 384 m 1,38,39
 128 384 128 384 128 512 c 1,40,-1
 192 512 l 1,41,-1
 192 576 l 1,42,-1
 256 576 l 1,43,-1
 256 512 l 1,44,-1
 320 512 l 1,45,46
 320 512 320 512 320 384 c 1,47,-1
 128 384 l 1,38,39
EndSplineSet
Validated: 9
EndChar

StartChar: Adieresis
Encoding: 196 196 166
Width: 512
Flags: W
LayerCount: 2
Fore
SplineSet
0 512 m 1,0,1
 0 512 0 512 0 128 c 1,2,-1
 128 128 l 1,3,-1
 128 320 l 1,4,-1
 320 320 l 1,5,-1
 320 128 l 1,6,-1
 448 128 l 1,7,8
 448 128 448 128 448 512 c 1,9,-1
 384 512 l 1,10,-1
 384 576 l 1,11,-1
 320 576 l 1,12,-1
 320 640 l 1,13,-1
 256 640 l 1,14,-1
 256 704 l 1,15,-1
 192 704 l 1,16,-1
 192 640 l 1,17,-1
 128 640 l 1,18,-1
 128 576 l 1,19,-1
 64 576 l 1,20,-1
 64 512 l 1,21,-1
 0 512 l 1,0,1
128 384 m 1,22,23
 128 384 128 384 128 512 c 1,24,-1
 192 512 l 1,25,-1
 192 576 l 1,26,-1
 256 576 l 1,27,-1
 256 512 l 1,28,-1
 320 512 l 1,29,30
 320 512 320 512 320 384 c 1,31,-1
 128 384 l 1,22,23
64 896 m 1,32,33
 64 896 64 896 64 768 c 1,34,-1
 192 768 l 1,35,36
 192 768 192 768 192 896 c 1,37,-1
 64 896 l 1,32,33
256 896 m 1,38,39
 256 896 256 896 256 768 c 1,40,-1
 384 768 l 1,41,42
 384 768 384 768 384 896 c 1,43,-1
 256 896 l 1,38,39
EndSplineSet
Validated: 9
EndChar

StartChar: Aring
Encoding: 197 197 167
Width: 512
Flags: W
LayerCount: 2
Fore
SplineSet
384 768 m 1,0,-1
 384 832 l 1,1,-1
 320 832 l 1,2,-1
 320 896 l 1,3,-1
 128 896 l 1,4,-1
 128 832 l 1,5,-1
 64 832 l 1,6,-1
 64 768 l 1,7,-1
 128 768 l 1,8,-1
 128 704 l 1,9,-1
 192 704 l 1,10,-1
 192 640 l 1,11,-1
 128 640 l 1,12,-1
 128 576 l 1,13,-1
 64 576 l 1,14,-1
 64 512 l 1,15,-1
 0 512 l 1,16,17
 0 512 0 512 0 128 c 1,18,-1
 128 128 l 1,19,-1
 128 320 l 1,20,-1
 320 320 l 1,21,-1
 320 128 l 1,22,-1
 448 128 l 1,23,24
 448 128 448 128 448 512 c 1,25,-1
 384 512 l 1,26,-1
 384 576 l 1,27,-1
 320 576 l 1,28,-1
 320 640 l 1,29,-1
 256 640 l 1,30,-1
 256 704 l 1,31,-1
 320 704 l 1,32,-1
 320 768 l 1,33,-1
 384 768 l 1,0,-1
128 384 m 1,34,35
 128 384 128 384 128 512 c 1,36,-1
 192 512 l 1,37,-1
 192 576 l 1,38,-1
 256 576 l 1,39,-1
 256 512 l 1,40,-1
 320 512 l 1,41,42
 320 512 320 512 320 384 c 1,43,-1
 128 384 l 1,34,35
192 768 m 1,44,-1
 192 832 l 1,45,-1
 256 832 l 1,46,-1
 256 768 l 1,47,-1
 192 768 l 1,44,-1
EndSplineSet
Validated: 9
EndChar

StartChar: AE
Encoding: 198 198 168
Width: 512
Flags: W
LayerCount: 2
Fore
SplineSet
448 128 m 1,0,-1
 448 192 l 1,1,-1
 384 192 l 1,2,3
 384 192 384 192 384 448 c 1,4,-1
 448 448 l 1,5,-1
 448 512 l 1,6,-1
 384 512 l 1,7,-1
 384 704 l 1,8,-1
 448 704 l 1,9,-1
 448 768 l 1,10,-1
 128 768 l 1,11,-1
 128 704 l 1,12,-1
 64 704 l 1,13,-1
 64 640 l 1,14,-1
 0 640 l 1,15,16
 0 640 0 640 0 128 c 1,17,-1
 128 128 l 1,18,-1
 128 448 l 1,19,-1
 256 448 l 1,20,-1
 256 128 l 1,21,-1
 448 128 l 1,0,-1
128 512 m 1,22,23
 128 512 128 512 128 640 c 1,24,-1
 192 640 l 1,25,-1
 192 704 l 1,26,-1
 256 704 l 1,27,-1
 256 512 l 1,28,-1
 128 512 l 1,22,23
EndSplineSet
Validated: 9
EndChar

StartChar: Ccedilla
Encoding: 199 199 169
Width: 512
Flags: W
LayerCount: 2
Fore
SplineSet
384 0 m 1,0,-1
 384 64 l 1,1,-1
 320 64 l 1,2,-1
 320 128 l 1,3,-1
 384 128 l 1,4,-1
 384 192 l 1,5,-1
 448 192 l 1,6,7
 448 192 448 192 448 320 c 1,8,-1
 384 320 l 1,9,-1
 384 256 l 1,10,-1
 320 256 l 1,11,-1
 320 192 l 1,12,-1
 192 192 l 1,13,-1
 192 256 l 1,14,-1
 128 256 l 1,15,16
 128 256 128 256 128 640 c 1,17,-1
 192 640 l 1,18,-1
 192 704 l 1,19,-1
 320 704 l 1,20,-1
 320 640 l 1,21,-1
 384 640 l 1,22,-1
 384 576 l 1,23,-1
 448 576 l 1,24,25
 448 576 448 576 448 704 c 1,26,-1
 384 704 l 1,27,-1
 384 768 l 1,28,-1
 128 768 l 1,29,-1
 128 704 l 1,30,-1
 64 704 l 1,31,-1
 64 640 l 1,32,-1
 0 640 l 1,33,34
 0 640 0 640 0 256 c 1,35,-1
 64 256 l 1,36,-1
 64 192 l 1,37,-1
 128 192 l 1,38,-1
 128 128 l 1,39,-1
 192 128 l 1,40,-1
 192 64 l 1,41,-1
 256 64 l 1,42,-1
 256 0 l 1,43,-1
 128 0 l 1,44,-1
 128 -64 l 1,45,-1
 320 -64 l 1,46,-1
 320 0 l 1,47,-1
 384 0 l 1,0,-1
EndSplineSet
Validated: 9
EndChar

StartChar: Egrave
Encoding: 200 200 170
Width: 512
Flags: W
LayerCount: 2
Fore
SplineSet
320 768 m 1,0,-1
 320 832 l 1,1,-1
 256 832 l 1,2,-1
 256 896 l 1,3,-1
 128 896 l 1,4,-1
 128 832 l 1,5,-1
 192 832 l 1,6,-1
 192 768 l 1,7,-1
 320 768 l 1,0,-1
64 192 m 1,8,-1
 0 192 l 1,9,-1
 0 128 l 1,10,-1
 448 128 l 1,11,-1
 448 320 l 1,12,-1
 384 320 l 1,13,-1
 384 256 l 1,14,-1
 320 256 l 1,15,-1
 320 192 l 1,16,-1
 192 192 l 1,17,-1
 192 384 l 1,18,-1
 256 384 l 1,19,-1
 256 320 l 1,20,-1
 320 320 l 1,21,-1
 320 512 l 1,22,-1
 256 512 l 1,23,-1
 256 448 l 1,24,-1
 192 448 l 1,25,-1
 192 640 l 1,26,-1
 320 640 l 1,27,-1
 320 576 l 1,28,-1
 384 576 l 1,29,-1
 384 512 l 1,30,-1
 448 512 l 1,31,-1
 448 704 l 1,32,-1
 0 704 l 1,33,-1
 0 640 l 1,34,-1
 64 640 l 1,35,-1
 64 192 l 1,8,-1
EndSplineSet
Validated: 9
EndChar

StartChar: Eacute
Encoding: 201 201 171
Width: 512
Flags: W
LayerCount: 2
Fore
SplineSet
384 832 m 1,0,-1
 384 896 l 1,1,-1
 256 896 l 1,2,-1
 256 832 l 1,3,-1
 192 832 l 1,4,-1
 192 768 l 1,5,-1
 320 768 l 1,6,-1
 320 832 l 1,7,-1
 384 832 l 1,0,-1
64 192 m 1,8,-1
 0 192 l 1,9,-1
 0 128 l 1,10,-1
 448 128 l 1,11,-1
 448 320 l 1,12,-1
 384 320 l 1,13,-1
 384 256 l 1,14,-1
 320 256 l 1,15,-1
 320 192 l 1,16,-1
 192 192 l 1,17,-1
 192 384 l 1,18,-1
 256 384 l 1,19,-1
 256 320 l 1,20,-1
 320 320 l 1,21,-1
 320 512 l 1,22,-1
 256 512 l 1,23,-1
 256 448 l 1,24,-1
 192 448 l 1,25,-1
 192 640 l 1,26,-1
 320 640 l 1,27,-1
 320 576 l 1,28,-1
 384 576 l 1,29,-1
 384 512 l 1,30,-1
 448 512 l 1,31,-1
 448 704 l 1,32,-1
 0 704 l 1,33,-1
 0 640 l 1,34,-1
 64 640 l 1,35,-1
 64 192 l 1,8,-1
EndSplineSet
Validated: 9
EndChar

StartChar: Ecircumflex
Encoding: 202 202 172
Width: 512
Flags: W
LayerCount: 2
Fore
SplineSet
64 192 m 1,0,-1
 0 192 l 1,1,-1
 0 128 l 1,2,-1
 448 128 l 1,3,-1
 448 320 l 1,4,-1
 384 320 l 1,5,-1
 384 256 l 1,6,-1
 320 256 l 1,7,-1
 320 192 l 1,8,-1
 192 192 l 1,9,-1
 192 384 l 1,10,-1
 256 384 l 1,11,-1
 256 320 l 1,12,-1
 320 320 l 1,13,-1
 320 512 l 1,14,-1
 256 512 l 1,15,-1
 256 448 l 1,16,-1
 192 448 l 1,17,-1
 192 640 l 1,18,-1
 320 640 l 1,19,-1
 320 576 l 1,20,-1
 384 576 l 1,21,-1
 384 512 l 1,22,-1
 448 512 l 1,23,-1
 448 704 l 1,24,-1
 384 704 l 1,25,-1
 384 768 l 1,26,-1
 320 768 l 1,27,-1
 320 704 l 1,28,-1
 128 704 l 1,29,-1
 128 768 l 1,30,-1
 64 768 l 1,31,-1
 64 704 l 1,32,-1
 0 704 l 1,33,-1
 0 640 l 1,34,-1
 64 640 l 1,35,-1
 64 192 l 1,0,-1
128 768 m 1,36,-1
 320 768 l 1,37,-1
 320 832 l 1,38,-1
 256 832 l 1,39,-1
 256 896 l 1,40,-1
 192 896 l 1,41,-1
 192 832 l 1,42,-1
 128 832 l 1,43,-1
 128 768 l 1,36,-1
EndSplineSet
Validated: 5
EndChar

StartChar: Edieresis
Encoding: 203 203 173
Width: 512
Flags: W
LayerCount: 2
Fore
SplineSet
64 192 m 1,0,-1
 0 192 l 1,1,-1
 0 128 l 1,2,-1
 448 128 l 1,3,-1
 448 320 l 1,4,-1
 384 320 l 1,5,-1
 384 256 l 1,6,-1
 320 256 l 1,7,-1
 320 192 l 1,8,-1
 192 192 l 1,9,-1
 192 384 l 1,10,-1
 256 384 l 1,11,-1
 256 320 l 1,12,-1
 320 320 l 1,13,-1
 320 512 l 1,14,-1
 256 512 l 1,15,-1
 256 448 l 1,16,-1
 192 448 l 1,17,-1
 192 640 l 1,18,-1
 320 640 l 1,19,-1
 320 576 l 1,20,-1
 384 576 l 1,21,-1
 384 512 l 1,22,-1
 448 512 l 1,23,-1
 448 704 l 1,24,-1
 0 704 l 1,25,-1
 0 640 l 1,26,-1
 64 640 l 1,27,-1
 64 192 l 1,0,-1
64 896 m 1,28,29
 64 896 64 896 64 768 c 1,30,-1
 192 768 l 1,31,32
 192 768 192 768 192 896 c 1,33,-1
 64 896 l 1,28,29
256 896 m 1,34,35
 256 896 256 896 256 768 c 1,36,-1
 384 768 l 1,37,38
 384 768 384 768 384 896 c 1,39,-1
 256 896 l 1,34,35
EndSplineSet
Validated: 9
EndChar

StartChar: Igrave
Encoding: 204 204 174
Width: 512
Flags: W
LayerCount: 2
Fore
SplineSet
384 128 m 1,0,-1
 384 192 l 1,1,-1
 320 192 l 1,2,-1
 320 640 l 1,3,-1
 384 640 l 1,4,-1
 384 704 l 1,5,-1
 128 704 l 1,6,-1
 128 640 l 1,7,-1
 192 640 l 1,8,-1
 192 192 l 1,9,-1
 128 192 l 1,10,-1
 128 128 l 1,11,-1
 384 128 l 1,0,-1
320 768 m 1,12,-1
 320 832 l 1,13,-1
 256 832 l 1,14,-1
 256 896 l 1,15,-1
 128 896 l 1,16,-1
 128 832 l 1,17,-1
 192 832 l 1,18,-1
 192 768 l 1,19,-1
 320 768 l 1,12,-1
EndSplineSet
Validated: 9
EndChar

StartChar: Iacute
Encoding: 205 205 175
Width: 512
Flags: W
LayerCount: 2
Fore
SplineSet
384 128 m 1,0,-1
 384 192 l 1,1,-1
 320 192 l 1,2,-1
 320 640 l 1,3,-1
 384 640 l 1,4,-1
 384 704 l 1,5,-1
 128 704 l 1,6,-1
 128 640 l 1,7,-1
 192 640 l 1,8,-1
 192 192 l 1,9,-1
 128 192 l 1,10,-1
 128 128 l 1,11,-1
 384 128 l 1,0,-1
384 832 m 1,12,-1
 384 896 l 1,13,-1
 256 896 l 1,14,-1
 256 832 l 1,15,-1
 192 832 l 1,16,-1
 192 768 l 1,17,-1
 320 768 l 1,18,-1
 320 832 l 1,19,-1
 384 832 l 1,12,-1
EndSplineSet
Validated: 9
EndChar

StartChar: Icircumflex
Encoding: 206 206 176
Width: 512
Flags: W
LayerCount: 2
Fore
SplineSet
384 128 m 1,0,-1
 384 192 l 1,1,-1
 320 192 l 1,2,-1
 320 640 l 1,3,-1
 384 640 l 1,4,-1
 384 704 l 1,5,-1
 128 704 l 1,6,-1
 128 640 l 1,7,-1
 192 640 l 1,8,-1
 192 192 l 1,9,-1
 128 192 l 1,10,-1
 128 128 l 1,11,-1
 384 128 l 1,0,-1
448 704 m 1,12,-1
 448 768 l 1,13,-1
 384 768 l 1,14,-1
 384 704 l 1,15,-1
 448 704 l 1,12,-1
128 704 m 1,16,-1
 128 768 l 1,17,-1
 64 768 l 1,18,-1
 64 704 l 1,19,-1
 128 704 l 1,16,-1
128 768 m 1,20,-1
 384 768 l 1,21,-1
 384 832 l 1,22,-1
 320 832 l 1,23,-1
 320 896 l 1,24,-1
 192 896 l 1,25,-1
 192 832 l 1,26,-1
 128 832 l 1,27,-1
 128 768 l 1,20,-1
EndSplineSet
Validated: 5
EndChar

StartChar: Idieresis
Encoding: 207 207 177
Width: 512
Flags: W
LayerCount: 2
Fore
SplineSet
384 128 m 1,0,-1
 384 192 l 1,1,-1
 320 192 l 1,2,-1
 320 640 l 1,3,-1
 384 640 l 1,4,-1
 384 704 l 1,5,-1
 128 704 l 1,6,-1
 128 640 l 1,7,-1
 192 640 l 1,8,-1
 192 192 l 1,9,-1
 128 192 l 1,10,-1
 128 128 l 1,11,-1
 384 128 l 1,0,-1
64 896 m 1,12,13
 64 896 64 896 64 768 c 1,14,-1
 192 768 l 1,15,16
 192 768 192 768 192 896 c 1,17,-1
 64 896 l 1,12,13
320 896 m 1,18,19
 320 896 320 896 320 768 c 1,20,-1
 448 768 l 1,21,22
 448 768 448 768 448 896 c 1,23,-1
 320 896 l 1,18,19
EndSplineSet
Validated: 9
EndChar

StartChar: Eth
Encoding: 208 208 178
Width: 512
Flags: W
LayerCount: 2
Fore
SplineSet
256 448 m 1,0,-1
 256 512 l 1,1,-1
 192 512 l 1,2,-1
 192 704 l 1,3,-1
 256 704 l 1,4,-1
 256 640 l 1,5,-1
 320 640 l 1,6,7
 320 640 320 640 320 256 c 1,8,-1
 256 256 l 1,9,-1
 256 192 l 1,10,-1
 192 192 l 1,11,12
 192 192 192 192 192 448 c 1,13,-1
 256 448 l 1,0,-1
64 192 m 1,14,-1
 0 192 l 1,15,-1
 0 128 l 1,16,-1
 320 128 l 1,17,-1
 320 192 l 1,18,-1
 384 192 l 1,19,-1
 384 256 l 1,20,-1
 448 256 l 1,21,22
 448 256 448 256 448 640 c 1,23,-1
 384 640 l 1,24,-1
 384 704 l 1,25,-1
 320 704 l 1,26,-1
 320 768 l 1,27,-1
 0 768 l 1,28,-1
 0 704 l 1,29,-1
 64 704 l 1,30,-1
 64 512 l 1,31,-1
 0 512 l 1,32,-1
 0 448 l 1,33,-1
 64 448 l 1,34,35
 64 448 64 448 64 192 c 1,14,-1
EndSplineSet
Validated: 9
EndChar

StartChar: Ntilde
Encoding: 209 209 179
Width: 512
Flags: W
LayerCount: 2
Fore
SplineSet
448 832 m 1,0,-1
 448 896 l 1,1,-1
 320 896 l 1,2,-1
 320 832 l 1,3,-1
 256 832 l 1,4,-1
 256 896 l 1,5,-1
 64 896 l 1,6,-1
 64 832 l 1,7,-1
 0 832 l 1,8,-1
 0 768 l 1,9,-1
 128 768 l 1,10,-1
 128 832 l 1,11,-1
 192 832 l 1,12,-1
 192 768 l 1,13,-1
 384 768 l 1,14,-1
 384 832 l 1,15,-1
 448 832 l 1,0,-1
0 704 m 1,16,-1
 0 128 l 1,17,-1
 128 128 l 1,18,-1
 128 448 l 1,19,-1
 192 448 l 1,20,-1
 192 384 l 1,21,-1
 256 384 l 1,22,-1
 256 320 l 1,23,-1
 320 320 l 1,24,-1
 320 128 l 1,25,-1
 448 128 l 1,26,-1
 448 704 l 1,27,-1
 320 704 l 1,28,-1
 320 512 l 1,29,-1
 256 512 l 1,30,-1
 256 576 l 1,31,-1
 192 576 l 1,32,-1
 192 640 l 1,33,-1
 128 640 l 1,34,-1
 128 704 l 1,35,-1
 0 704 l 1,16,-1
EndSplineSet
Validated: 9
EndChar

StartChar: Ograve
Encoding: 210 210 180
Width: 512
Flags: W
LayerCount: 2
Fore
SplineSet
256 768 m 1,0,-1
 256 832 l 1,1,-1
 192 832 l 1,2,-1
 192 896 l 1,3,-1
 64 896 l 1,4,-1
 64 832 l 1,5,-1
 128 832 l 1,6,-1
 128 768 l 1,7,-1
 256 768 l 1,0,-1
64 192 m 1,8,-1
 64 128 l 1,9,-1
 384 128 l 1,10,-1
 384 192 l 1,11,-1
 448 192 l 1,12,-1
 448 640 l 1,13,-1
 384 640 l 1,14,-1
 384 704 l 1,15,-1
 64 704 l 1,16,-1
 64 640 l 1,17,-1
 0 640 l 1,18,-1
 0 192 l 1,19,-1
 64 192 l 1,8,-1
128 192 m 1,20,-1
 128 640 l 1,21,-1
 320 640 l 1,22,-1
 320 192 l 1,23,-1
 128 192 l 1,20,-1
EndSplineSet
Validated: 9
EndChar

StartChar: Oacute
Encoding: 211 211 181
Width: 512
Flags: W
LayerCount: 2
Fore
SplineSet
384 832 m 1,0,-1
 384 896 l 1,1,-1
 256 896 l 1,2,-1
 256 832 l 1,3,-1
 192 832 l 1,4,-1
 192 768 l 1,5,-1
 320 768 l 1,6,-1
 320 832 l 1,7,-1
 384 832 l 1,0,-1
64 192 m 1,8,-1
 64 128 l 1,9,-1
 384 128 l 1,10,-1
 384 192 l 1,11,-1
 448 192 l 1,12,-1
 448 640 l 1,13,-1
 384 640 l 1,14,-1
 384 704 l 1,15,-1
 64 704 l 1,16,-1
 64 640 l 1,17,-1
 0 640 l 1,18,-1
 0 192 l 1,19,-1
 64 192 l 1,8,-1
128 192 m 1,20,-1
 128 640 l 1,21,-1
 320 640 l 1,22,-1
 320 192 l 1,23,-1
 128 192 l 1,20,-1
EndSplineSet
Validated: 9
EndChar

StartChar: Ocircumflex
Encoding: 212 212 182
Width: 512
Flags: W
LayerCount: 2
Fore
SplineSet
64 192 m 1,0,-1
 64 128 l 1,1,-1
 384 128 l 1,2,-1
 384 192 l 1,3,-1
 448 192 l 1,4,-1
 448 640 l 1,5,-1
 384 640 l 1,6,7
 384 640 384 640 384 768 c 1,8,-1
 320 768 l 1,9,-1
 320 704 l 1,10,-1
 128 704 l 1,11,-1
 128 768 l 1,12,-1
 64 768 l 1,13,14
 64 768 64 768 64 640 c 1,15,-1
 0 640 l 1,16,-1
 0 192 l 1,17,-1
 64 192 l 1,0,-1
128 192 m 1,18,-1
 128 640 l 1,19,-1
 320 640 l 1,20,-1
 320 192 l 1,21,-1
 128 192 l 1,18,-1
128 768 m 1,22,-1
 320 768 l 1,23,-1
 320 832 l 1,24,-1
 256 832 l 1,25,-1
 256 896 l 1,26,-1
 192 896 l 1,27,-1
 192 832 l 1,28,-1
 128 832 l 1,29,-1
 128 768 l 1,22,-1
EndSplineSet
Validated: 5
EndChar

StartChar: Otilde
Encoding: 213 213 183
Width: 512
Flags: W
LayerCount: 2
Fore
SplineSet
448 832 m 1,0,-1
 448 896 l 1,1,-1
 320 896 l 1,2,-1
 320 832 l 1,3,-1
 256 832 l 1,4,-1
 256 896 l 1,5,-1
 64 896 l 1,6,-1
 64 832 l 1,7,-1
 0 832 l 1,8,-1
 0 768 l 1,9,-1
 128 768 l 1,10,-1
 128 832 l 1,11,-1
 192 832 l 1,12,-1
 192 768 l 1,13,-1
 384 768 l 1,14,-1
 384 832 l 1,15,-1
 448 832 l 1,0,-1
64 192 m 1,16,-1
 64 128 l 1,17,-1
 384 128 l 1,18,-1
 384 192 l 1,19,-1
 448 192 l 1,20,-1
 448 640 l 1,21,-1
 384 640 l 1,22,-1
 384 704 l 1,23,-1
 64 704 l 1,24,-1
 64 640 l 1,25,-1
 0 640 l 1,26,-1
 0 192 l 1,27,-1
 64 192 l 1,16,-1
128 192 m 1,28,-1
 128 640 l 1,29,-1
 320 640 l 1,30,-1
 320 192 l 1,31,-1
 128 192 l 1,28,-1
EndSplineSet
Validated: 9
EndChar

StartChar: Odieresis
Encoding: 214 214 184
Width: 512
Flags: W
LayerCount: 2
Fore
SplineSet
64 192 m 1,0,-1
 64 128 l 1,1,-1
 384 128 l 1,2,-1
 384 192 l 1,3,-1
 448 192 l 1,4,-1
 448 640 l 1,5,-1
 384 640 l 1,6,-1
 384 704 l 1,7,-1
 64 704 l 1,8,-1
 64 640 l 1,9,-1
 0 640 l 1,10,-1
 0 192 l 1,11,-1
 64 192 l 1,0,-1
128 192 m 1,12,-1
 128 640 l 1,13,-1
 320 640 l 1,14,-1
 320 192 l 1,15,-1
 128 192 l 1,12,-1
64 896 m 1,16,17
 64 896 64 896 64 768 c 1,18,-1
 192 768 l 1,19,20
 192 768 192 768 192 896 c 1,21,-1
 64 896 l 1,16,17
256 896 m 1,22,23
 256 896 256 896 256 768 c 1,24,-1
 384 768 l 1,25,26
 384 768 384 768 384 896 c 1,27,-1
 256 896 l 1,22,23
EndSplineSet
Validated: 9
EndChar

StartChar: multiply
Encoding: 215 215 185
Width: 512
Flags: W
LayerCount: 2
Fore
SplineSet
448 256 m 1,0,-1
 448 320 l 1,1,-1
 384 320 l 1,2,-1
 384 384 l 1,3,-1
 320 384 l 1,4,-1
 320 448 l 1,5,-1
 384 448 l 1,6,-1
 384 512 l 1,7,-1
 448 512 l 1,8,-1
 448 576 l 1,9,-1
 320 576 l 1,10,-1
 320 512 l 1,11,-1
 192 512 l 1,12,-1
 192 576 l 1,13,-1
 64 576 l 1,14,-1
 64 512 l 1,15,-1
 128 512 l 1,16,-1
 128 448 l 1,17,-1
 192 448 l 1,18,-1
 192 384 l 1,19,-1
 128 384 l 1,20,-1
 128 320 l 1,21,-1
 64 320 l 1,22,-1
 64 256 l 1,23,-1
 192 256 l 1,24,-1
 192 320 l 1,25,-1
 320 320 l 1,26,-1
 320 256 l 1,27,-1
 448 256 l 1,0,-1
EndSplineSet
Validated: 9
EndChar

StartChar: Oslash
Encoding: 216 216 186
Width: 512
Flags: W
LayerCount: 2
Fore
SplineSet
448 704 m 1,0,-1
 448 768 l 1,1,-1
 384 768 l 1,2,-1
 384 704 l 1,3,-1
 320 704 l 1,4,-1
 320 640 l 1,5,-1
 256 640 l 1,6,7
 256 640 256 640 256 512 c 1,8,-1
 192 512 l 1,9,10
 192 512 192 512 192 384 c 1,11,-1
 128 384 l 1,12,-1
 128 704 l 1,13,-1
 320 704 l 1,14,-1
 320 768 l 1,15,-1
 64 768 l 1,16,-1
 64 704 l 1,17,-1
 0 704 l 1,18,-1
 0 256 l 1,19,-1
 64 256 l 1,20,-1
 64 192 l 1,21,-1
 0 192 l 1,22,-1
 0 128 l 1,23,-1
 64 128 l 1,24,-1
 64 192 l 1,25,-1
 128 192 l 1,26,-1
 128 128 l 1,27,-1
 384 128 l 1,28,-1
 384 192 l 1,29,-1
 448 192 l 1,30,-1
 448 640 l 1,31,-1
 384 640 l 1,32,-1
 384 704 l 1,33,-1
 448 704 l 1,0,-1
128 192 m 1,34,-1
 128 256 l 1,35,-1
 192 256 l 1,36,37
 192 256 192 256 192 384 c 1,38,-1
 256 384 l 1,39,40
 256 384 256 384 256 512 c 1,41,-1
 320 512 l 1,42,-1
 320 192 l 1,43,-1
 128 192 l 1,34,-1
EndSplineSet
Validated: 5
EndChar

StartChar: Ugrave
Encoding: 217 217 187
Width: 512
Flags: W
LayerCount: 2
Fore
SplineSet
256 768 m 1,0,-1
 256 832 l 1,1,-1
 192 832 l 1,2,-1
 192 896 l 1,3,-1
 64 896 l 1,4,-1
 64 832 l 1,5,-1
 128 832 l 1,6,-1
 128 768 l 1,7,-1
 256 768 l 1,0,-1
64 192 m 1,8,-1
 64 128 l 1,9,-1
 384 128 l 1,10,-1
 384 192 l 1,11,-1
 448 192 l 1,12,13
 448 192 448 192 448 704 c 1,14,-1
 320 704 l 1,15,16
 320 704 320 704 320 192 c 1,17,-1
 128 192 l 1,18,19
 128 192 128 192 128 704 c 1,20,-1
 0 704 l 1,21,22
 0 704 0 704 0 192 c 1,23,-1
 64 192 l 1,8,-1
EndSplineSet
Validated: 9
EndChar

StartChar: Uacute
Encoding: 218 218 188
Width: 512
Flags: W
LayerCount: 2
Fore
SplineSet
384 832 m 1,0,-1
 384 896 l 1,1,-1
 256 896 l 1,2,-1
 256 832 l 1,3,-1
 192 832 l 1,4,-1
 192 768 l 1,5,-1
 320 768 l 1,6,-1
 320 832 l 1,7,-1
 384 832 l 1,0,-1
64 192 m 1,8,-1
 64 128 l 1,9,-1
 384 128 l 1,10,-1
 384 192 l 1,11,-1
 448 192 l 1,12,13
 448 192 448 192 448 704 c 1,14,-1
 320 704 l 1,15,16
 320 704 320 704 320 192 c 1,17,-1
 128 192 l 1,18,19
 128 192 128 192 128 704 c 1,20,-1
 0 704 l 1,21,22
 0 704 0 704 0 192 c 1,23,-1
 64 192 l 1,8,-1
EndSplineSet
Validated: 9
EndChar

StartChar: Ucircumflex
Encoding: 219 219 189
Width: 512
Flags: W
LayerCount: 2
Fore
SplineSet
64 192 m 1,0,-1
 64 128 l 1,1,-1
 384 128 l 1,2,-1
 384 192 l 1,3,-1
 448 192 l 1,4,5
 448 192 448 192 448 704 c 1,6,-1
 384 704 l 1,7,-1
 384 768 l 1,8,-1
 320 768 l 1,9,-1
 320 192 l 1,10,-1
 128 192 l 1,11,-1
 128 768 l 1,12,-1
 64 768 l 1,13,-1
 64 704 l 1,14,-1
 0 704 l 1,15,16
 0 704 0 704 0 192 c 1,17,-1
 64 192 l 1,0,-1
128 768 m 1,18,-1
 320 768 l 1,19,-1
 320 832 l 1,20,-1
 256 832 l 1,21,-1
 256 896 l 1,22,-1
 192 896 l 1,23,-1
 192 832 l 1,24,-1
 128 832 l 1,25,-1
 128 768 l 1,18,-1
EndSplineSet
Validated: 5
EndChar

StartChar: Udieresis
Encoding: 220 220 190
Width: 512
Flags: W
LayerCount: 2
Fore
SplineSet
64 192 m 1,0,-1
 64 128 l 1,1,-1
 384 128 l 1,2,-1
 384 192 l 1,3,-1
 448 192 l 1,4,5
 448 192 448 192 448 704 c 1,6,-1
 320 704 l 1,7,8
 320 704 320 704 320 192 c 1,9,-1
 128 192 l 1,10,11
 128 192 128 192 128 704 c 1,12,-1
 0 704 l 1,13,14
 0 704 0 704 0 192 c 1,15,-1
 64 192 l 1,0,-1
64 896 m 1,16,17
 64 896 64 896 64 768 c 1,18,-1
 192 768 l 1,19,20
 192 768 192 768 192 896 c 1,21,-1
 64 896 l 1,16,17
256 896 m 1,22,23
 256 896 256 896 256 768 c 1,24,-1
 384 768 l 1,25,26
 384 768 384 768 384 896 c 1,27,-1
 256 896 l 1,22,23
EndSplineSet
Validated: 9
EndChar

StartChar: Yacute
Encoding: 221 221 191
Width: 512
Flags: W
LayerCount: 2
Fore
SplineSet
384 128 m 1,0,-1
 384 192 l 1,1,-1
 320 192 l 1,2,3
 320 192 320 192 320 448 c 1,4,-1
 384 448 l 1,5,-1
 384 512 l 1,6,-1
 448 512 l 1,7,-1
 448 704 l 1,8,-1
 320 704 l 1,9,-1
 320 512 l 1,10,-1
 192 512 l 1,11,-1
 192 704 l 1,12,-1
 64 704 l 1,13,-1
 64 512 l 1,14,-1
 128 512 l 1,15,-1
 128 448 l 1,16,-1
 192 448 l 1,17,18
 192 448 192 448 192 192 c 1,19,-1
 128 192 l 1,20,-1
 128 128 l 1,21,-1
 384 128 l 1,0,-1
384 832 m 1,22,-1
 384 896 l 1,23,-1
 256 896 l 1,24,-1
 256 832 l 1,25,-1
 192 832 l 1,26,-1
 192 768 l 1,27,-1
 320 768 l 1,28,-1
 320 832 l 1,29,-1
 384 832 l 1,22,-1
EndSplineSet
Validated: 9
EndChar

StartChar: Thorn
Encoding: 222 222 192
Width: 512
Flags: W
LayerCount: 2
Fore
SplineSet
256 128 m 1,0,-1
 256 192 l 1,1,-1
 192 192 l 1,2,-1
 192 256 l 1,3,-1
 384 256 l 1,4,-1
 384 320 l 1,5,-1
 448 320 l 1,6,7
 448 320 448 320 448 576 c 1,8,-1
 384 576 l 1,9,-1
 384 640 l 1,10,-1
 192 640 l 1,11,-1
 192 704 l 1,12,-1
 256 704 l 1,13,-1
 256 768 l 1,14,-1
 0 768 l 1,15,-1
 0 704 l 1,16,-1
 64 704 l 1,17,18
 64 704 64 704 64 192 c 1,19,-1
 0 192 l 1,20,-1
 0 128 l 1,21,-1
 256 128 l 1,0,-1
192 320 m 1,22,23
 192 320 192 320 192 576 c 1,24,-1
 320 576 l 1,25,26
 320 576 320 576 320 320 c 1,27,-1
 192 320 l 1,22,23
EndSplineSet
Validated: 9
EndChar

StartChar: germandbls
Encoding: 223 223 193
Width: 512
Flags: W
LayerCount: 2
Fore
SplineSet
64 192 m 1,0,-1
 0 192 l 1,1,-1
 0 128 l 1,2,-1
 192 128 l 1,3,-1
 192 704 l 1,4,-1
 320 704 l 1,5,-1
 320 512 l 1,6,-1
 256 512 l 1,7,-1
 256 448 l 1,8,-1
 320 448 l 1,9,10
 320 448 320 448 320 192 c 1,11,-1
 256 192 l 1,12,-1
 256 128 l 1,13,-1
 384 128 l 1,14,-1
 384 192 l 1,15,-1
 448 192 l 1,16,17
 448 192 448 192 448 448 c 1,18,-1
 384 448 l 1,19,-1
 384 512 l 1,20,-1
 448 512 l 1,21,-1
 448 704 l 1,22,-1
 384 704 l 1,23,-1
 384 768 l 1,24,-1
 128 768 l 1,25,-1
 128 704 l 1,26,-1
 64 704 l 1,27,28
 64 704 64 704 64 192 c 1,0,-1
EndSplineSet
Validated: 9
EndChar

StartChar: agrave
Encoding: 224 224 194
Width: 512
Flags: W
LayerCount: 2
Fore
SplineSet
448 128 m 1,0,-1
 448 192 l 1,1,-1
 384 192 l 1,2,-1
 384 512 l 1,3,-1
 320 512 l 1,4,-1
 320 576 l 1,5,-1
 64 576 l 1,6,-1
 64 512 l 1,7,-1
 256 512 l 1,8,-1
 256 448 l 1,9,-1
 64 448 l 1,10,-1
 64 384 l 1,11,-1
 0 384 l 1,12,-1
 0 192 l 1,13,-1
 64 192 l 1,14,-1
 64 128 l 1,15,-1
 256 128 l 1,16,-1
 256 192 l 1,17,-1
 128 192 l 1,18,-1
 128 384 l 1,19,-1
 256 384 l 1,20,-1
 256 192 l 1,21,-1
 320 192 l 1,22,-1
 320 128 l 1,23,-1
 448 128 l 1,0,-1
256 640 m 1,24,-1
 256 704 l 1,25,-1
 192 704 l 1,26,-1
 192 768 l 1,27,-1
 64 768 l 1,28,-1
 64 704 l 1,29,-1
 128 704 l 1,30,-1
 128 640 l 1,31,-1
 256 640 l 1,24,-1
EndSplineSet
Validated: 5
EndChar

StartChar: aacute
Encoding: 225 225 195
Width: 512
Flags: W
LayerCount: 2
Fore
SplineSet
448 128 m 1,0,-1
 448 192 l 1,1,-1
 384 192 l 1,2,-1
 384 512 l 1,3,-1
 320 512 l 1,4,-1
 320 576 l 1,5,-1
 64 576 l 1,6,-1
 64 512 l 1,7,-1
 256 512 l 1,8,-1
 256 448 l 1,9,-1
 64 448 l 1,10,-1
 64 384 l 1,11,-1
 0 384 l 1,12,-1
 0 192 l 1,13,-1
 64 192 l 1,14,-1
 64 128 l 1,15,-1
 256 128 l 1,16,-1
 256 192 l 1,17,-1
 128 192 l 1,18,-1
 128 384 l 1,19,-1
 256 384 l 1,20,-1
 256 192 l 1,21,-1
 320 192 l 1,22,-1
 320 128 l 1,23,-1
 448 128 l 1,0,-1
320 704 m 1,24,-1
 320 768 l 1,25,-1
 192 768 l 1,26,-1
 192 704 l 1,27,-1
 128 704 l 1,28,-1
 128 640 l 1,29,-1
 256 640 l 1,30,-1
 256 704 l 1,31,-1
 320 704 l 1,24,-1
EndSplineSet
Validated: 5
EndChar

StartChar: acircumflex
Encoding: 226 226 196
Width: 512
Flags: W
LayerCount: 2
Fore
SplineSet
448 128 m 1,0,-1
 448 192 l 1,1,-1
 384 192 l 1,2,-1
 384 512 l 1,3,-1
 320 512 l 1,4,-1
 320 576 l 1,5,-1
 64 576 l 1,6,-1
 64 512 l 1,7,-1
 256 512 l 1,8,-1
 256 448 l 1,9,-1
 64 448 l 1,10,-1
 64 384 l 1,11,-1
 0 384 l 1,12,-1
 0 192 l 1,13,-1
 64 192 l 1,14,-1
 64 128 l 1,15,-1
 256 128 l 1,16,-1
 256 192 l 1,17,-1
 128 192 l 1,18,-1
 128 384 l 1,19,-1
 256 384 l 1,20,-1
 256 192 l 1,21,-1
 320 192 l 1,22,-1
 320 128 l 1,23,-1
 448 128 l 1,0,-1
384 640 m 1,24,-1
 384 704 l 1,25,-1
 320 704 l 1,26,-1
 320 768 l 1,27,-1
 256 768 l 1,28,-1
 256 832 l 1,29,-1
 192 832 l 1,30,-1
 192 768 l 1,31,-1
 128 768 l 1,32,-1
 128 704 l 1,33,-1
 64 704 l 1,34,-1
 64 640 l 1,35,-1
 192 640 l 1,36,-1
 192 704 l 1,37,-1
 256 704 l 1,38,-1
 256 640 l 1,39,-1
 384 640 l 1,24,-1
EndSplineSet
Validated: 5
EndChar

StartChar: atilde
Encoding: 227 227 197
Width: 512
Flags: W
LayerCount: 2
Fore
SplineSet
448 128 m 1,0,-1
 448 192 l 1,1,-1
 384 192 l 1,2,-1
 384 512 l 1,3,-1
 320 512 l 1,4,-1
 320 576 l 1,5,-1
 64 576 l 1,6,-1
 64 512 l 1,7,-1
 256 512 l 1,8,-1
 256 448 l 1,9,-1
 64 448 l 1,10,-1
 64 384 l 1,11,-1
 0 384 l 1,12,-1
 0 192 l 1,13,-1
 64 192 l 1,14,-1
 64 128 l 1,15,-1
 256 128 l 1,16,-1
 256 192 l 1,17,-1
 128 192 l 1,18,-1
 128 384 l 1,19,-1
 256 384 l 1,20,-1
 256 192 l 1,21,-1
 320 192 l 1,22,-1
 320 128 l 1,23,-1
 448 128 l 1,0,-1
448 704 m 1,24,-1
 448 768 l 1,25,-1
 320 768 l 1,26,-1
 320 704 l 1,27,-1
 256 704 l 1,28,-1
 256 768 l 1,29,-1
 64 768 l 1,30,-1
 64 704 l 1,31,-1
 0 704 l 1,32,-1
 0 640 l 1,33,-1
 128 640 l 1,34,-1
 128 704 l 1,35,-1
 192 704 l 1,36,-1
 192 640 l 1,37,-1
 384 640 l 1,38,-1
 384 704 l 1,39,-1
 448 704 l 1,24,-1
EndSplineSet
Validated: 5
EndChar

StartChar: adieresis
Encoding: 228 228 198
Width: 512
Flags: W
LayerCount: 2
Fore
SplineSet
448 128 m 1,0,-1
 448 192 l 1,1,-1
 384 192 l 1,2,-1
 384 512 l 1,3,-1
 320 512 l 1,4,-1
 320 576 l 1,5,-1
 64 576 l 1,6,-1
 64 512 l 1,7,-1
 256 512 l 1,8,-1
 256 448 l 1,9,-1
 64 448 l 1,10,-1
 64 384 l 1,11,-1
 0 384 l 1,12,-1
 0 192 l 1,13,-1
 64 192 l 1,14,-1
 64 128 l 1,15,-1
 256 128 l 1,16,-1
 256 192 l 1,17,-1
 128 192 l 1,18,-1
 128 384 l 1,19,-1
 256 384 l 1,20,-1
 256 192 l 1,21,-1
 320 192 l 1,22,-1
 320 128 l 1,23,-1
 448 128 l 1,0,-1
64 768 m 1,24,25
 64 768 64 768 64 640 c 1,26,-1
 192 640 l 1,27,28
 192 640 192 640 192 768 c 1,29,-1
 64 768 l 1,24,25
256 768 m 1,30,31
 256 768 256 768 256 640 c 1,32,-1
 384 640 l 1,33,34
 384 640 384 640 384 768 c 1,35,-1
 256 768 l 1,30,31
EndSplineSet
Validated: 5
EndChar

StartChar: aring
Encoding: 229 229 199
Width: 512
Flags: W
LayerCount: 2
Fore
SplineSet
448 128 m 1,0,-1
 448 192 l 1,1,-1
 384 192 l 1,2,-1
 384 512 l 1,3,-1
 320 512 l 1,4,-1
 320 576 l 1,5,-1
 64 576 l 1,6,-1
 64 512 l 1,7,-1
 256 512 l 1,8,-1
 256 448 l 1,9,-1
 64 448 l 1,10,-1
 64 384 l 1,11,-1
 0 384 l 1,12,-1
 0 192 l 1,13,-1
 64 192 l 1,14,-1
 64 128 l 1,15,-1
 256 128 l 1,16,-1
 256 192 l 1,17,-1
 128 192 l 1,18,-1
 128 384 l 1,19,-1
 256 384 l 1,20,-1
 256 192 l 1,21,-1
 320 192 l 1,22,-1
 320 128 l 1,23,-1
 448 128 l 1,0,-1
384 704 m 1,24,-1
 384 768 l 1,25,-1
 320 768 l 1,26,-1
 320 832 l 1,27,-1
 128 832 l 1,28,-1
 128 768 l 1,29,-1
 64 768 l 1,30,-1
 64 704 l 1,31,-1
 128 704 l 1,32,-1
 128 640 l 1,33,-1
 320 640 l 1,34,-1
 320 704 l 1,35,-1
 384 704 l 1,24,-1
192 704 m 1,36,-1
 192 768 l 1,37,-1
 256 768 l 1,38,-1
 256 704 l 1,39,-1
 192 704 l 1,36,-1
EndSplineSet
Validated: 5
EndChar

StartChar: ae
Encoding: 230 230 200
Width: 512
Flags: W
LayerCount: 2
Fore
SplineSet
448 128 m 1,0,-1
 448 192 l 1,1,-1
 320 192 l 1,2,3
 320 192 320 192 320 320 c 1,4,-1
 448 320 l 1,5,-1
 448 512 l 1,6,-1
 384 512 l 1,7,-1
 384 576 l 1,8,-1
 256 576 l 1,9,-1
 256 512 l 1,10,-1
 128 512 l 1,11,-1
 128 576 l 1,12,-1
 0 576 l 1,13,-1
 0 512 l 1,14,-1
 64 512 l 1,15,-1
 64 448 l 1,16,-1
 128 448 l 1,17,-1
 128 384 l 1,18,-1
 64 384 l 1,19,-1
 64 320 l 1,20,-1
 0 320 l 1,21,22
 0 320 0 320 0 192 c 1,23,-1
 64 192 l 1,24,-1
 64 128 l 1,25,-1
 192 128 l 1,26,-1
 192 192 l 1,27,-1
 128 192 l 1,28,29
 128 192 128 192 128 320 c 1,30,-1
 192 320 l 1,31,32
 192 320 192 320 192 192 c 1,33,-1
 256 192 l 1,34,-1
 256 128 l 1,35,-1
 448 128 l 1,0,-1
256 384 m 1,36,37
 256 384 256 384 256 512 c 1,38,-1
 320 512 l 1,39,40
 320 512 320 512 320 384 c 1,41,-1
 256 384 l 1,36,37
EndSplineSet
Validated: 5
EndChar

StartChar: ccedilla
Encoding: 231 231 201
Width: 512
Flags: W
LayerCount: 2
Fore
SplineSet
384 0 m 1,0,-1
 384 64 l 1,1,-1
 320 64 l 1,2,-1
 320 128 l 1,3,-1
 384 128 l 1,4,-1
 384 192 l 1,5,-1
 448 192 l 1,6,-1
 448 256 l 1,7,-1
 320 256 l 1,8,-1
 320 192 l 1,9,-1
 128 192 l 1,10,-1
 128 512 l 1,11,-1
 320 512 l 1,12,-1
 320 448 l 1,13,-1
 448 448 l 1,14,-1
 448 512 l 1,15,-1
 384 512 l 1,16,-1
 384 576 l 1,17,-1
 64 576 l 1,18,-1
 64 512 l 1,19,-1
 0 512 l 1,20,-1
 0 192 l 1,21,-1
 64 192 l 1,22,-1
 64 128 l 1,23,-1
 192 128 l 1,24,-1
 192 64 l 1,25,-1
 256 64 l 1,26,-1
 256 0 l 1,27,-1
 128 0 l 1,28,-1
 128 -64 l 1,29,-1
 320 -64 l 1,30,-1
 320 0 l 1,31,-1
 384 0 l 1,0,-1
EndSplineSet
Validated: 9
EndChar

StartChar: egrave
Encoding: 232 232 202
Width: 512
Flags: W
LayerCount: 2
Fore
SplineSet
448 192 m 1,0,-1
 448 256 l 1,1,-1
 320 256 l 1,2,-1
 320 192 l 1,3,-1
 128 192 l 1,4,-1
 128 384 l 1,5,-1
 448 384 l 1,6,7
 448 384 448 384 448 512 c 1,8,-1
 384 512 l 1,9,-1
 384 576 l 1,10,-1
 64 576 l 1,11,-1
 64 512 l 1,12,-1
 0 512 l 1,13,-1
 0 192 l 1,14,-1
 64 192 l 1,15,-1
 64 128 l 1,16,-1
 384 128 l 1,17,-1
 384 192 l 1,18,-1
 448 192 l 1,0,-1
256 640 m 1,19,-1
 256 704 l 1,20,-1
 192 704 l 1,21,-1
 192 768 l 1,22,-1
 64 768 l 1,23,-1
 64 704 l 1,24,-1
 128 704 l 1,25,-1
 128 640 l 1,26,-1
 256 640 l 1,19,-1
128 448 m 1,27,-1
 128 512 l 1,28,-1
 320 512 l 1,29,-1
 320 448 l 1,30,-1
 128 448 l 1,27,-1
EndSplineSet
Validated: 9
EndChar

StartChar: eacute
Encoding: 233 233 203
Width: 512
Flags: W
LayerCount: 2
Fore
SplineSet
448 192 m 1,0,-1
 448 256 l 1,1,-1
 320 256 l 1,2,-1
 320 192 l 1,3,-1
 128 192 l 1,4,-1
 128 384 l 1,5,-1
 448 384 l 1,6,7
 448 384 448 384 448 512 c 1,8,-1
 384 512 l 1,9,-1
 384 576 l 1,10,-1
 64 576 l 1,11,-1
 64 512 l 1,12,-1
 0 512 l 1,13,-1
 0 192 l 1,14,-1
 64 192 l 1,15,-1
 64 128 l 1,16,-1
 384 128 l 1,17,-1
 384 192 l 1,18,-1
 448 192 l 1,0,-1
384 704 m 1,19,-1
 384 768 l 1,20,-1
 256 768 l 1,21,-1
 256 704 l 1,22,-1
 192 704 l 1,23,-1
 192 640 l 1,24,-1
 320 640 l 1,25,-1
 320 704 l 1,26,-1
 384 704 l 1,19,-1
128 448 m 1,27,-1
 128 512 l 1,28,-1
 320 512 l 1,29,-1
 320 448 l 1,30,-1
 128 448 l 1,27,-1
EndSplineSet
Validated: 9
EndChar

StartChar: ecircumflex
Encoding: 234 234 204
Width: 512
Flags: W
LayerCount: 2
Fore
SplineSet
448 192 m 1,0,-1
 448 256 l 1,1,-1
 320 256 l 1,2,-1
 320 192 l 1,3,-1
 128 192 l 1,4,-1
 128 384 l 1,5,-1
 448 384 l 1,6,7
 448 384 448 384 448 512 c 1,8,-1
 384 512 l 1,9,-1
 384 576 l 1,10,-1
 64 576 l 1,11,-1
 64 512 l 1,12,-1
 0 512 l 1,13,-1
 0 192 l 1,14,-1
 64 192 l 1,15,-1
 64 128 l 1,16,-1
 384 128 l 1,17,-1
 384 192 l 1,18,-1
 448 192 l 1,0,-1
384 640 m 1,19,-1
 384 704 l 1,20,-1
 320 704 l 1,21,-1
 320 768 l 1,22,-1
 256 768 l 1,23,-1
 256 832 l 1,24,-1
 192 832 l 1,25,-1
 192 768 l 1,26,-1
 128 768 l 1,27,-1
 128 704 l 1,28,-1
 64 704 l 1,29,-1
 64 640 l 1,30,-1
 192 640 l 1,31,-1
 192 704 l 1,32,-1
 256 704 l 1,33,-1
 256 640 l 1,34,-1
 384 640 l 1,19,-1
128 448 m 1,35,-1
 128 512 l 1,36,-1
 320 512 l 1,37,-1
 320 448 l 1,38,-1
 128 448 l 1,35,-1
EndSplineSet
Validated: 9
EndChar

StartChar: edieresis
Encoding: 235 235 205
Width: 512
Flags: W
LayerCount: 2
Fore
SplineSet
448 192 m 1,0,-1
 448 256 l 1,1,-1
 320 256 l 1,2,-1
 320 192 l 1,3,-1
 128 192 l 1,4,-1
 128 384 l 1,5,-1
 448 384 l 1,6,7
 448 384 448 384 448 512 c 1,8,-1
 384 512 l 1,9,-1
 384 576 l 1,10,-1
 64 576 l 1,11,-1
 64 512 l 1,12,-1
 0 512 l 1,13,-1
 0 192 l 1,14,-1
 64 192 l 1,15,-1
 64 128 l 1,16,-1
 384 128 l 1,17,-1
 384 192 l 1,18,-1
 448 192 l 1,0,-1
128 448 m 1,19,-1
 128 512 l 1,20,-1
 320 512 l 1,21,-1
 320 448 l 1,22,-1
 128 448 l 1,19,-1
64 768 m 1,23,24
 64 768 64 768 64 640 c 1,25,-1
 192 640 l 1,26,27
 192 640 192 640 192 768 c 1,28,-1
 64 768 l 1,23,24
256 768 m 1,29,30
 256 768 256 768 256 640 c 1,31,-1
 384 640 l 1,32,33
 384 640 384 640 384 768 c 1,34,-1
 256 768 l 1,29,30
EndSplineSet
Validated: 9
EndChar

StartChar: igrave
Encoding: 236 236 206
Width: 512
Flags: W
LayerCount: 2
Fore
SplineSet
384 128 m 1,0,-1
 384 192 l 1,1,-1
 320 192 l 1,2,3
 320 192 320 192 320 576 c 1,4,-1
 128 576 l 1,5,-1
 128 512 l 1,6,-1
 192 512 l 1,7,-1
 192 192 l 1,8,-1
 128 192 l 1,9,-1
 128 128 l 1,10,-1
 384 128 l 1,0,-1
320 640 m 1,11,-1
 320 704 l 1,12,-1
 256 704 l 1,13,-1
 256 768 l 1,14,-1
 128 768 l 1,15,-1
 128 704 l 1,16,-1
 192 704 l 1,17,-1
 192 640 l 1,18,-1
 320 640 l 1,11,-1
EndSplineSet
Validated: 9
EndChar

StartChar: iacute
Encoding: 237 237 207
Width: 512
Flags: W
LayerCount: 2
Fore
SplineSet
384 128 m 1,0,-1
 384 192 l 1,1,-1
 320 192 l 1,2,3
 320 192 320 192 320 576 c 1,4,-1
 128 576 l 1,5,-1
 128 512 l 1,6,-1
 192 512 l 1,7,-1
 192 192 l 1,8,-1
 128 192 l 1,9,-1
 128 128 l 1,10,-1
 384 128 l 1,0,-1
384 704 m 1,11,-1
 384 768 l 1,12,-1
 256 768 l 1,13,-1
 256 704 l 1,14,-1
 192 704 l 1,15,-1
 192 640 l 1,16,-1
 320 640 l 1,17,-1
 320 704 l 1,18,-1
 384 704 l 1,11,-1
EndSplineSet
Validated: 9
EndChar

StartChar: icircumflex
Encoding: 238 238 208
Width: 512
Flags: W
LayerCount: 2
Fore
SplineSet
384 128 m 1,0,-1
 384 192 l 1,1,-1
 320 192 l 1,2,3
 320 192 320 192 320 576 c 1,4,-1
 128 576 l 1,5,-1
 128 512 l 1,6,-1
 192 512 l 1,7,-1
 192 192 l 1,8,-1
 128 192 l 1,9,-1
 128 128 l 1,10,-1
 384 128 l 1,0,-1
384 640 m 1,11,-1
 384 704 l 1,12,-1
 320 704 l 1,13,-1
 320 768 l 1,14,-1
 256 768 l 1,15,-1
 256 832 l 1,16,-1
 192 832 l 1,17,-1
 192 768 l 1,18,-1
 128 768 l 1,19,-1
 128 704 l 1,20,-1
 64 704 l 1,21,-1
 64 640 l 1,22,-1
 192 640 l 1,23,-1
 192 704 l 1,24,-1
 256 704 l 1,25,-1
 256 640 l 1,26,-1
 384 640 l 1,11,-1
EndSplineSet
Validated: 9
EndChar

StartChar: idieresis
Encoding: 239 239 209
Width: 512
Flags: W
LayerCount: 2
Fore
SplineSet
384 128 m 1,0,-1
 384 192 l 1,1,-1
 320 192 l 1,2,3
 320 192 320 192 320 576 c 1,4,-1
 128 576 l 1,5,-1
 128 512 l 1,6,-1
 192 512 l 1,7,-1
 192 192 l 1,8,-1
 128 192 l 1,9,-1
 128 128 l 1,10,-1
 384 128 l 1,0,-1
64 768 m 1,11,12
 64 768 64 768 64 640 c 1,13,-1
 192 640 l 1,14,15
 192 640 192 640 192 768 c 1,16,-1
 64 768 l 1,11,12
320 768 m 1,17,18
 320 768 320 768 320 640 c 1,19,-1
 448 640 l 1,20,21
 448 640 448 640 448 768 c 1,22,-1
 320 768 l 1,17,18
EndSplineSet
Validated: 9
EndChar

StartChar: eth
Encoding: 240 240 210
Width: 512
Flags: W
LayerCount: 2
Fore
SplineSet
448 704 m 1,0,-1
 448 768 l 1,1,-1
 320 768 l 1,2,-1
 320 704 l 1,3,-1
 256 704 l 1,4,-1
 256 768 l 1,5,-1
 64 768 l 1,6,-1
 64 704 l 1,7,-1
 192 704 l 1,8,-1
 192 640 l 1,9,-1
 128 640 l 1,10,-1
 128 576 l 1,11,-1
 320 576 l 1,12,-1
 320 512 l 1,13,-1
 64 512 l 1,14,-1
 64 448 l 1,15,-1
 0 448 l 1,16,17
 0 448 0 448 0 192 c 1,18,-1
 64 192 l 1,19,-1
 64 128 l 1,20,-1
 384 128 l 1,21,-1
 384 192 l 1,22,-1
 448 192 l 1,23,24
 448 192 448 192 448 576 c 1,25,-1
 384 576 l 1,26,27
 384 576 384 576 384 704 c 1,28,-1
 448 704 l 1,0,-1
128 192 m 1,29,30
 128 192 128 192 128 448 c 1,31,-1
 320 448 l 1,32,33
 320 448 320 448 320 192 c 1,34,-1
 128 192 l 1,29,30
EndSplineSet
Validated: 9
EndChar

StartChar: ntilde
Encoding: 241 241 211
Width: 512
Flags: W
LayerCount: 2
Fore
SplineSet
448 704 m 1,0,-1
 448 768 l 1,1,-1
 320 768 l 1,2,-1
 320 704 l 1,3,-1
 256 704 l 1,4,-1
 256 768 l 1,5,-1
 64 768 l 1,6,-1
 64 704 l 1,7,-1
 0 704 l 1,8,-1
 0 640 l 1,9,-1
 128 640 l 1,10,-1
 128 704 l 1,11,-1
 192 704 l 1,12,-1
 192 640 l 1,13,-1
 384 640 l 1,14,-1
 384 704 l 1,15,-1
 448 704 l 1,0,-1
64 512 m 1,16,17
 64 512 64 512 64 128 c 1,18,-1
 192 128 l 1,19,20
 192 128 192 128 192 512 c 1,21,-1
 128 512 l 1,22,-1
 128 576 l 1,23,-1
 0 576 l 1,24,-1
 0 512 l 1,25,-1
 64 512 l 1,16,17
320 512 m 1,26,27
 320 512 320 512 320 128 c 1,28,-1
 448 128 l 1,29,30
 448 128 448 128 448 512 c 1,31,-1
 384 512 l 1,32,-1
 384 576 l 1,33,-1
 192 576 l 1,34,-1
 192 512 l 1,35,-1
 320 512 l 1,26,27
EndSplineSet
Validated: 5
EndChar

StartChar: ograve
Encoding: 242 242 212
Width: 512
Flags: W
LayerCount: 2
Fore
SplineSet
256 640 m 1,0,-1
 256 704 l 1,1,-1
 192 704 l 1,2,-1
 192 768 l 1,3,-1
 64 768 l 1,4,-1
 64 704 l 1,5,-1
 128 704 l 1,6,-1
 128 640 l 1,7,-1
 256 640 l 1,0,-1
64 192 m 1,8,-1
 64 128 l 1,9,-1
 384 128 l 1,10,-1
 384 192 l 1,11,-1
 448 192 l 1,12,-1
 448 512 l 1,13,-1
 384 512 l 1,14,-1
 384 576 l 1,15,-1
 64 576 l 1,16,-1
 64 512 l 1,17,-1
 0 512 l 1,18,-1
 0 192 l 1,19,-1
 64 192 l 1,8,-1
128 192 m 1,20,-1
 128 512 l 1,21,-1
 320 512 l 1,22,-1
 320 192 l 1,23,-1
 128 192 l 1,20,-1
EndSplineSet
Validated: 9
EndChar

StartChar: oacute
Encoding: 243 243 213
Width: 512
Flags: W
LayerCount: 2
Fore
SplineSet
384 704 m 1,0,-1
 384 768 l 1,1,-1
 256 768 l 1,2,-1
 256 704 l 1,3,-1
 192 704 l 1,4,-1
 192 640 l 1,5,-1
 320 640 l 1,6,-1
 320 704 l 1,7,-1
 384 704 l 1,0,-1
64 192 m 1,8,-1
 64 128 l 1,9,-1
 384 128 l 1,10,-1
 384 192 l 1,11,-1
 448 192 l 1,12,-1
 448 512 l 1,13,-1
 384 512 l 1,14,-1
 384 576 l 1,15,-1
 64 576 l 1,16,-1
 64 512 l 1,17,-1
 0 512 l 1,18,-1
 0 192 l 1,19,-1
 64 192 l 1,8,-1
128 192 m 1,20,-1
 128 512 l 1,21,-1
 320 512 l 1,22,-1
 320 192 l 1,23,-1
 128 192 l 1,20,-1
EndSplineSet
Validated: 9
EndChar

StartChar: ocircumflex
Encoding: 244 244 214
Width: 512
Flags: W
LayerCount: 2
Fore
SplineSet
384 640 m 1,0,-1
 384 704 l 1,1,-1
 320 704 l 1,2,-1
 320 768 l 1,3,-1
 256 768 l 1,4,-1
 256 832 l 1,5,-1
 192 832 l 1,6,-1
 192 768 l 1,7,-1
 128 768 l 1,8,-1
 128 704 l 1,9,-1
 64 704 l 1,10,-1
 64 640 l 1,11,-1
 192 640 l 1,12,-1
 192 704 l 1,13,-1
 256 704 l 1,14,-1
 256 640 l 1,15,-1
 384 640 l 1,0,-1
64 192 m 1,16,-1
 64 128 l 1,17,-1
 384 128 l 1,18,-1
 384 192 l 1,19,-1
 448 192 l 1,20,-1
 448 512 l 1,21,-1
 384 512 l 1,22,-1
 384 576 l 1,23,-1
 64 576 l 1,24,-1
 64 512 l 1,25,-1
 0 512 l 1,26,-1
 0 192 l 1,27,-1
 64 192 l 1,16,-1
128 192 m 1,28,-1
 128 512 l 1,29,-1
 320 512 l 1,30,-1
 320 192 l 1,31,-1
 128 192 l 1,28,-1
EndSplineSet
Validated: 9
EndChar

StartChar: otilde
Encoding: 245 245 215
Width: 512
Flags: W
LayerCount: 2
Fore
SplineSet
448 704 m 1,0,-1
 448 768 l 1,1,-1
 320 768 l 1,2,-1
 320 704 l 1,3,-1
 256 704 l 1,4,-1
 256 768 l 1,5,-1
 64 768 l 1,6,-1
 64 704 l 1,7,-1
 0 704 l 1,8,-1
 0 640 l 1,9,-1
 128 640 l 1,10,-1
 128 704 l 1,11,-1
 192 704 l 1,12,-1
 192 640 l 1,13,-1
 384 640 l 1,14,-1
 384 704 l 1,15,-1
 448 704 l 1,0,-1
64 192 m 1,16,-1
 64 128 l 1,17,-1
 384 128 l 1,18,-1
 384 192 l 1,19,-1
 448 192 l 1,20,-1
 448 512 l 1,21,-1
 384 512 l 1,22,-1
 384 576 l 1,23,-1
 64 576 l 1,24,-1
 64 512 l 1,25,-1
 0 512 l 1,26,-1
 0 192 l 1,27,-1
 64 192 l 1,16,-1
128 192 m 1,28,-1
 128 512 l 1,29,-1
 320 512 l 1,30,-1
 320 192 l 1,31,-1
 128 192 l 1,28,-1
EndSplineSet
Validated: 9
EndChar

StartChar: odieresis
Encoding: 246 246 216
Width: 512
Flags: W
LayerCount: 2
Fore
SplineSet
64 192 m 1,0,-1
 64 128 l 1,1,-1
 384 128 l 1,2,-1
 384 192 l 1,3,-1
 448 192 l 1,4,-1
 448 512 l 1,5,-1
 384 512 l 1,6,-1
 384 576 l 1,7,-1
 64 576 l 1,8,-1
 64 512 l 1,9,-1
 0 512 l 1,10,-1
 0 192 l 1,11,-1
 64 192 l 1,0,-1
128 192 m 1,12,-1
 128 512 l 1,13,-1
 320 512 l 1,14,-1
 320 192 l 1,15,-1
 128 192 l 1,12,-1
64 768 m 1,16,17
 64 768 64 768 64 640 c 1,18,-1
 192 640 l 1,19,20
 192 640 192 640 192 768 c 1,21,-1
 64 768 l 1,16,17
256 768 m 1,22,23
 256 768 256 768 256 640 c 1,24,-1
 384 640 l 1,25,26
 384 640 384 640 384 768 c 1,27,-1
 256 768 l 1,22,23
EndSplineSet
Validated: 9
EndChar

StartChar: divide
Encoding: 247 247 217
Width: 512
Flags: W
LayerCount: 2
Fore
SplineSet
448 384 m 1,0,-1
 448 448 l 1,1,-1
 64 448 l 1,2,-1
 64 384 l 1,3,-1
 448 384 l 1,0,-1
192 320 m 1,4,5
 192 320 192 320 192 192 c 1,6,-1
 320 192 l 1,7,8
 320 192 320 192 320 320 c 1,9,-1
 192 320 l 1,4,5
192 640 m 1,10,11
 192 640 192 640 192 512 c 1,12,-1
 320 512 l 1,13,14
 320 512 320 512 320 640 c 1,15,-1
 192 640 l 1,10,11
EndSplineSet
Validated: 9
EndChar

StartChar: oslash
Encoding: 248 248 218
Width: 512
Flags: W
LayerCount: 2
Fore
SplineSet
448 512 m 1,0,-1
 448 576 l 1,1,-1
 384 576 l 1,2,-1
 384 512 l 1,3,-1
 320 512 l 1,4,-1
 320 448 l 1,5,-1
 256 448 l 1,6,-1
 256 384 l 1,7,-1
 192 384 l 1,8,-1
 192 320 l 1,9,-1
 128 320 l 1,10,-1
 128 512 l 1,11,-1
 320 512 l 1,12,-1
 320 576 l 1,13,-1
 64 576 l 1,14,-1
 64 512 l 1,15,-1
 0 512 l 1,16,17
 0 512 0 512 0 256 c 1,18,-1
 64 256 l 1,19,-1
 64 192 l 1,20,-1
 0 192 l 1,21,-1
 0 128 l 1,22,-1
 64 128 l 1,23,-1
 64 192 l 1,24,-1
 128 192 l 1,25,-1
 128 128 l 1,26,-1
 384 128 l 1,27,-1
 384 192 l 1,28,-1
 448 192 l 1,29,30
 448 192 448 192 448 448 c 1,31,-1
 384 448 l 1,32,-1
 384 512 l 1,33,-1
 448 512 l 1,0,-1
128 192 m 1,34,-1
 128 256 l 1,35,-1
 192 256 l 1,36,-1
 192 320 l 1,37,-1
 256 320 l 1,38,-1
 256 384 l 1,39,-1
 320 384 l 1,40,-1
 320 192 l 1,41,-1
 128 192 l 1,34,-1
EndSplineSet
Validated: 5
EndChar

StartChar: ugrave
Encoding: 249 249 219
Width: 512
Flags: W
LayerCount: 2
Fore
SplineSet
448 128 m 1,0,-1
 448 192 l 1,1,-1
 384 192 l 1,2,3
 384 192 384 192 384 576 c 1,4,-1
 256 576 l 1,5,6
 256 576 256 576 256 192 c 1,7,-1
 128 192 l 1,8,9
 128 192 128 192 128 576 c 1,10,-1
 0 576 l 1,11,12
 0 576 0 576 0 192 c 1,13,-1
 64 192 l 1,14,-1
 64 128 l 1,15,-1
 256 128 l 1,16,-1
 256 192 l 1,17,-1
 320 192 l 1,18,-1
 320 128 l 1,19,-1
 448 128 l 1,0,-1
256 640 m 1,20,-1
 256 704 l 1,21,-1
 192 704 l 1,22,-1
 192 768 l 1,23,-1
 64 768 l 1,24,-1
 64 704 l 1,25,-1
 128 704 l 1,26,-1
 128 640 l 1,27,-1
 256 640 l 1,20,-1
EndSplineSet
Validated: 5
EndChar

StartChar: uacute
Encoding: 250 250 220
Width: 512
Flags: W
LayerCount: 2
Fore
SplineSet
448 128 m 1,0,-1
 448 192 l 1,1,-1
 384 192 l 1,2,3
 384 192 384 192 384 576 c 1,4,-1
 256 576 l 1,5,6
 256 576 256 576 256 192 c 1,7,-1
 128 192 l 1,8,9
 128 192 128 192 128 576 c 1,10,-1
 0 576 l 1,11,12
 0 576 0 576 0 192 c 1,13,-1
 64 192 l 1,14,-1
 64 128 l 1,15,-1
 256 128 l 1,16,-1
 256 192 l 1,17,-1
 320 192 l 1,18,-1
 320 128 l 1,19,-1
 448 128 l 1,0,-1
320 704 m 1,20,-1
 320 768 l 1,21,-1
 192 768 l 1,22,-1
 192 704 l 1,23,-1
 128 704 l 1,24,-1
 128 640 l 1,25,-1
 256 640 l 1,26,-1
 256 704 l 1,27,-1
 320 704 l 1,20,-1
EndSplineSet
Validated: 5
EndChar

StartChar: ucircumflex
Encoding: 251 251 221
Width: 512
Flags: W
LayerCount: 2
Fore
SplineSet
448 128 m 1,0,-1
 448 192 l 1,1,-1
 384 192 l 1,2,3
 384 192 384 192 384 576 c 1,4,-1
 256 576 l 1,5,6
 256 576 256 576 256 192 c 1,7,-1
 128 192 l 1,8,9
 128 192 128 192 128 576 c 1,10,-1
 0 576 l 1,11,12
 0 576 0 576 0 192 c 1,13,-1
 64 192 l 1,14,-1
 64 128 l 1,15,-1
 256 128 l 1,16,-1
 256 192 l 1,17,-1
 320 192 l 1,18,-1
 320 128 l 1,19,-1
 448 128 l 1,0,-1
384 640 m 1,20,-1
 384 704 l 1,21,-1
 320 704 l 1,22,-1
 320 768 l 1,23,-1
 256 768 l 1,24,-1
 256 832 l 1,25,-1
 192 832 l 1,26,-1
 192 768 l 1,27,-1
 128 768 l 1,28,-1
 128 704 l 1,29,-1
 64 704 l 1,30,-1
 64 640 l 1,31,-1
 192 640 l 1,32,-1
 192 704 l 1,33,-1
 256 704 l 1,34,-1
 256 640 l 1,35,-1
 384 640 l 1,20,-1
EndSplineSet
Validated: 5
EndChar

StartChar: udieresis
Encoding: 252 252 222
Width: 512
Flags: W
LayerCount: 2
Fore
SplineSet
448 128 m 1,0,-1
 448 192 l 1,1,-1
 384 192 l 1,2,3
 384 192 384 192 384 576 c 1,4,-1
 256 576 l 1,5,6
 256 576 256 576 256 192 c 1,7,-1
 128 192 l 1,8,9
 128 192 128 192 128 576 c 1,10,-1
 0 576 l 1,11,12
 0 576 0 576 0 192 c 1,13,-1
 64 192 l 1,14,-1
 64 128 l 1,15,-1
 256 128 l 1,16,-1
 256 192 l 1,17,-1
 320 192 l 1,18,-1
 320 128 l 1,19,-1
 448 128 l 1,0,-1
0 768 m 1,20,21
 0 768 0 768 0 640 c 1,22,-1
 128 640 l 1,23,24
 128 640 128 640 128 768 c 1,25,-1
 0 768 l 1,20,21
256 768 m 1,26,27
 256 768 256 768 256 640 c 1,28,-1
 384 640 l 1,29,30
 384 640 384 640 384 768 c 1,31,-1
 256 768 l 1,26,27
EndSplineSet
Validated: 5
EndChar

StartChar: yacute
Encoding: 253 253 223
Width: 512
Flags: W
LayerCount: 2
Fore
SplineSet
384 704 m 1,0,-1
 384 768 l 1,1,-1
 256 768 l 1,2,-1
 256 704 l 1,3,-1
 192 704 l 1,4,-1
 192 640 l 1,5,-1
 320 640 l 1,6,-1
 320 704 l 1,7,-1
 384 704 l 1,0,-1
320 0 m 1,8,-1
 384 0 l 1,9,-1
 384 64 l 1,10,-1
 448 64 l 1,11,12
 448 64 448 64 448 576 c 1,13,-1
 320 576 l 1,14,15
 320 576 320 576 320 192 c 1,16,-1
 128 192 l 1,17,18
 128 192 128 192 128 576 c 1,19,-1
 0 576 l 1,20,21
 0 576 0 576 0 192 c 1,22,-1
 64 192 l 1,23,-1
 64 128 l 1,24,-1
 320 128 l 1,25,-1
 320 64 l 1,26,-1
 256 64 l 1,27,-1
 256 0 l 1,28,-1
 0 0 l 1,29,-1
 0 -64 l 1,30,-1
 320 -64 l 1,31,-1
 320 0 l 1,8,-1
EndSplineSet
Validated: 9
EndChar

StartChar: thorn
Encoding: 254 254 224
Width: 512
Flags: W
LayerCount: 2
Fore
SplineSet
256 -64 m 1,0,-1
 256 0 l 1,1,-1
 192 0 l 1,2,3
 192 0 192 0 192 128 c 1,4,-1
 384 128 l 1,5,-1
 384 192 l 1,6,-1
 448 192 l 1,7,-1
 448 512 l 1,8,-1
 384 512 l 1,9,-1
 384 576 l 1,10,-1
 192 576 l 1,11,-1
 192 768 l 1,12,-1
 0 768 l 1,13,-1
 0 704 l 1,14,-1
 64 704 l 1,15,-1
 64 0 l 1,16,-1
 0 0 l 1,17,-1
 0 -64 l 1,18,-1
 256 -64 l 1,0,-1
192 192 m 1,19,-1
 192 512 l 1,20,-1
 320 512 l 1,21,-1
 320 192 l 1,22,-1
 192 192 l 1,19,-1
EndSplineSet
Validated: 9
EndChar

StartChar: ydieresis
Encoding: 255 255 225
Width: 512
Flags: W
LayerCount: 2
Fore
SplineSet
320 0 m 1,0,-1
 384 0 l 1,1,-1
 384 64 l 1,2,-1
 448 64 l 1,3,4
 448 64 448 64 448 576 c 1,5,-1
 320 576 l 1,6,7
 320 576 320 576 320 192 c 1,8,-1
 128 192 l 1,9,10
 128 192 128 192 128 576 c 1,11,-1
 0 576 l 1,12,13
 0 576 0 576 0 192 c 1,14,-1
 64 192 l 1,15,-1
 64 128 l 1,16,-1
 320 128 l 1,17,-1
 320 64 l 1,18,-1
 256 64 l 1,19,-1
 256 0 l 1,20,-1
 0 0 l 1,21,-1
 0 -64 l 1,22,-1
 320 -64 l 1,23,-1
 320 0 l 1,0,-1
64 768 m 1,24,25
 64 768 64 768 64 640 c 1,26,-1
 192 640 l 1,27,28
 192 640 192 640 192 768 c 1,29,-1
 64 768 l 1,24,25
256 768 m 1,30,31
 256 768 256 768 256 640 c 1,32,-1
 384 640 l 1,33,34
 384 640 384 640 384 768 c 1,35,-1
 256 768 l 1,30,31
EndSplineSet
Validated: 9
EndChar

StartChar: Amacron
Encoding: 256 256 226
Width: 512
Flags: W
LayerCount: 2
Fore
SplineSet
384 768 m 1,0,-1
 384 832 l 1,1,-1
 64 832 l 1,2,-1
 64 768 l 1,3,-1
 384 768 l 1,0,-1
0 512 m 1,4,5
 0 512 0 512 0 128 c 1,6,-1
 128 128 l 1,7,-1
 128 320 l 1,8,-1
 320 320 l 1,9,-1
 320 128 l 1,10,-1
 448 128 l 1,11,12
 448 128 448 128 448 512 c 1,13,-1
 384 512 l 1,14,-1
 384 576 l 1,15,-1
 320 576 l 1,16,-1
 320 640 l 1,17,-1
 256 640 l 1,18,-1
 256 704 l 1,19,-1
 192 704 l 1,20,-1
 192 640 l 1,21,-1
 128 640 l 1,22,-1
 128 576 l 1,23,-1
 64 576 l 1,24,-1
 64 512 l 1,25,-1
 0 512 l 1,4,5
128 384 m 1,26,27
 128 384 128 384 128 512 c 1,28,-1
 192 512 l 1,29,-1
 192 576 l 1,30,-1
 256 576 l 1,31,-1
 256 512 l 1,32,-1
 320 512 l 1,33,34
 320 512 320 512 320 384 c 1,35,-1
 128 384 l 1,26,27
EndSplineSet
Validated: 9
EndChar

StartChar: amacron
Encoding: 257 257 227
Width: 512
Flags: W
LayerCount: 2
Fore
SplineSet
448 128 m 1,0,-1
 448 192 l 1,1,-1
 384 192 l 1,2,-1
 384 512 l 1,3,-1
 320 512 l 1,4,-1
 320 576 l 1,5,-1
 64 576 l 1,6,-1
 64 512 l 1,7,-1
 256 512 l 1,8,-1
 256 448 l 1,9,-1
 64 448 l 1,10,-1
 64 384 l 1,11,-1
 0 384 l 1,12,-1
 0 192 l 1,13,-1
 64 192 l 1,14,-1
 64 128 l 1,15,-1
 256 128 l 1,16,-1
 256 192 l 1,17,-1
 128 192 l 1,18,-1
 128 384 l 1,19,-1
 256 384 l 1,20,-1
 256 192 l 1,21,-1
 320 192 l 1,22,-1
 320 128 l 1,23,-1
 448 128 l 1,0,-1
384 640 m 1,24,-1
 384 704 l 1,25,-1
 64 704 l 1,26,-1
 64 640 l 1,27,-1
 384 640 l 1,24,-1
EndSplineSet
Validated: 5
EndChar

StartChar: Abreve
Encoding: 258 258 228
Width: 512
Flags: W
LayerCount: 2
Fore
SplineSet
384 832 m 1,0,-1
 384 896 l 1,1,-1
 256 896 l 1,2,-1
 256 832 l 1,3,-1
 192 832 l 1,4,-1
 192 896 l 1,5,-1
 64 896 l 1,6,-1
 64 832 l 1,7,-1
 128 832 l 1,8,-1
 128 768 l 1,9,-1
 320 768 l 1,10,-1
 320 832 l 1,11,-1
 384 832 l 1,0,-1
0 512 m 1,12,13
 0 512 0 512 0 128 c 1,14,-1
 128 128 l 1,15,-1
 128 320 l 1,16,-1
 320 320 l 1,17,-1
 320 128 l 1,18,-1
 448 128 l 1,19,20
 448 128 448 128 448 512 c 1,21,-1
 384 512 l 1,22,-1
 384 576 l 1,23,-1
 320 576 l 1,24,-1
 320 640 l 1,25,-1
 256 640 l 1,26,-1
 256 704 l 1,27,-1
 192 704 l 1,28,-1
 192 640 l 1,29,-1
 128 640 l 1,30,-1
 128 576 l 1,31,-1
 64 576 l 1,32,-1
 64 512 l 1,33,-1
 0 512 l 1,12,13
128 384 m 1,34,35
 128 384 128 384 128 512 c 1,36,-1
 192 512 l 1,37,-1
 192 576 l 1,38,-1
 256 576 l 1,39,-1
 256 512 l 1,40,-1
 320 512 l 1,41,42
 320 512 320 512 320 384 c 1,43,-1
 128 384 l 1,34,35
EndSplineSet
Validated: 9
EndChar

StartChar: abreve
Encoding: 259 259 229
Width: 512
Flags: W
LayerCount: 2
Fore
SplineSet
448 128 m 1,0,-1
 448 192 l 1,1,-1
 384 192 l 1,2,-1
 384 512 l 1,3,-1
 320 512 l 1,4,-1
 320 576 l 1,5,-1
 64 576 l 1,6,-1
 64 512 l 1,7,-1
 256 512 l 1,8,-1
 256 448 l 1,9,-1
 64 448 l 1,10,-1
 64 384 l 1,11,-1
 0 384 l 1,12,-1
 0 192 l 1,13,-1
 64 192 l 1,14,-1
 64 128 l 1,15,-1
 256 128 l 1,16,-1
 256 192 l 1,17,-1
 128 192 l 1,18,-1
 128 384 l 1,19,-1
 256 384 l 1,20,-1
 256 192 l 1,21,-1
 320 192 l 1,22,-1
 320 128 l 1,23,-1
 448 128 l 1,0,-1
384 704 m 1,24,-1
 384 768 l 1,25,-1
 256 768 l 1,26,-1
 256 704 l 1,27,-1
 192 704 l 1,28,-1
 192 768 l 1,29,-1
 64 768 l 1,30,-1
 64 704 l 1,31,-1
 128 704 l 1,32,-1
 128 640 l 1,33,-1
 320 640 l 1,34,-1
 320 704 l 1,35,-1
 384 704 l 1,24,-1
EndSplineSet
Validated: 5
EndChar

StartChar: Aogonek
Encoding: 260 260 230
Width: 512
Flags: W
LayerCount: 2
Fore
SplineSet
448 -64 m 1,0,-1
 448 0 l 1,1,-1
 320 0 l 1,2,-1
 320 64 l 1,3,-1
 384 64 l 1,4,-1
 384 128 l 1,5,-1
 448 128 l 1,6,-1
 448 576 l 1,7,-1
 384 576 l 1,8,-1
 384 640 l 1,9,-1
 320 640 l 1,10,-1
 320 704 l 1,11,-1
 256 704 l 1,12,-1
 256 768 l 1,13,-1
 192 768 l 1,14,-1
 192 704 l 1,15,-1
 128 704 l 1,16,-1
 128 640 l 1,17,-1
 64 640 l 1,18,-1
 64 576 l 1,19,-1
 0 576 l 1,20,-1
 0 128 l 1,21,-1
 128 128 l 1,22,23
 128 128 128 128 128 384 c 1,24,-1
 320 384 l 1,25,26
 320 384 320 384 320 128 c 1,27,-1
 256 128 l 1,28,-1
 256 64 l 1,29,-1
 192 64 l 1,30,-1
 192 0 l 1,31,-1
 256 0 l 1,32,-1
 256 -64 l 1,33,-1
 448 -64 l 1,0,-1
128 448 m 1,34,35
 128 448 128 448 128 576 c 1,36,-1
 192 576 l 1,37,-1
 192 640 l 1,38,-1
 256 640 l 1,39,-1
 256 576 l 1,40,-1
 320 576 l 1,41,42
 320 576 320 576 320 448 c 1,43,-1
 128 448 l 1,34,35
EndSplineSet
Validated: 9
EndChar

StartChar: aogonek
Encoding: 261 261 231
Width: 512
Flags: W
LayerCount: 2
Fore
SplineSet
448 -64 m 1,0,-1
 448 0 l 1,1,-1
 320 0 l 1,2,-1
 320 64 l 1,3,-1
 384 64 l 1,4,-1
 384 128 l 1,5,-1
 448 128 l 1,6,-1
 448 192 l 1,7,-1
 384 192 l 1,8,-1
 384 512 l 1,9,-1
 320 512 l 1,10,-1
 320 576 l 1,11,-1
 64 576 l 1,12,-1
 64 512 l 1,13,-1
 256 512 l 1,14,-1
 256 448 l 1,15,-1
 64 448 l 1,16,-1
 64 384 l 1,17,-1
 0 384 l 1,18,-1
 0 192 l 1,19,-1
 64 192 l 1,20,-1
 64 128 l 1,21,-1
 256 128 l 1,22,-1
 256 64 l 1,23,-1
 192 64 l 1,24,-1
 192 0 l 1,25,-1
 256 0 l 1,26,-1
 256 -64 l 1,27,-1
 448 -64 l 1,0,-1
256 128 m 1,28,-1
 256 192 l 1,29,-1
 128 192 l 1,30,-1
 128 384 l 1,31,-1
 256 384 l 1,32,-1
 256 192 l 1,33,-1
 320 192 l 1,34,-1
 320 128 l 1,35,-1
 256 128 l 1,28,-1
EndSplineSet
Validated: 5
EndChar

StartChar: Cacute
Encoding: 262 262 232
Width: 512
Flags: W
LayerCount: 2
Fore
SplineSet
384 832 m 1,0,-1
 384 896 l 1,1,-1
 256 896 l 1,2,-1
 256 832 l 1,3,-1
 192 832 l 1,4,-1
 192 768 l 1,5,-1
 320 768 l 1,6,-1
 320 832 l 1,7,-1
 384 832 l 1,0,-1
128 192 m 1,8,-1
 128 128 l 1,9,-1
 384 128 l 1,10,-1
 384 192 l 1,11,-1
 448 192 l 1,12,13
 448 192 448 192 448 320 c 1,14,-1
 384 320 l 1,15,-1
 384 256 l 1,16,-1
 320 256 l 1,17,-1
 320 192 l 1,18,-1
 192 192 l 1,19,-1
 192 256 l 1,20,-1
 128 256 l 1,21,-1
 128 576 l 1,22,-1
 192 576 l 1,23,-1
 192 640 l 1,24,-1
 320 640 l 1,25,-1
 320 576 l 1,26,-1
 384 576 l 1,27,-1
 384 512 l 1,28,-1
 448 512 l 1,29,30
 448 512 448 512 448 640 c 1,31,-1
 384 640 l 1,32,-1
 384 704 l 1,33,-1
 128 704 l 1,34,-1
 128 640 l 1,35,-1
 64 640 l 1,36,-1
 64 576 l 1,37,-1
 0 576 l 1,38,-1
 0 256 l 1,39,-1
 64 256 l 1,40,-1
 64 192 l 1,41,-1
 128 192 l 1,8,-1
EndSplineSet
Validated: 9
EndChar

StartChar: cacute
Encoding: 263 263 233
Width: 512
Flags: W
LayerCount: 2
Fore
SplineSet
448 192 m 1,0,-1
 448 256 l 1,1,-1
 320 256 l 1,2,-1
 320 192 l 1,3,-1
 128 192 l 1,4,-1
 128 512 l 1,5,-1
 320 512 l 1,6,-1
 320 448 l 1,7,-1
 448 448 l 1,8,-1
 448 512 l 1,9,-1
 384 512 l 1,10,-1
 384 576 l 1,11,-1
 64 576 l 1,12,-1
 64 512 l 1,13,-1
 0 512 l 1,14,-1
 0 192 l 1,15,-1
 64 192 l 1,16,-1
 64 128 l 1,17,-1
 384 128 l 1,18,-1
 384 192 l 1,19,-1
 448 192 l 1,0,-1
384 704 m 1,20,-1
 384 768 l 1,21,-1
 256 768 l 1,22,-1
 256 704 l 1,23,-1
 192 704 l 1,24,-1
 192 640 l 1,25,-1
 320 640 l 1,26,-1
 320 704 l 1,27,-1
 384 704 l 1,20,-1
EndSplineSet
Validated: 9
EndChar

StartChar: Ccircumflex
Encoding: 264 264 234
Width: 512
Flags: W
LayerCount: 2
Fore
SplineSet
128 192 m 1,0,-1
 128 128 l 1,1,-1
 384 128 l 1,2,-1
 384 192 l 1,3,-1
 448 192 l 1,4,5
 448 192 448 192 448 320 c 1,6,-1
 384 320 l 1,7,-1
 384 256 l 1,8,-1
 320 256 l 1,9,-1
 320 192 l 1,10,-1
 192 192 l 1,11,-1
 192 256 l 1,12,-1
 128 256 l 1,13,-1
 128 576 l 1,14,-1
 192 576 l 1,15,-1
 192 640 l 1,16,-1
 320 640 l 1,17,-1
 320 576 l 1,18,-1
 384 576 l 1,19,-1
 384 512 l 1,20,-1
 448 512 l 1,21,22
 448 512 448 512 448 640 c 1,23,-1
 384 640 l 1,24,25
 384 640 384 640 384 768 c 1,26,-1
 320 768 l 1,27,-1
 320 704 l 1,28,-1
 128 704 l 1,29,-1
 128 640 l 1,30,-1
 64 640 l 1,31,-1
 64 576 l 1,32,-1
 0 576 l 1,33,-1
 0 256 l 1,34,-1
 64 256 l 1,35,-1
 64 192 l 1,36,-1
 128 192 l 1,0,-1
128 704 m 1,37,-1
 128 768 l 1,38,-1
 64 768 l 1,39,-1
 64 704 l 1,40,-1
 128 704 l 1,37,-1
128 768 m 1,41,-1
 320 768 l 1,42,-1
 320 832 l 1,43,-1
 256 832 l 1,44,-1
 256 896 l 1,45,-1
 192 896 l 1,46,-1
 192 832 l 1,47,-1
 128 832 l 1,48,-1
 128 768 l 1,41,-1
EndSplineSet
Validated: 5
EndChar

StartChar: ccircumflex
Encoding: 265 265 235
Width: 512
Flags: W
LayerCount: 2
Fore
SplineSet
448 192 m 1,0,-1
 448 256 l 1,1,-1
 320 256 l 1,2,-1
 320 192 l 1,3,-1
 128 192 l 1,4,-1
 128 512 l 1,5,-1
 320 512 l 1,6,-1
 320 448 l 1,7,-1
 448 448 l 1,8,-1
 448 512 l 1,9,-1
 384 512 l 1,10,-1
 384 576 l 1,11,-1
 64 576 l 1,12,-1
 64 512 l 1,13,-1
 0 512 l 1,14,-1
 0 192 l 1,15,-1
 64 192 l 1,16,-1
 64 128 l 1,17,-1
 384 128 l 1,18,-1
 384 192 l 1,19,-1
 448 192 l 1,0,-1
384 640 m 1,20,-1
 384 704 l 1,21,-1
 320 704 l 1,22,-1
 320 768 l 1,23,-1
 256 768 l 1,24,-1
 256 832 l 1,25,-1
 192 832 l 1,26,-1
 192 768 l 1,27,-1
 128 768 l 1,28,-1
 128 704 l 1,29,-1
 64 704 l 1,30,-1
 64 640 l 1,31,-1
 192 640 l 1,32,-1
 192 704 l 1,33,-1
 256 704 l 1,34,-1
 256 640 l 1,35,-1
 384 640 l 1,20,-1
EndSplineSet
Validated: 9
EndChar

StartChar: Cdotaccent
Encoding: 266 266 236
Width: 512
Flags: W
LayerCount: 2
Fore
SplineSet
128 192 m 1,0,-1
 128 128 l 1,1,-1
 384 128 l 1,2,-1
 384 192 l 1,3,-1
 448 192 l 1,4,5
 448 192 448 192 448 320 c 1,6,-1
 384 320 l 1,7,-1
 384 256 l 1,8,-1
 320 256 l 1,9,-1
 320 192 l 1,10,-1
 192 192 l 1,11,-1
 192 256 l 1,12,-1
 128 256 l 1,13,-1
 128 576 l 1,14,-1
 192 576 l 1,15,-1
 192 640 l 1,16,-1
 320 640 l 1,17,-1
 320 576 l 1,18,-1
 384 576 l 1,19,-1
 384 512 l 1,20,-1
 448 512 l 1,21,22
 448 512 448 512 448 640 c 1,23,-1
 384 640 l 1,24,-1
 384 704 l 1,25,-1
 128 704 l 1,26,-1
 128 640 l 1,27,-1
 64 640 l 1,28,-1
 64 576 l 1,29,-1
 0 576 l 1,30,-1
 0 256 l 1,31,-1
 64 256 l 1,32,-1
 64 192 l 1,33,-1
 128 192 l 1,0,-1
192 896 m 1,34,35
 192 896 192 896 192 768 c 1,36,-1
 320 768 l 1,37,38
 320 768 320 768 320 896 c 1,39,-1
 192 896 l 1,34,35
EndSplineSet
Validated: 9
EndChar

StartChar: cdotaccent
Encoding: 267 267 237
Width: 512
Flags: W
LayerCount: 2
Fore
SplineSet
448 192 m 1,0,-1
 448 256 l 1,1,-1
 320 256 l 1,2,-1
 320 192 l 1,3,-1
 128 192 l 1,4,-1
 128 512 l 1,5,-1
 320 512 l 1,6,-1
 320 448 l 1,7,-1
 448 448 l 1,8,-1
 448 512 l 1,9,-1
 384 512 l 1,10,-1
 384 576 l 1,11,-1
 64 576 l 1,12,-1
 64 512 l 1,13,-1
 0 512 l 1,14,-1
 0 192 l 1,15,-1
 64 192 l 1,16,-1
 64 128 l 1,17,-1
 384 128 l 1,18,-1
 384 192 l 1,19,-1
 448 192 l 1,0,-1
128 768 m 1,20,21
 128 768 128 768 128 640 c 1,22,-1
 256 640 l 1,23,24
 256 640 256 640 256 768 c 1,25,-1
 128 768 l 1,20,21
EndSplineSet
Validated: 9
EndChar

StartChar: Ccaron
Encoding: 268 268 238
Width: 512
Flags: W
LayerCount: 2
Fore
SplineSet
384 832 m 1,0,-1
 384 896 l 1,1,-1
 256 896 l 1,2,-1
 256 832 l 1,3,-1
 192 832 l 1,4,-1
 192 896 l 1,5,-1
 64 896 l 1,6,-1
 64 832 l 1,7,-1
 128 832 l 1,8,-1
 128 768 l 1,9,-1
 192 768 l 1,10,-1
 192 704 l 1,11,-1
 128 704 l 1,12,-1
 128 640 l 1,13,-1
 64 640 l 1,14,-1
 64 576 l 1,15,-1
 0 576 l 1,16,-1
 0 256 l 1,17,-1
 64 256 l 1,18,-1
 64 192 l 1,19,-1
 128 192 l 1,20,-1
 128 128 l 1,21,-1
 384 128 l 1,22,-1
 384 192 l 1,23,-1
 448 192 l 1,24,25
 448 192 448 192 448 320 c 1,26,-1
 384 320 l 1,27,-1
 384 256 l 1,28,-1
 320 256 l 1,29,-1
 320 192 l 1,30,-1
 192 192 l 1,31,-1
 192 256 l 1,32,-1
 128 256 l 1,33,-1
 128 576 l 1,34,-1
 192 576 l 1,35,-1
 192 640 l 1,36,-1
 320 640 l 1,37,-1
 320 576 l 1,38,-1
 384 576 l 1,39,-1
 384 512 l 1,40,-1
 448 512 l 1,41,42
 448 512 448 512 448 640 c 1,43,-1
 384 640 l 1,44,-1
 384 704 l 1,45,-1
 256 704 l 1,46,-1
 256 768 l 1,47,-1
 320 768 l 1,48,-1
 320 832 l 1,49,-1
 384 832 l 1,0,-1
EndSplineSet
Validated: 9
EndChar

StartChar: ccaron
Encoding: 269 269 239
Width: 512
Flags: W
LayerCount: 2
Fore
SplineSet
448 192 m 1,0,-1
 448 256 l 1,1,-1
 320 256 l 1,2,-1
 320 192 l 1,3,-1
 128 192 l 1,4,-1
 128 512 l 1,5,-1
 320 512 l 1,6,-1
 320 448 l 1,7,-1
 448 448 l 1,8,-1
 448 512 l 1,9,-1
 384 512 l 1,10,-1
 384 576 l 1,11,-1
 64 576 l 1,12,-1
 64 512 l 1,13,-1
 0 512 l 1,14,-1
 0 192 l 1,15,-1
 64 192 l 1,16,-1
 64 128 l 1,17,-1
 384 128 l 1,18,-1
 384 192 l 1,19,-1
 448 192 l 1,0,-1
384 768 m 1,20,-1
 384 832 l 1,21,-1
 256 832 l 1,22,-1
 256 768 l 1,23,-1
 192 768 l 1,24,-1
 192 832 l 1,25,-1
 64 832 l 1,26,-1
 64 768 l 1,27,-1
 128 768 l 1,28,-1
 128 704 l 1,29,-1
 192 704 l 1,30,-1
 192 640 l 1,31,-1
 256 640 l 1,32,-1
 256 704 l 1,33,-1
 320 704 l 1,34,-1
 320 768 l 1,35,-1
 384 768 l 1,20,-1
EndSplineSet
Validated: 9
EndChar

StartChar: Dcaron
Encoding: 270 270 240
Width: 512
Flags: W
LayerCount: 2
Fore
SplineSet
384 832 m 1,0,-1
 384 896 l 1,1,-1
 256 896 l 1,2,-1
 256 832 l 1,3,-1
 192 832 l 1,4,-1
 192 896 l 1,5,-1
 64 896 l 1,6,-1
 64 832 l 1,7,-1
 128 832 l 1,8,-1
 128 768 l 1,9,-1
 192 768 l 1,10,-1
 192 704 l 1,11,-1
 0 704 l 1,12,-1
 0 640 l 1,13,-1
 64 640 l 1,14,-1
 64 192 l 1,15,-1
 0 192 l 1,16,-1
 0 128 l 1,17,-1
 320 128 l 1,18,-1
 320 192 l 1,19,-1
 384 192 l 1,20,-1
 384 256 l 1,21,-1
 448 256 l 1,22,-1
 448 576 l 1,23,-1
 384 576 l 1,24,-1
 384 640 l 1,25,-1
 320 640 l 1,26,-1
 320 704 l 1,27,-1
 256 704 l 1,28,-1
 256 768 l 1,29,-1
 320 768 l 1,30,-1
 320 832 l 1,31,-1
 384 832 l 1,0,-1
192 192 m 1,32,-1
 192 640 l 1,33,-1
 256 640 l 1,34,-1
 256 576 l 1,35,-1
 320 576 l 1,36,-1
 320 256 l 1,37,-1
 256 256 l 1,38,-1
 256 192 l 1,39,-1
 192 192 l 1,32,-1
EndSplineSet
Validated: 9
EndChar

StartChar: dcaron
Encoding: 271 271 241
Width: 512
Flags: W
LayerCount: 2
Fore
SplineSet
448 128 m 1,0,-1
 448 192 l 1,1,-1
 384 192 l 1,2,3
 384 192 384 192 384 704 c 1,4,-1
 256 704 l 1,5,6
 256 704 256 704 256 576 c 1,7,-1
 128 576 l 1,8,-1
 128 512 l 1,9,-1
 64 512 l 1,10,-1
 64 448 l 1,11,-1
 0 448 l 1,12,13
 0 448 0 448 0 192 c 1,14,-1
 64 192 l 1,15,-1
 64 128 l 1,16,-1
 256 128 l 1,17,-1
 256 192 l 1,18,-1
 128 192 l 1,19,20
 128 192 128 192 128 448 c 1,21,-1
 192 448 l 1,22,-1
 192 512 l 1,23,-1
 256 512 l 1,24,-1
 256 192 l 1,25,-1
 320 192 l 1,26,-1
 320 128 l 1,27,-1
 448 128 l 1,0,-1
384 832 m 1,28,-1
 384 896 l 1,29,-1
 256 896 l 1,30,-1
 256 832 l 1,31,-1
 192 832 l 1,32,-1
 192 896 l 1,33,-1
 64 896 l 1,34,-1
 64 832 l 1,35,-1
 128 832 l 1,36,-1
 128 768 l 1,37,-1
 192 768 l 1,38,-1
 192 704 l 1,39,-1
 256 704 l 1,40,-1
 256 768 l 1,41,-1
 320 768 l 1,42,-1
 320 832 l 1,43,-1
 384 832 l 1,28,-1
EndSplineSet
Validated: 5
EndChar

StartChar: Dcroat
Encoding: 272 272 242
Width: 512
Flags: W
LayerCount: 2
Fore
SplineSet
256 448 m 1,0,-1
 256 512 l 1,1,-1
 192 512 l 1,2,-1
 192 704 l 1,3,-1
 256 704 l 1,4,-1
 256 640 l 1,5,-1
 320 640 l 1,6,7
 320 640 320 640 320 256 c 1,8,-1
 256 256 l 1,9,-1
 256 192 l 1,10,-1
 192 192 l 1,11,12
 192 192 192 192 192 448 c 1,13,-1
 256 448 l 1,0,-1
64 192 m 1,14,-1
 0 192 l 1,15,-1
 0 128 l 1,16,-1
 320 128 l 1,17,-1
 320 192 l 1,18,-1
 384 192 l 1,19,-1
 384 256 l 1,20,-1
 448 256 l 1,21,22
 448 256 448 256 448 640 c 1,23,-1
 384 640 l 1,24,-1
 384 704 l 1,25,-1
 320 704 l 1,26,-1
 320 768 l 1,27,-1
 0 768 l 1,28,-1
 0 704 l 1,29,-1
 64 704 l 1,30,-1
 64 512 l 1,31,-1
 0 512 l 1,32,-1
 0 448 l 1,33,-1
 64 448 l 1,34,35
 64 448 64 448 64 192 c 1,14,-1
EndSplineSet
Validated: 9
EndChar

StartChar: dcroat
Encoding: 273 273 243
Width: 512
Flags: W
LayerCount: 2
Fore
SplineSet
448 128 m 1,0,-1
 448 192 l 1,1,-1
 384 192 l 1,2,-1
 384 640 l 1,3,-1
 448 640 l 1,4,-1
 448 704 l 1,5,-1
 384 704 l 1,6,-1
 384 768 l 1,7,-1
 256 768 l 1,8,-1
 256 704 l 1,9,-1
 128 704 l 1,10,-1
 128 640 l 1,11,-1
 256 640 l 1,12,-1
 256 576 l 1,13,-1
 128 576 l 1,14,-1
 128 512 l 1,15,-1
 64 512 l 1,16,-1
 64 448 l 1,17,-1
 0 448 l 1,18,19
 0 448 0 448 0 192 c 1,20,-1
 64 192 l 1,21,-1
 64 128 l 1,22,-1
 256 128 l 1,23,-1
 256 192 l 1,24,-1
 128 192 l 1,25,26
 128 192 128 192 128 448 c 1,27,-1
 192 448 l 1,28,-1
 192 512 l 1,29,-1
 256 512 l 1,30,-1
 256 192 l 1,31,-1
 320 192 l 1,32,-1
 320 128 l 1,33,-1
 448 128 l 1,0,-1
EndSplineSet
Validated: 5
EndChar

StartChar: Emacron
Encoding: 274 274 244
Width: 512
Flags: W
LayerCount: 2
Fore
SplineSet
384 768 m 1,0,-1
 384 832 l 1,1,-1
 64 832 l 1,2,-1
 64 768 l 1,3,-1
 384 768 l 1,0,-1
64 192 m 1,4,-1
 0 192 l 1,5,-1
 0 128 l 1,6,-1
 448 128 l 1,7,-1
 448 320 l 1,8,-1
 384 320 l 1,9,-1
 384 256 l 1,10,-1
 320 256 l 1,11,-1
 320 192 l 1,12,-1
 192 192 l 1,13,-1
 192 384 l 1,14,-1
 256 384 l 1,15,-1
 256 320 l 1,16,-1
 320 320 l 1,17,-1
 320 512 l 1,18,-1
 256 512 l 1,19,-1
 256 448 l 1,20,-1
 192 448 l 1,21,-1
 192 640 l 1,22,-1
 320 640 l 1,23,-1
 320 576 l 1,24,-1
 384 576 l 1,25,-1
 384 512 l 1,26,-1
 448 512 l 1,27,-1
 448 704 l 1,28,-1
 0 704 l 1,29,-1
 0 640 l 1,30,-1
 64 640 l 1,31,-1
 64 192 l 1,4,-1
EndSplineSet
Validated: 9
EndChar

StartChar: emacron
Encoding: 275 275 245
Width: 512
Flags: W
LayerCount: 2
Fore
SplineSet
448 192 m 1,0,-1
 448 256 l 1,1,-1
 320 256 l 1,2,-1
 320 192 l 1,3,-1
 128 192 l 1,4,-1
 128 384 l 1,5,-1
 448 384 l 1,6,7
 448 384 448 384 448 512 c 1,8,-1
 384 512 l 1,9,-1
 384 576 l 1,10,-1
 64 576 l 1,11,-1
 64 512 l 1,12,-1
 0 512 l 1,13,-1
 0 192 l 1,14,-1
 64 192 l 1,15,-1
 64 128 l 1,16,-1
 384 128 l 1,17,-1
 384 192 l 1,18,-1
 448 192 l 1,0,-1
384 640 m 1,19,-1
 384 704 l 1,20,-1
 64 704 l 1,21,-1
 64 640 l 1,22,-1
 384 640 l 1,19,-1
128 448 m 1,23,-1
 128 512 l 1,24,-1
 320 512 l 1,25,-1
 320 448 l 1,26,-1
 128 448 l 1,23,-1
EndSplineSet
Validated: 9
EndChar

StartChar: Ebreve
Encoding: 276 276 246
Width: 512
Flags: W
LayerCount: 2
Fore
SplineSet
384 832 m 1,0,-1
 384 896 l 1,1,-1
 256 896 l 1,2,-1
 256 832 l 1,3,-1
 192 832 l 1,4,-1
 192 896 l 1,5,-1
 64 896 l 1,6,-1
 64 832 l 1,7,-1
 128 832 l 1,8,-1
 128 768 l 1,9,-1
 320 768 l 1,10,-1
 320 832 l 1,11,-1
 384 832 l 1,0,-1
64 192 m 1,12,-1
 0 192 l 1,13,-1
 0 128 l 1,14,-1
 448 128 l 1,15,-1
 448 320 l 1,16,-1
 384 320 l 1,17,-1
 384 256 l 1,18,-1
 320 256 l 1,19,-1
 320 192 l 1,20,-1
 192 192 l 1,21,-1
 192 384 l 1,22,-1
 256 384 l 1,23,-1
 256 320 l 1,24,-1
 320 320 l 1,25,-1
 320 512 l 1,26,-1
 256 512 l 1,27,-1
 256 448 l 1,28,-1
 192 448 l 1,29,-1
 192 640 l 1,30,-1
 320 640 l 1,31,-1
 320 576 l 1,32,-1
 384 576 l 1,33,-1
 384 512 l 1,34,-1
 448 512 l 1,35,-1
 448 704 l 1,36,-1
 0 704 l 1,37,-1
 0 640 l 1,38,-1
 64 640 l 1,39,-1
 64 192 l 1,12,-1
EndSplineSet
Validated: 9
EndChar

StartChar: ebreve
Encoding: 277 277 247
Width: 512
Flags: W
LayerCount: 2
Fore
SplineSet
448 192 m 1,0,-1
 448 256 l 1,1,-1
 320 256 l 1,2,-1
 320 192 l 1,3,-1
 128 192 l 1,4,-1
 128 384 l 1,5,-1
 448 384 l 1,6,7
 448 384 448 384 448 512 c 1,8,-1
 384 512 l 1,9,-1
 384 576 l 1,10,-1
 64 576 l 1,11,-1
 64 512 l 1,12,-1
 0 512 l 1,13,-1
 0 192 l 1,14,-1
 64 192 l 1,15,-1
 64 128 l 1,16,-1
 384 128 l 1,17,-1
 384 192 l 1,18,-1
 448 192 l 1,0,-1
384 704 m 1,19,-1
 384 768 l 1,20,-1
 256 768 l 1,21,-1
 256 704 l 1,22,-1
 192 704 l 1,23,-1
 192 768 l 1,24,-1
 64 768 l 1,25,-1
 64 704 l 1,26,-1
 128 704 l 1,27,-1
 128 640 l 1,28,-1
 320 640 l 1,29,-1
 320 704 l 1,30,-1
 384 704 l 1,19,-1
128 448 m 1,31,-1
 128 512 l 1,32,-1
 320 512 l 1,33,-1
 320 448 l 1,34,-1
 128 448 l 1,31,-1
EndSplineSet
Validated: 9
EndChar

StartChar: Edotaccent
Encoding: 278 278 248
Width: 512
Flags: W
LayerCount: 2
Fore
SplineSet
64 192 m 1,0,-1
 0 192 l 1,1,-1
 0 128 l 1,2,-1
 448 128 l 1,3,-1
 448 320 l 1,4,-1
 384 320 l 1,5,-1
 384 256 l 1,6,-1
 320 256 l 1,7,-1
 320 192 l 1,8,-1
 192 192 l 1,9,-1
 192 384 l 1,10,-1
 256 384 l 1,11,-1
 256 320 l 1,12,-1
 320 320 l 1,13,-1
 320 512 l 1,14,-1
 256 512 l 1,15,-1
 256 448 l 1,16,-1
 192 448 l 1,17,-1
 192 640 l 1,18,-1
 320 640 l 1,19,-1
 320 576 l 1,20,-1
 384 576 l 1,21,-1
 384 512 l 1,22,-1
 448 512 l 1,23,-1
 448 704 l 1,24,-1
 0 704 l 1,25,-1
 0 640 l 1,26,-1
 64 640 l 1,27,-1
 64 192 l 1,0,-1
192 896 m 1,28,29
 192 896 192 896 192 768 c 1,30,-1
 320 768 l 1,31,32
 320 768 320 768 320 896 c 1,33,-1
 192 896 l 1,28,29
EndSplineSet
Validated: 9
EndChar

StartChar: edotaccent
Encoding: 279 279 249
Width: 512
Flags: W
LayerCount: 2
Fore
SplineSet
448 192 m 1,0,-1
 448 256 l 1,1,-1
 320 256 l 1,2,-1
 320 192 l 1,3,-1
 128 192 l 1,4,-1
 128 384 l 1,5,-1
 448 384 l 1,6,7
 448 384 448 384 448 512 c 1,8,-1
 384 512 l 1,9,-1
 384 576 l 1,10,-1
 64 576 l 1,11,-1
 64 512 l 1,12,-1
 0 512 l 1,13,-1
 0 192 l 1,14,-1
 64 192 l 1,15,-1
 64 128 l 1,16,-1
 384 128 l 1,17,-1
 384 192 l 1,18,-1
 448 192 l 1,0,-1
128 448 m 1,19,-1
 128 512 l 1,20,-1
 320 512 l 1,21,-1
 320 448 l 1,22,-1
 128 448 l 1,19,-1
128 768 m 1,23,24
 128 768 128 768 128 640 c 1,25,-1
 256 640 l 1,26,27
 256 640 256 640 256 768 c 1,28,-1
 128 768 l 1,23,24
EndSplineSet
Validated: 9
EndChar

StartChar: Eogonek
Encoding: 280 280 250
Width: 512
Flags: W
LayerCount: 2
Fore
SplineSet
384 -64 m 1,0,-1
 384 0 l 1,1,-1
 256 0 l 1,2,-1
 256 64 l 1,3,-1
 320 64 l 1,4,-1
 320 128 l 1,5,-1
 448 128 l 1,6,-1
 448 320 l 1,7,-1
 384 320 l 1,8,-1
 384 256 l 1,9,-1
 320 256 l 1,10,-1
 320 192 l 1,11,-1
 192 192 l 1,12,-1
 192 384 l 1,13,-1
 256 384 l 1,14,-1
 256 320 l 1,15,-1
 320 320 l 1,16,-1
 320 512 l 1,17,-1
 256 512 l 1,18,-1
 256 448 l 1,19,-1
 192 448 l 1,20,-1
 192 640 l 1,21,-1
 320 640 l 1,22,-1
 320 576 l 1,23,-1
 384 576 l 1,24,-1
 384 512 l 1,25,-1
 448 512 l 1,26,-1
 448 704 l 1,27,-1
 0 704 l 1,28,-1
 0 640 l 1,29,-1
 64 640 l 1,30,-1
 64 192 l 1,31,-1
 0 192 l 1,32,-1
 0 128 l 1,33,-1
 192 128 l 1,34,-1
 192 64 l 1,35,-1
 128 64 l 1,36,-1
 128 0 l 1,37,-1
 192 0 l 1,38,-1
 192 -64 l 1,39,-1
 384 -64 l 1,0,-1
EndSplineSet
Validated: 9
EndChar

StartChar: eogonek
Encoding: 281 281 251
Width: 512
Flags: W
LayerCount: 2
Fore
SplineSet
320 -64 m 1,0,-1
 320 0 l 1,1,-1
 192 0 l 1,2,-1
 192 64 l 1,3,-1
 256 64 l 1,4,-1
 256 128 l 1,5,-1
 384 128 l 1,6,-1
 384 192 l 1,7,-1
 448 192 l 1,8,-1
 448 256 l 1,9,-1
 320 256 l 1,10,-1
 320 192 l 1,11,-1
 128 192 l 1,12,-1
 128 384 l 1,13,-1
 448 384 l 1,14,15
 448 384 448 384 448 512 c 1,16,-1
 384 512 l 1,17,-1
 384 576 l 1,18,-1
 64 576 l 1,19,-1
 64 512 l 1,20,-1
 0 512 l 1,21,-1
 0 192 l 1,22,-1
 64 192 l 1,23,-1
 64 128 l 1,24,-1
 128 128 l 1,25,-1
 128 64 l 1,26,-1
 64 64 l 1,27,-1
 64 0 l 1,28,-1
 128 0 l 1,29,-1
 128 -64 l 1,30,-1
 320 -64 l 1,0,-1
128 448 m 1,31,-1
 128 512 l 1,32,-1
 320 512 l 1,33,-1
 320 448 l 1,34,-1
 128 448 l 1,31,-1
EndSplineSet
Validated: 9
EndChar

StartChar: Ecaron
Encoding: 282 282 252
Width: 512
Flags: W
LayerCount: 2
Fore
SplineSet
384 832 m 1,0,-1
 384 896 l 1,1,-1
 256 896 l 1,2,-1
 256 832 l 1,3,-1
 192 832 l 1,4,-1
 192 896 l 1,5,-1
 64 896 l 1,6,-1
 64 832 l 1,7,-1
 128 832 l 1,8,-1
 128 768 l 1,9,-1
 192 768 l 1,10,-1
 192 704 l 1,11,-1
 0 704 l 1,12,-1
 0 640 l 1,13,-1
 64 640 l 1,14,-1
 64 192 l 1,15,-1
 0 192 l 1,16,-1
 0 128 l 1,17,-1
 448 128 l 1,18,-1
 448 320 l 1,19,-1
 384 320 l 1,20,-1
 384 256 l 1,21,-1
 320 256 l 1,22,-1
 320 192 l 1,23,-1
 192 192 l 1,24,-1
 192 384 l 1,25,-1
 256 384 l 1,26,-1
 256 320 l 1,27,-1
 320 320 l 1,28,-1
 320 512 l 1,29,-1
 256 512 l 1,30,-1
 256 448 l 1,31,-1
 192 448 l 1,32,-1
 192 640 l 1,33,-1
 320 640 l 1,34,-1
 320 576 l 1,35,-1
 384 576 l 1,36,-1
 384 512 l 1,37,-1
 448 512 l 1,38,-1
 448 704 l 1,39,-1
 256 704 l 1,40,-1
 256 768 l 1,41,-1
 320 768 l 1,42,-1
 320 832 l 1,43,-1
 384 832 l 1,0,-1
EndSplineSet
Validated: 9
EndChar

StartChar: ecaron
Encoding: 283 283 253
Width: 512
Flags: W
LayerCount: 2
Fore
SplineSet
448 192 m 1,0,-1
 448 256 l 1,1,-1
 320 256 l 1,2,-1
 320 192 l 1,3,-1
 128 192 l 1,4,-1
 128 384 l 1,5,-1
 448 384 l 1,6,7
 448 384 448 384 448 512 c 1,8,-1
 384 512 l 1,9,-1
 384 576 l 1,10,-1
 64 576 l 1,11,-1
 64 512 l 1,12,-1
 0 512 l 1,13,-1
 0 192 l 1,14,-1
 64 192 l 1,15,-1
 64 128 l 1,16,-1
 384 128 l 1,17,-1
 384 192 l 1,18,-1
 448 192 l 1,0,-1
384 768 m 1,19,-1
 384 832 l 1,20,-1
 256 832 l 1,21,-1
 256 768 l 1,22,-1
 192 768 l 1,23,-1
 192 832 l 1,24,-1
 64 832 l 1,25,-1
 64 768 l 1,26,-1
 128 768 l 1,27,-1
 128 704 l 1,28,-1
 192 704 l 1,29,-1
 192 640 l 1,30,-1
 256 640 l 1,31,-1
 256 704 l 1,32,-1
 320 704 l 1,33,-1
 320 768 l 1,34,-1
 384 768 l 1,19,-1
128 448 m 1,35,-1
 128 512 l 1,36,-1
 320 512 l 1,37,-1
 320 448 l 1,38,-1
 128 448 l 1,35,-1
EndSplineSet
Validated: 9
EndChar

StartChar: Gcircumflex
Encoding: 284 284 254
Width: 512
Flags: W
LayerCount: 2
Fore
SplineSet
128 192 m 1,0,-1
 128 128 l 1,1,-1
 320 128 l 1,2,-1
 320 192 l 1,3,-1
 192 192 l 1,4,-1
 192 256 l 1,5,-1
 128 256 l 1,6,-1
 128 576 l 1,7,-1
 192 576 l 1,8,-1
 192 640 l 1,9,-1
 320 640 l 1,10,-1
 320 576 l 1,11,-1
 384 576 l 1,12,-1
 384 512 l 1,13,-1
 448 512 l 1,14,15
 448 512 448 512 448 640 c 1,16,-1
 384 640 l 1,17,18
 384 640 384 640 384 768 c 1,19,-1
 320 768 l 1,20,-1
 320 704 l 1,21,-1
 128 704 l 1,22,-1
 128 640 l 1,23,-1
 64 640 l 1,24,-1
 64 576 l 1,25,-1
 0 576 l 1,26,-1
 0 256 l 1,27,-1
 64 256 l 1,28,-1
 64 192 l 1,29,-1
 128 192 l 1,0,-1
384 192 m 1,30,-1
 384 128 l 1,31,-1
 448 128 l 1,32,-1
 448 448 l 1,33,-1
 192 448 l 1,34,-1
 192 384 l 1,35,-1
 320 384 l 1,36,-1
 320 192 l 1,37,-1
 384 192 l 1,30,-1
128 704 m 1,38,-1
 128 768 l 1,39,-1
 64 768 l 1,40,-1
 64 704 l 1,41,-1
 128 704 l 1,38,-1
128 768 m 1,42,-1
 320 768 l 1,43,-1
 320 832 l 1,44,-1
 256 832 l 1,45,-1
 256 896 l 1,46,-1
 192 896 l 1,47,-1
 192 832 l 1,48,-1
 128 832 l 1,49,-1
 128 768 l 1,42,-1
EndSplineSet
Validated: 5
EndChar

StartChar: gcircumflex
Encoding: 285 285 255
Width: 512
Flags: W
LayerCount: 2
Fore
SplineSet
448 512 m 1,0,-1
 448 576 l 1,1,-1
 320 576 l 1,2,-1
 320 512 l 1,3,-1
 256 512 l 1,4,-1
 256 192 l 1,5,-1
 128 192 l 1,6,-1
 128 512 l 1,7,-1
 256 512 l 1,8,-1
 256 576 l 1,9,-1
 64 576 l 1,10,-1
 64 512 l 1,11,-1
 0 512 l 1,12,-1
 0 192 l 1,13,-1
 64 192 l 1,14,-1
 64 128 l 1,15,-1
 256 128 l 1,16,17
 256 128 256 128 256 0 c 1,18,-1
 128 0 l 1,19,-1
 128 64 l 1,20,-1
 0 64 l 1,21,-1
 0 0 l 1,22,-1
 64 0 l 1,23,-1
 64 -64 l 1,24,-1
 320 -64 l 1,25,-1
 320 0 l 1,26,-1
 384 0 l 1,27,28
 384 0 384 0 384 512 c 1,29,-1
 448 512 l 1,0,-1
384 640 m 1,30,-1
 384 704 l 1,31,-1
 320 704 l 1,32,-1
 320 768 l 1,33,-1
 256 768 l 1,34,-1
 256 832 l 1,35,-1
 192 832 l 1,36,-1
 192 768 l 1,37,-1
 128 768 l 1,38,-1
 128 704 l 1,39,-1
 64 704 l 1,40,-1
 64 640 l 1,41,-1
 192 640 l 1,42,-1
 192 704 l 1,43,-1
 256 704 l 1,44,-1
 256 640 l 1,45,-1
 384 640 l 1,30,-1
EndSplineSet
Validated: 5
EndChar

StartChar: Gbreve
Encoding: 286 286 256
Width: 512
Flags: W
LayerCount: 2
Fore
SplineSet
384 832 m 1,0,-1
 384 896 l 1,1,-1
 256 896 l 1,2,-1
 256 832 l 1,3,-1
 192 832 l 1,4,-1
 192 896 l 1,5,-1
 64 896 l 1,6,-1
 64 832 l 1,7,-1
 128 832 l 1,8,-1
 128 768 l 1,9,-1
 320 768 l 1,10,-1
 320 832 l 1,11,-1
 384 832 l 1,0,-1
128 192 m 1,12,-1
 128 128 l 1,13,-1
 320 128 l 1,14,-1
 320 192 l 1,15,-1
 192 192 l 1,16,-1
 192 256 l 1,17,-1
 128 256 l 1,18,-1
 128 576 l 1,19,-1
 192 576 l 1,20,-1
 192 640 l 1,21,-1
 320 640 l 1,22,-1
 320 576 l 1,23,-1
 384 576 l 1,24,-1
 384 512 l 1,25,-1
 448 512 l 1,26,27
 448 512 448 512 448 640 c 1,28,-1
 384 640 l 1,29,-1
 384 704 l 1,30,-1
 128 704 l 1,31,-1
 128 640 l 1,32,-1
 64 640 l 1,33,-1
 64 576 l 1,34,-1
 0 576 l 1,35,-1
 0 256 l 1,36,-1
 64 256 l 1,37,-1
 64 192 l 1,38,-1
 128 192 l 1,12,-1
384 192 m 1,39,-1
 384 128 l 1,40,-1
 448 128 l 1,41,-1
 448 448 l 1,42,-1
 192 448 l 1,43,-1
 192 384 l 1,44,-1
 320 384 l 1,45,-1
 320 192 l 1,46,-1
 384 192 l 1,39,-1
EndSplineSet
Validated: 5
EndChar

StartChar: gbreve
Encoding: 287 287 257
Width: 512
Flags: W
LayerCount: 2
Fore
SplineSet
448 512 m 1,0,-1
 448 576 l 1,1,-1
 320 576 l 1,2,-1
 320 512 l 1,3,-1
 256 512 l 1,4,-1
 256 192 l 1,5,-1
 128 192 l 1,6,-1
 128 512 l 1,7,-1
 256 512 l 1,8,-1
 256 576 l 1,9,-1
 64 576 l 1,10,-1
 64 512 l 1,11,-1
 0 512 l 1,12,-1
 0 192 l 1,13,-1
 64 192 l 1,14,-1
 64 128 l 1,15,-1
 256 128 l 1,16,17
 256 128 256 128 256 0 c 1,18,-1
 128 0 l 1,19,-1
 128 64 l 1,20,-1
 0 64 l 1,21,-1
 0 0 l 1,22,-1
 64 0 l 1,23,-1
 64 -64 l 1,24,-1
 320 -64 l 1,25,-1
 320 0 l 1,26,-1
 384 0 l 1,27,28
 384 0 384 0 384 512 c 1,29,-1
 448 512 l 1,0,-1
384 704 m 1,30,-1
 384 768 l 1,31,-1
 256 768 l 1,32,-1
 256 704 l 1,33,-1
 192 704 l 1,34,-1
 192 768 l 1,35,-1
 64 768 l 1,36,-1
 64 704 l 1,37,-1
 128 704 l 1,38,-1
 128 640 l 1,39,-1
 320 640 l 1,40,-1
 320 704 l 1,41,-1
 384 704 l 1,30,-1
EndSplineSet
Validated: 5
EndChar

StartChar: Gdotaccent
Encoding: 288 288 258
Width: 512
Flags: W
LayerCount: 2
Fore
SplineSet
128 192 m 1,0,-1
 128 128 l 1,1,-1
 320 128 l 1,2,-1
 320 192 l 1,3,-1
 192 192 l 1,4,-1
 192 256 l 1,5,-1
 128 256 l 1,6,-1
 128 576 l 1,7,-1
 192 576 l 1,8,-1
 192 640 l 1,9,-1
 320 640 l 1,10,-1
 320 576 l 1,11,-1
 384 576 l 1,12,-1
 384 512 l 1,13,-1
 448 512 l 1,14,15
 448 512 448 512 448 640 c 1,16,-1
 384 640 l 1,17,-1
 384 704 l 1,18,-1
 128 704 l 1,19,-1
 128 640 l 1,20,-1
 64 640 l 1,21,-1
 64 576 l 1,22,-1
 0 576 l 1,23,-1
 0 256 l 1,24,-1
 64 256 l 1,25,-1
 64 192 l 1,26,-1
 128 192 l 1,0,-1
384 192 m 1,27,-1
 384 128 l 1,28,-1
 448 128 l 1,29,-1
 448 448 l 1,30,-1
 192 448 l 1,31,-1
 192 384 l 1,32,-1
 320 384 l 1,33,-1
 320 192 l 1,34,-1
 384 192 l 1,27,-1
192 896 m 1,35,36
 192 896 192 896 192 768 c 1,37,-1
 320 768 l 1,38,39
 320 768 320 768 320 896 c 1,40,-1
 192 896 l 1,35,36
EndSplineSet
Validated: 5
EndChar

StartChar: gdotaccent
Encoding: 289 289 259
Width: 512
Flags: W
LayerCount: 2
Fore
SplineSet
448 512 m 1,0,-1
 448 576 l 1,1,-1
 320 576 l 1,2,-1
 320 512 l 1,3,-1
 256 512 l 1,4,-1
 256 192 l 1,5,-1
 128 192 l 1,6,-1
 128 512 l 1,7,-1
 256 512 l 1,8,-1
 256 576 l 1,9,-1
 64 576 l 1,10,-1
 64 512 l 1,11,-1
 0 512 l 1,12,-1
 0 192 l 1,13,-1
 64 192 l 1,14,-1
 64 128 l 1,15,-1
 256 128 l 1,16,17
 256 128 256 128 256 0 c 1,18,-1
 128 0 l 1,19,-1
 128 64 l 1,20,-1
 0 64 l 1,21,-1
 0 0 l 1,22,-1
 64 0 l 1,23,-1
 64 -64 l 1,24,-1
 320 -64 l 1,25,-1
 320 0 l 1,26,-1
 384 0 l 1,27,28
 384 0 384 0 384 512 c 1,29,-1
 448 512 l 1,0,-1
128 768 m 1,30,31
 128 768 128 768 128 640 c 1,32,-1
 256 640 l 1,33,34
 256 640 256 640 256 768 c 1,35,-1
 128 768 l 1,30,31
EndSplineSet
Validated: 5
EndChar

StartChar: uni0122
Encoding: 290 290 260
Width: 512
Flags: W
LayerCount: 2
Fore
SplineSet
256 -64 m 1,0,-1
 320 -64 l 1,1,2
 320 -64 320 -64 320 64 c 1,3,-1
 192 64 l 1,4,5
 192 64 192 64 192 -64 c 1,6,-1
 128 -64 l 1,7,-1
 128 -128 l 1,8,-1
 256 -128 l 1,9,-1
 256 -64 l 1,0,-1
128 192 m 1,10,-1
 128 128 l 1,11,-1
 320 128 l 1,12,-1
 320 192 l 1,13,-1
 192 192 l 1,14,-1
 192 256 l 1,15,-1
 128 256 l 1,16,17
 128 256 128 256 128 640 c 1,18,-1
 192 640 l 1,19,-1
 192 704 l 1,20,-1
 320 704 l 1,21,-1
 320 640 l 1,22,-1
 384 640 l 1,23,-1
 384 576 l 1,24,-1
 448 576 l 1,25,26
 448 576 448 576 448 704 c 1,27,-1
 384 704 l 1,28,-1
 384 768 l 1,29,-1
 128 768 l 1,30,-1
 128 704 l 1,31,-1
 64 704 l 1,32,-1
 64 640 l 1,33,-1
 0 640 l 1,34,35
 0 640 0 640 0 256 c 1,36,-1
 64 256 l 1,37,-1
 64 192 l 1,38,-1
 128 192 l 1,10,-1
384 192 m 1,39,-1
 384 128 l 1,40,-1
 448 128 l 1,41,-1
 448 448 l 1,42,-1
 192 448 l 1,43,-1
 192 384 l 1,44,-1
 320 384 l 1,45,-1
 320 192 l 1,46,-1
 384 192 l 1,39,-1
EndSplineSet
Validated: 5
EndChar

StartChar: uni0123
Encoding: 291 291 261
Width: 512
Flags: W
LayerCount: 2
Fore
SplineSet
448 512 m 1,0,-1
 448 576 l 1,1,-1
 320 576 l 1,2,-1
 320 512 l 1,3,-1
 256 512 l 1,4,-1
 256 192 l 1,5,-1
 128 192 l 1,6,-1
 128 512 l 1,7,-1
 256 512 l 1,8,-1
 256 576 l 1,9,-1
 64 576 l 1,10,-1
 64 512 l 1,11,-1
 0 512 l 1,12,-1
 0 192 l 1,13,-1
 64 192 l 1,14,-1
 64 128 l 1,15,-1
 256 128 l 1,16,17
 256 128 256 128 256 0 c 1,18,-1
 128 0 l 1,19,-1
 128 64 l 1,20,-1
 0 64 l 1,21,-1
 0 0 l 1,22,-1
 64 0 l 1,23,-1
 64 -64 l 1,24,-1
 320 -64 l 1,25,-1
 320 0 l 1,26,-1
 384 0 l 1,27,28
 384 0 384 0 384 512 c 1,29,-1
 448 512 l 1,0,-1
320 768 m 1,30,-1
 320 832 l 1,31,-1
 192 832 l 1,32,-1
 192 768 l 1,33,-1
 128 768 l 1,34,35
 128 768 128 768 128 640 c 1,36,-1
 256 640 l 1,37,38
 256 640 256 640 256 768 c 1,39,-1
 320 768 l 1,30,-1
EndSplineSet
Validated: 5
EndChar

StartChar: Hcircumflex
Encoding: 292 292 262
Width: 512
Flags: W
LayerCount: 2
Fore
SplineSet
320 768 m 1,0,-1
 320 832 l 1,1,-1
 256 832 l 1,2,-1
 256 896 l 1,3,-1
 192 896 l 1,4,-1
 192 832 l 1,5,-1
 128 832 l 1,6,-1
 128 768 l 1,7,-1
 320 768 l 1,0,-1
0 704 m 1,8,-1
 0 128 l 1,9,-1
 128 128 l 1,10,11
 128 128 128 128 128 384 c 1,12,-1
 320 384 l 1,13,14
 320 384 320 384 320 128 c 1,15,-1
 448 128 l 1,16,-1
 448 704 l 1,17,-1
 320 704 l 1,18,19
 320 704 320 704 320 448 c 1,20,-1
 128 448 l 1,21,22
 128 448 128 448 128 704 c 1,23,-1
 0 704 l 1,8,-1
EndSplineSet
Validated: 9
EndChar

StartChar: hcircumflex
Encoding: 293 293 263
Width: 512
Flags: W
LayerCount: 2
Fore
SplineSet
384 704 m 1,0,-1
 384 768 l 1,1,-1
 320 768 l 1,2,-1
 320 704 l 1,3,-1
 384 704 l 1,0,-1
64 192 m 1,4,-1
 0 192 l 1,5,-1
 0 128 l 1,6,-1
 192 128 l 1,7,-1
 192 448 l 1,8,-1
 256 448 l 1,9,-1
 256 512 l 1,10,-1
 192 512 l 1,11,-1
 192 704 l 1,12,-1
 128 704 l 1,13,-1
 128 768 l 1,14,-1
 64 768 l 1,15,-1
 64 704 l 1,16,-1
 0 704 l 1,17,-1
 0 640 l 1,18,-1
 64 640 l 1,19,-1
 64 192 l 1,4,-1
320 512 m 1,20,21
 320 512 320 512 320 128 c 1,22,-1
 448 128 l 1,23,24
 448 128 448 128 448 512 c 1,25,-1
 384 512 l 1,26,-1
 384 576 l 1,27,-1
 256 576 l 1,28,-1
 256 512 l 1,29,-1
 320 512 l 1,20,21
128 768 m 1,30,-1
 320 768 l 1,31,-1
 320 832 l 1,32,-1
 256 832 l 1,33,-1
 256 896 l 1,34,-1
 192 896 l 1,35,-1
 192 832 l 1,36,-1
 128 832 l 1,37,-1
 128 768 l 1,30,-1
EndSplineSet
Validated: 5
EndChar

StartChar: Hbar
Encoding: 294 294 264
Width: 512
Flags: W
LayerCount: 2
Fore
SplineSet
512 640 m 1,0,-1
 512 704 l 1,1,-1
 448 704 l 1,2,-1
 448 768 l 1,3,-1
 320 768 l 1,4,-1
 320 704 l 1,5,-1
 192 704 l 1,6,-1
 192 768 l 1,7,-1
 64 768 l 1,8,-1
 64 704 l 1,9,-1
 0 704 l 1,10,-1
 0 640 l 1,11,-1
 64 640 l 1,12,13
 64 640 64 640 64 128 c 1,14,-1
 192 128 l 1,15,-1
 192 448 l 1,16,-1
 320 448 l 1,17,-1
 320 128 l 1,18,-1
 448 128 l 1,19,20
 448 128 448 128 448 640 c 1,21,-1
 512 640 l 1,0,-1
192 512 m 1,22,23
 192 512 192 512 192 640 c 1,24,-1
 320 640 l 1,25,26
 320 640 320 640 320 512 c 1,27,-1
 192 512 l 1,22,23
EndSplineSet
Validated: 9
EndChar

StartChar: hbar
Encoding: 295 295 265
Width: 512
Flags: W
LayerCount: 2
Fore
SplineSet
320 640 m 1,0,-1
 320 704 l 1,1,-1
 192 704 l 1,2,-1
 192 768 l 1,3,-1
 64 768 l 1,4,-1
 64 704 l 1,5,-1
 0 704 l 1,6,-1
 0 640 l 1,7,-1
 64 640 l 1,8,-1
 64 192 l 1,9,-1
 0 192 l 1,10,-1
 0 128 l 1,11,-1
 192 128 l 1,12,-1
 192 448 l 1,13,-1
 256 448 l 1,14,-1
 256 512 l 1,15,-1
 192 512 l 1,16,17
 192 512 192 512 192 640 c 1,18,-1
 320 640 l 1,0,-1
320 512 m 1,19,20
 320 512 320 512 320 128 c 1,21,-1
 448 128 l 1,22,23
 448 128 448 128 448 512 c 1,24,-1
 384 512 l 1,25,-1
 384 576 l 1,26,-1
 256 576 l 1,27,-1
 256 512 l 1,28,-1
 320 512 l 1,19,20
EndSplineSet
Validated: 5
EndChar

StartChar: Itilde
Encoding: 296 296 266
Width: 512
Flags: W
LayerCount: 2
Fore
SplineSet
384 128 m 1,0,-1
 384 192 l 1,1,-1
 320 192 l 1,2,-1
 320 640 l 1,3,-1
 384 640 l 1,4,-1
 384 704 l 1,5,-1
 128 704 l 1,6,-1
 128 640 l 1,7,-1
 192 640 l 1,8,-1
 192 192 l 1,9,-1
 128 192 l 1,10,-1
 128 128 l 1,11,-1
 384 128 l 1,0,-1
448 832 m 1,12,-1
 448 896 l 1,13,-1
 320 896 l 1,14,-1
 320 832 l 1,15,-1
 256 832 l 1,16,-1
 256 896 l 1,17,-1
 64 896 l 1,18,-1
 64 832 l 1,19,-1
 0 832 l 1,20,-1
 0 768 l 1,21,-1
 128 768 l 1,22,-1
 128 832 l 1,23,-1
 192 832 l 1,24,-1
 192 768 l 1,25,-1
 384 768 l 1,26,-1
 384 832 l 1,27,-1
 448 832 l 1,12,-1
EndSplineSet
Validated: 9
EndChar

StartChar: itilde
Encoding: 297 297 267
Width: 512
Flags: W
LayerCount: 2
Fore
SplineSet
384 128 m 1,0,-1
 384 192 l 1,1,-1
 320 192 l 1,2,3
 320 192 320 192 320 576 c 1,4,-1
 128 576 l 1,5,-1
 128 512 l 1,6,-1
 192 512 l 1,7,-1
 192 192 l 1,8,-1
 128 192 l 1,9,-1
 128 128 l 1,10,-1
 384 128 l 1,0,-1
448 704 m 1,11,-1
 448 768 l 1,12,-1
 320 768 l 1,13,-1
 320 704 l 1,14,-1
 256 704 l 1,15,-1
 256 768 l 1,16,-1
 64 768 l 1,17,-1
 64 704 l 1,18,-1
 0 704 l 1,19,-1
 0 640 l 1,20,-1
 128 640 l 1,21,-1
 128 704 l 1,22,-1
 192 704 l 1,23,-1
 192 640 l 1,24,-1
 384 640 l 1,25,-1
 384 704 l 1,26,-1
 448 704 l 1,11,-1
EndSplineSet
Validated: 9
EndChar

StartChar: Imacron
Encoding: 298 298 268
Width: 512
Flags: W
LayerCount: 2
Fore
SplineSet
384 128 m 1,0,-1
 384 192 l 1,1,-1
 320 192 l 1,2,-1
 320 640 l 1,3,-1
 384 640 l 1,4,-1
 384 704 l 1,5,-1
 128 704 l 1,6,-1
 128 640 l 1,7,-1
 192 640 l 1,8,-1
 192 192 l 1,9,-1
 128 192 l 1,10,-1
 128 128 l 1,11,-1
 384 128 l 1,0,-1
448 768 m 1,12,-1
 448 832 l 1,13,-1
 64 832 l 1,14,-1
 64 768 l 1,15,-1
 448 768 l 1,12,-1
EndSplineSet
Validated: 9
EndChar

StartChar: imacron
Encoding: 299 299 269
Width: 512
Flags: W
LayerCount: 2
Fore
SplineSet
384 128 m 1,0,-1
 384 192 l 1,1,-1
 320 192 l 1,2,3
 320 192 320 192 320 576 c 1,4,-1
 128 576 l 1,5,-1
 128 512 l 1,6,-1
 192 512 l 1,7,-1
 192 192 l 1,8,-1
 128 192 l 1,9,-1
 128 128 l 1,10,-1
 384 128 l 1,0,-1
448 640 m 1,11,-1
 448 704 l 1,12,-1
 64 704 l 1,13,-1
 64 640 l 1,14,-1
 448 640 l 1,11,-1
EndSplineSet
Validated: 9
EndChar

StartChar: Ibreve
Encoding: 300 300 270
Width: 512
Flags: W
LayerCount: 2
Fore
SplineSet
384 128 m 1,0,-1
 384 192 l 1,1,-1
 320 192 l 1,2,-1
 320 640 l 1,3,-1
 384 640 l 1,4,-1
 384 704 l 1,5,-1
 128 704 l 1,6,-1
 128 640 l 1,7,-1
 192 640 l 1,8,-1
 192 192 l 1,9,-1
 128 192 l 1,10,-1
 128 128 l 1,11,-1
 384 128 l 1,0,-1
448 832 m 1,12,-1
 448 896 l 1,13,-1
 320 896 l 1,14,-1
 320 832 l 1,15,-1
 192 832 l 1,16,-1
 192 896 l 1,17,-1
 64 896 l 1,18,-1
 64 832 l 1,19,-1
 128 832 l 1,20,-1
 128 768 l 1,21,-1
 384 768 l 1,22,-1
 384 832 l 1,23,-1
 448 832 l 1,12,-1
EndSplineSet
Validated: 9
EndChar

StartChar: ibreve
Encoding: 301 301 271
Width: 512
Flags: W
LayerCount: 2
Fore
SplineSet
384 128 m 1,0,-1
 384 192 l 1,1,-1
 320 192 l 1,2,3
 320 192 320 192 320 576 c 1,4,-1
 128 576 l 1,5,-1
 128 512 l 1,6,-1
 192 512 l 1,7,-1
 192 192 l 1,8,-1
 128 192 l 1,9,-1
 128 128 l 1,10,-1
 384 128 l 1,0,-1
448 704 m 1,11,-1
 448 768 l 1,12,-1
 320 768 l 1,13,-1
 320 704 l 1,14,-1
 192 704 l 1,15,-1
 192 768 l 1,16,-1
 64 768 l 1,17,-1
 64 704 l 1,18,-1
 128 704 l 1,19,-1
 128 640 l 1,20,-1
 384 640 l 1,21,-1
 384 704 l 1,22,-1
 448 704 l 1,11,-1
EndSplineSet
Validated: 9
EndChar

StartChar: Iogonek
Encoding: 302 302 272
Width: 512
Flags: W
LayerCount: 2
Fore
SplineSet
384 -64 m 1,0,-1
 384 0 l 1,1,-1
 256 0 l 1,2,-1
 256 64 l 1,3,-1
 320 64 l 1,4,-1
 320 128 l 1,5,-1
 384 128 l 1,6,-1
 384 192 l 1,7,-1
 320 192 l 1,8,-1
 320 640 l 1,9,-1
 384 640 l 1,10,-1
 384 704 l 1,11,-1
 128 704 l 1,12,-1
 128 640 l 1,13,-1
 192 640 l 1,14,-1
 192 192 l 1,15,-1
 128 192 l 1,16,-1
 128 128 l 1,17,-1
 192 128 l 1,18,-1
 192 64 l 1,19,-1
 128 64 l 1,20,-1
 128 0 l 1,21,-1
 192 0 l 1,22,-1
 192 -64 l 1,23,-1
 384 -64 l 1,0,-1
EndSplineSet
Validated: 9
EndChar

StartChar: iogonek
Encoding: 303 303 273
Width: 512
Flags: W
LayerCount: 2
Fore
SplineSet
384 -64 m 1,0,-1
 384 0 l 1,1,-1
 256 0 l 1,2,-1
 256 64 l 1,3,-1
 320 64 l 1,4,-1
 320 128 l 1,5,-1
 384 128 l 1,6,-1
 384 192 l 1,7,-1
 320 192 l 1,8,9
 320 192 320 192 320 576 c 1,10,-1
 128 576 l 1,11,-1
 128 512 l 1,12,-1
 192 512 l 1,13,-1
 192 192 l 1,14,-1
 128 192 l 1,15,-1
 128 128 l 1,16,-1
 192 128 l 1,17,-1
 192 64 l 1,18,-1
 128 64 l 1,19,-1
 128 0 l 1,20,-1
 192 0 l 1,21,-1
 192 -64 l 1,22,-1
 384 -64 l 1,0,-1
192 768 m 1,23,24
 192 768 192 768 192 640 c 1,25,-1
 320 640 l 1,26,27
 320 640 320 640 320 768 c 1,28,-1
 192 768 l 1,23,24
EndSplineSet
Validated: 9
EndChar

StartChar: Idotaccent
Encoding: 304 304 274
Width: 512
Flags: W
LayerCount: 2
Fore
SplineSet
384 128 m 1,0,-1
 384 192 l 1,1,-1
 320 192 l 1,2,-1
 320 640 l 1,3,-1
 384 640 l 1,4,-1
 384 704 l 1,5,-1
 128 704 l 1,6,-1
 128 640 l 1,7,-1
 192 640 l 1,8,-1
 192 192 l 1,9,-1
 128 192 l 1,10,-1
 128 128 l 1,11,-1
 384 128 l 1,0,-1
192 896 m 1,12,13
 192 896 192 896 192 768 c 1,14,-1
 320 768 l 1,15,16
 320 768 320 768 320 896 c 1,17,-1
 192 896 l 1,12,13
EndSplineSet
Validated: 9
EndChar

StartChar: dotlessi
Encoding: 305 305 275
Width: 512
Flags: W
LayerCount: 2
Fore
SplineSet
384 128 m 1,0,-1
 384 192 l 1,1,-1
 320 192 l 1,2,3
 320 192 320 192 320 576 c 1,4,-1
 128 576 l 1,5,-1
 128 512 l 1,6,-1
 192 512 l 1,7,-1
 192 192 l 1,8,-1
 128 192 l 1,9,-1
 128 128 l 1,10,-1
 384 128 l 1,0,-1
EndSplineSet
Validated: 9
EndChar

StartChar: IJ
Encoding: 306 306 276
Width: 512
Flags: W
LayerCount: 2
Fore
SplineSet
256 704 m 1,0,-1
 256 768 l 1,1,-1
 0 768 l 1,2,-1
 0 704 l 1,3,-1
 64 704 l 1,4,5
 64 704 64 704 64 192 c 1,6,-1
 0 192 l 1,7,-1
 0 128 l 1,8,-1
 192 128 l 1,9,-1
 192 192 l 1,10,-1
 256 192 l 1,11,-1
 256 128 l 1,12,-1
 448 128 l 1,13,-1
 448 192 l 1,14,-1
 512 192 l 1,15,-1
 512 768 l 1,16,-1
 320 768 l 1,17,-1
 320 704 l 1,18,-1
 384 704 l 1,19,20
 384 704 384 704 384 192 c 1,21,-1
 320 192 l 1,22,23
 320 192 320 192 320 320 c 1,24,-1
 192 320 l 1,25,26
 192 320 192 320 192 704 c 1,27,-1
 256 704 l 1,0,-1
EndSplineSet
Validated: 9
EndChar

StartChar: ij
Encoding: 307 307 277
Width: 512
Flags: W
LayerCount: 2
Fore
SplineSet
256 128 m 1,0,-1
 256 192 l 1,1,-1
 192 192 l 1,2,3
 192 192 192 192 192 576 c 1,4,-1
 0 576 l 1,5,-1
 0 512 l 1,6,-1
 64 512 l 1,7,-1
 64 192 l 1,8,-1
 0 192 l 1,9,-1
 0 128 l 1,10,-1
 256 128 l 1,0,-1
128 0 m 1,11,-1
 128 -64 l 1,12,-1
 384 -64 l 1,13,-1
 384 0 l 1,14,-1
 448 0 l 1,15,-1
 448 576 l 1,16,-1
 256 576 l 1,17,-1
 256 512 l 1,18,-1
 320 512 l 1,19,20
 320 512 320 512 320 0 c 1,21,-1
 192 0 l 1,22,-1
 192 64 l 1,23,-1
 64 64 l 1,24,-1
 64 0 l 1,25,-1
 128 0 l 1,11,-1
64 768 m 1,26,27
 64 768 64 768 64 640 c 1,28,-1
 192 640 l 1,29,30
 192 640 192 640 192 768 c 1,31,-1
 64 768 l 1,26,27
320 768 m 1,32,33
 320 768 320 768 320 640 c 1,34,-1
 448 640 l 1,35,36
 448 640 448 640 448 768 c 1,37,-1
 320 768 l 1,32,33
EndSplineSet
Validated: 9
EndChar

StartChar: Jcircumflex
Encoding: 308 308 278
Width: 512
Flags: W
LayerCount: 2
Fore
SplineSet
64 192 m 1,0,-1
 64 128 l 1,1,-1
 320 128 l 1,2,-1
 320 192 l 1,3,-1
 384 192 l 1,4,-1
 384 640 l 1,5,-1
 448 640 l 1,6,7
 448 640 448 640 448 768 c 1,8,-1
 384 768 l 1,9,-1
 384 704 l 1,10,-1
 192 704 l 1,11,-1
 192 640 l 1,12,-1
 256 640 l 1,13,-1
 256 192 l 1,14,-1
 128 192 l 1,15,-1
 128 384 l 1,16,-1
 0 384 l 1,17,-1
 0 192 l 1,18,-1
 64 192 l 1,0,-1
192 704 m 1,19,-1
 192 768 l 1,20,-1
 128 768 l 1,21,-1
 128 704 l 1,22,-1
 192 704 l 1,19,-1
192 768 m 1,23,-1
 384 768 l 1,24,-1
 384 832 l 1,25,-1
 320 832 l 1,26,-1
 320 896 l 1,27,-1
 256 896 l 1,28,-1
 256 832 l 1,29,-1
 192 832 l 1,30,-1
 192 768 l 1,23,-1
EndSplineSet
Validated: 5
EndChar

StartChar: jcircumflex
Encoding: 309 309 279
Width: 512
Flags: W
LayerCount: 2
Fore
SplineSet
512 640 m 1,0,-1
 512 704 l 1,1,-1
 448 704 l 1,2,-1
 448 768 l 1,3,-1
 384 768 l 1,4,-1
 384 832 l 1,5,-1
 320 832 l 1,6,-1
 320 768 l 1,7,-1
 256 768 l 1,8,-1
 256 704 l 1,9,-1
 192 704 l 1,10,-1
 192 640 l 1,11,-1
 320 640 l 1,12,-1
 320 704 l 1,13,-1
 384 704 l 1,14,-1
 384 640 l 1,15,-1
 512 640 l 1,0,-1
128 0 m 1,16,-1
 128 -64 l 1,17,-1
 384 -64 l 1,18,-1
 384 0 l 1,19,-1
 448 0 l 1,20,-1
 448 576 l 1,21,-1
 256 576 l 1,22,-1
 256 512 l 1,23,-1
 320 512 l 1,24,25
 320 512 320 512 320 0 c 1,26,-1
 192 0 l 1,27,28
 192 0 192 0 192 128 c 1,29,-1
 64 128 l 1,30,31
 64 128 64 128 64 0 c 1,32,-1
 128 0 l 1,16,-1
EndSplineSet
Validated: 9
EndChar

StartChar: uni0136
Encoding: 310 310 280
Width: 512
Flags: W
LayerCount: 2
Fore
SplineSet
256 -64 m 1,0,-1
 320 -64 l 1,1,2
 320 -64 320 -64 320 64 c 1,3,-1
 192 64 l 1,4,5
 192 64 192 64 192 -64 c 1,6,-1
 128 -64 l 1,7,-1
 128 -128 l 1,8,-1
 256 -128 l 1,9,-1
 256 -64 l 1,0,-1
64 192 m 1,10,-1
 0 192 l 1,11,-1
 0 128 l 1,12,-1
 192 128 l 1,13,14
 192 128 192 128 192 384 c 1,15,-1
 256 384 l 1,16,-1
 256 320 l 1,17,-1
 320 320 l 1,18,-1
 320 128 l 1,19,-1
 448 128 l 1,20,-1
 448 320 l 1,21,-1
 384 320 l 1,22,-1
 384 384 l 1,23,-1
 320 384 l 1,24,25
 320 384 320 384 320 512 c 1,26,-1
 384 512 l 1,27,-1
 384 576 l 1,28,-1
 448 576 l 1,29,-1
 448 768 l 1,30,-1
 320 768 l 1,31,-1
 320 576 l 1,32,-1
 256 576 l 1,33,-1
 256 512 l 1,34,-1
 192 512 l 1,35,36
 192 512 192 512 192 768 c 1,37,-1
 0 768 l 1,38,-1
 0 704 l 1,39,-1
 64 704 l 1,40,41
 64 704 64 704 64 192 c 1,10,-1
EndSplineSet
Validated: 9
EndChar

StartChar: uni0137
Encoding: 311 311 281
Width: 512
Flags: W
LayerCount: 2
Fore
SplineSet
448 512 m 1,0,-1
 448 576 l 1,1,-1
 320 576 l 1,2,-1
 320 512 l 1,3,-1
 256 512 l 1,4,-1
 256 448 l 1,5,-1
 192 448 l 1,6,-1
 192 768 l 1,7,-1
 0 768 l 1,8,-1
 0 704 l 1,9,-1
 64 704 l 1,10,11
 64 704 64 704 64 192 c 1,12,-1
 0 192 l 1,13,-1
 0 128 l 1,14,-1
 192 128 l 1,15,-1
 192 320 l 1,16,-1
 256 320 l 1,17,-1
 256 256 l 1,18,-1
 320 256 l 1,19,20
 320 256 320 256 320 128 c 1,21,-1
 448 128 l 1,22,23
 448 128 448 128 448 256 c 1,24,-1
 384 256 l 1,25,-1
 384 320 l 1,26,-1
 320 320 l 1,27,28
 320 320 320 320 320 448 c 1,29,-1
 384 448 l 1,30,-1
 384 512 l 1,31,-1
 448 512 l 1,0,-1
256 -64 m 1,32,-1
 320 -64 l 1,33,34
 320 -64 320 -64 320 64 c 1,35,-1
 192 64 l 1,36,37
 192 64 192 64 192 -64 c 1,38,-1
 128 -64 l 1,39,-1
 128 -128 l 1,40,-1
 256 -128 l 1,41,-1
 256 -64 l 1,32,-1
EndSplineSet
Validated: 9
EndChar

StartChar: kgreenlandic
Encoding: 312 312 282
Width: 512
Flags: W
LayerCount: 2
Fore
SplineSet
448 512 m 1,0,-1
 448 576 l 1,1,-1
 320 576 l 1,2,-1
 320 512 l 1,3,-1
 256 512 l 1,4,-1
 256 448 l 1,5,-1
 192 448 l 1,6,7
 192 448 192 448 192 576 c 1,8,-1
 0 576 l 1,9,-1
 0 512 l 1,10,-1
 64 512 l 1,11,-1
 64 192 l 1,12,-1
 0 192 l 1,13,-1
 0 128 l 1,14,-1
 192 128 l 1,15,-1
 192 320 l 1,16,-1
 256 320 l 1,17,-1
 256 256 l 1,18,-1
 320 256 l 1,19,20
 320 256 320 256 320 128 c 1,21,-1
 448 128 l 1,22,23
 448 128 448 128 448 256 c 1,24,-1
 384 256 l 1,25,-1
 384 320 l 1,26,-1
 320 320 l 1,27,28
 320 320 320 320 320 448 c 1,29,-1
 384 448 l 1,30,-1
 384 512 l 1,31,-1
 448 512 l 1,0,-1
EndSplineSet
Validated: 9
EndChar

StartChar: Lacute
Encoding: 313 313 283
Width: 512
Flags: W
LayerCount: 2
Fore
SplineSet
256 640 m 1,0,-1
 256 704 l 1,1,-1
 0 704 l 1,2,-1
 0 640 l 1,3,-1
 64 640 l 1,4,-1
 64 192 l 1,5,-1
 0 192 l 1,6,-1
 0 128 l 1,7,-1
 448 128 l 1,8,-1
 448 320 l 1,9,-1
 384 320 l 1,10,-1
 384 256 l 1,11,-1
 320 256 l 1,12,-1
 320 192 l 1,13,-1
 192 192 l 1,14,-1
 192 640 l 1,15,-1
 256 640 l 1,0,-1
320 832 m 1,16,-1
 320 896 l 1,17,-1
 192 896 l 1,18,-1
 192 832 l 1,19,-1
 128 832 l 1,20,-1
 128 768 l 1,21,-1
 256 768 l 1,22,-1
 256 832 l 1,23,-1
 320 832 l 1,16,-1
EndSplineSet
Validated: 9
EndChar

StartChar: lacute
Encoding: 314 314 284
Width: 512
Flags: W
LayerCount: 2
Fore
SplineSet
384 128 m 1,0,-1
 384 192 l 1,1,-1
 320 192 l 1,2,3
 320 192 320 192 320 704 c 1,4,-1
 128 704 l 1,5,-1
 128 640 l 1,6,-1
 192 640 l 1,7,-1
 192 192 l 1,8,-1
 128 192 l 1,9,-1
 128 128 l 1,10,-1
 384 128 l 1,0,-1
384 832 m 1,11,-1
 384 896 l 1,12,-1
 256 896 l 1,13,-1
 256 832 l 1,14,-1
 192 832 l 1,15,-1
 192 768 l 1,16,-1
 320 768 l 1,17,-1
 320 832 l 1,18,-1
 384 832 l 1,11,-1
EndSplineSet
Validated: 9
EndChar

StartChar: uni013B
Encoding: 315 315 285
Width: 512
Flags: W
LayerCount: 2
Fore
SplineSet
256 704 m 1,0,-1
 256 768 l 1,1,-1
 0 768 l 1,2,-1
 0 704 l 1,3,-1
 64 704 l 1,4,5
 64 704 64 704 64 192 c 1,6,-1
 0 192 l 1,7,-1
 0 128 l 1,8,-1
 448 128 l 1,9,-1
 448 320 l 1,10,-1
 384 320 l 1,11,-1
 384 256 l 1,12,-1
 320 256 l 1,13,-1
 320 192 l 1,14,-1
 192 192 l 1,15,16
 192 192 192 192 192 704 c 1,17,-1
 256 704 l 1,0,-1
256 -64 m 1,18,-1
 320 -64 l 1,19,20
 320 -64 320 -64 320 64 c 1,21,-1
 192 64 l 1,22,23
 192 64 192 64 192 -64 c 1,24,-1
 128 -64 l 1,25,-1
 128 -128 l 1,26,-1
 256 -128 l 1,27,-1
 256 -64 l 1,18,-1
EndSplineSet
Validated: 9
EndChar

StartChar: uni013C
Encoding: 316 316 286
Width: 512
Flags: W
LayerCount: 2
Fore
SplineSet
384 128 m 1,0,-1
 384 192 l 1,1,-1
 320 192 l 1,2,-1
 320 768 l 1,3,-1
 128 768 l 1,4,-1
 128 704 l 1,5,-1
 192 704 l 1,6,7
 192 704 192 704 192 192 c 1,8,-1
 128 192 l 1,9,-1
 128 128 l 1,10,-1
 384 128 l 1,0,-1
256 -64 m 1,11,-1
 320 -64 l 1,12,13
 320 -64 320 -64 320 64 c 1,14,-1
 192 64 l 1,15,16
 192 64 192 64 192 -64 c 1,17,-1
 128 -64 l 1,18,-1
 128 -128 l 1,19,-1
 256 -128 l 1,20,-1
 256 -64 l 1,11,-1
EndSplineSet
Validated: 9
EndChar

StartChar: Lcaron
Encoding: 317 317 287
Width: 512
Flags: W
LayerCount: 2
Fore
SplineSet
384 832 m 1,0,-1
 384 896 l 1,1,-1
 256 896 l 1,2,-1
 256 832 l 1,3,-1
 192 832 l 1,4,-1
 192 896 l 1,5,-1
 64 896 l 1,6,-1
 64 832 l 1,7,-1
 128 832 l 1,8,-1
 128 768 l 1,9,-1
 192 768 l 1,10,-1
 192 704 l 1,11,-1
 0 704 l 1,12,-1
 0 640 l 1,13,-1
 64 640 l 1,14,-1
 64 192 l 1,15,-1
 0 192 l 1,16,-1
 0 128 l 1,17,-1
 448 128 l 1,18,-1
 448 320 l 1,19,-1
 384 320 l 1,20,-1
 384 256 l 1,21,-1
 320 256 l 1,22,-1
 320 192 l 1,23,-1
 192 192 l 1,24,-1
 192 640 l 1,25,-1
 256 640 l 1,26,27
 256 640 256 640 256 768 c 1,28,-1
 320 768 l 1,29,-1
 320 832 l 1,30,-1
 384 832 l 1,0,-1
EndSplineSet
Validated: 9
EndChar

StartChar: lcaron
Encoding: 318 318 288
Width: 512
Flags: W
LayerCount: 2
Fore
SplineSet
384 128 m 1,0,-1
 384 192 l 1,1,-1
 320 192 l 1,2,3
 320 192 320 192 320 704 c 1,4,-1
 256 704 l 1,5,-1
 256 768 l 1,6,-1
 320 768 l 1,7,-1
 320 832 l 1,8,-1
 384 832 l 1,9,-1
 384 896 l 1,10,-1
 256 896 l 1,11,-1
 256 832 l 1,12,-1
 192 832 l 1,13,-1
 192 896 l 1,14,-1
 64 896 l 1,15,-1
 64 832 l 1,16,-1
 128 832 l 1,17,-1
 128 768 l 1,18,-1
 192 768 l 1,19,-1
 192 704 l 1,20,-1
 128 704 l 1,21,-1
 128 640 l 1,22,-1
 192 640 l 1,23,-1
 192 192 l 1,24,-1
 128 192 l 1,25,-1
 128 128 l 1,26,-1
 384 128 l 1,0,-1
EndSplineSet
Validated: 9
EndChar

StartChar: Ldot
Encoding: 319 319 289
Width: 512
Flags: W
LayerCount: 2
Fore
SplineSet
256 704 m 1,0,-1
 256 768 l 1,1,-1
 0 768 l 1,2,-1
 0 704 l 1,3,-1
 64 704 l 1,4,5
 64 704 64 704 64 192 c 1,6,-1
 0 192 l 1,7,-1
 0 128 l 1,8,-1
 448 128 l 1,9,-1
 448 320 l 1,10,-1
 384 320 l 1,11,-1
 384 256 l 1,12,-1
 320 256 l 1,13,-1
 320 192 l 1,14,-1
 192 192 l 1,15,16
 192 192 192 192 192 704 c 1,17,-1
 256 704 l 1,0,-1
320 512 m 1,18,19
 320 512 320 512 320 384 c 1,20,-1
 448 384 l 1,21,22
 448 384 448 384 448 512 c 1,23,-1
 320 512 l 1,18,19
EndSplineSet
Validated: 9
EndChar

StartChar: ldot
Encoding: 320 320 290
Width: 512
Flags: W
LayerCount: 2
Fore
SplineSet
320 128 m 1,0,-1
 320 192 l 1,1,-1
 256 192 l 1,2,-1
 256 768 l 1,3,-1
 64 768 l 1,4,-1
 64 704 l 1,5,-1
 128 704 l 1,6,7
 128 704 128 704 128 192 c 1,8,-1
 64 192 l 1,9,-1
 64 128 l 1,10,-1
 320 128 l 1,0,-1
320 512 m 1,11,12
 320 512 320 512 320 384 c 1,13,-1
 448 384 l 1,14,15
 448 384 448 384 448 512 c 1,16,-1
 320 512 l 1,11,12
EndSplineSet
Validated: 9
EndChar

StartChar: Lslash
Encoding: 321 321 291
Width: 512
Flags: W
LayerCount: 2
Fore
SplineSet
320 448 m 1,0,-1
 320 512 l 1,1,-1
 192 512 l 1,2,-1
 192 704 l 1,3,-1
 256 704 l 1,4,-1
 256 768 l 1,5,-1
 0 768 l 1,6,-1
 0 704 l 1,7,-1
 64 704 l 1,8,9
 64 704 64 704 64 448 c 1,10,-1
 0 448 l 1,11,-1
 0 384 l 1,12,-1
 64 384 l 1,13,-1
 64 192 l 1,14,-1
 0 192 l 1,15,-1
 0 128 l 1,16,-1
 448 128 l 1,17,-1
 448 320 l 1,18,-1
 384 320 l 1,19,-1
 384 256 l 1,20,-1
 320 256 l 1,21,-1
 320 192 l 1,22,-1
 192 192 l 1,23,24
 192 192 192 192 192 448 c 1,25,-1
 320 448 l 1,0,-1
EndSplineSet
Validated: 9
EndChar

StartChar: lslash
Encoding: 322 322 292
Width: 512
Flags: W
LayerCount: 2
Fore
SplineSet
384 128 m 1,0,-1
 384 192 l 1,1,-1
 320 192 l 1,2,3
 320 192 320 192 320 448 c 1,4,-1
 448 448 l 1,5,-1
 448 512 l 1,6,-1
 320 512 l 1,7,8
 320 512 320 512 320 768 c 1,9,-1
 128 768 l 1,10,-1
 128 704 l 1,11,-1
 192 704 l 1,12,13
 192 704 192 704 192 448 c 1,14,-1
 64 448 l 1,15,-1
 64 384 l 1,16,-1
 192 384 l 1,17,-1
 192 192 l 1,18,-1
 128 192 l 1,19,-1
 128 128 l 1,20,-1
 384 128 l 1,0,-1
EndSplineSet
Validated: 9
EndChar

StartChar: Nacute
Encoding: 323 323 293
Width: 512
Flags: W
LayerCount: 2
Fore
SplineSet
384 832 m 1,0,-1
 384 896 l 1,1,-1
 256 896 l 1,2,-1
 256 832 l 1,3,-1
 192 832 l 1,4,-1
 192 768 l 1,5,-1
 320 768 l 1,6,-1
 320 832 l 1,7,-1
 384 832 l 1,0,-1
0 704 m 1,8,-1
 0 128 l 1,9,-1
 128 128 l 1,10,-1
 128 448 l 1,11,-1
 192 448 l 1,12,-1
 192 384 l 1,13,-1
 256 384 l 1,14,-1
 256 320 l 1,15,-1
 320 320 l 1,16,-1
 320 128 l 1,17,-1
 448 128 l 1,18,-1
 448 704 l 1,19,-1
 320 704 l 1,20,-1
 320 512 l 1,21,-1
 256 512 l 1,22,-1
 256 576 l 1,23,-1
 192 576 l 1,24,-1
 192 640 l 1,25,-1
 128 640 l 1,26,-1
 128 704 l 1,27,-1
 0 704 l 1,8,-1
EndSplineSet
Validated: 9
EndChar

StartChar: nacute
Encoding: 324 324 294
Width: 512
Flags: W
LayerCount: 2
Fore
SplineSet
384 704 m 1,0,-1
 384 768 l 1,1,-1
 256 768 l 1,2,-1
 256 704 l 1,3,-1
 192 704 l 1,4,-1
 192 640 l 1,5,-1
 320 640 l 1,6,-1
 320 704 l 1,7,-1
 384 704 l 1,0,-1
64 512 m 1,8,9
 64 512 64 512 64 128 c 1,10,-1
 192 128 l 1,11,12
 192 128 192 128 192 512 c 1,13,-1
 128 512 l 1,14,-1
 128 576 l 1,15,-1
 0 576 l 1,16,-1
 0 512 l 1,17,-1
 64 512 l 1,8,9
320 512 m 1,18,19
 320 512 320 512 320 128 c 1,20,-1
 448 128 l 1,21,22
 448 128 448 128 448 512 c 1,23,-1
 384 512 l 1,24,-1
 384 576 l 1,25,-1
 192 576 l 1,26,-1
 192 512 l 1,27,-1
 320 512 l 1,18,19
EndSplineSet
Validated: 5
EndChar

StartChar: uni0145
Encoding: 325 325 295
Width: 512
Flags: W
LayerCount: 2
Fore
SplineSet
256 -64 m 1,0,-1
 320 -64 l 1,1,2
 320 -64 320 -64 320 64 c 1,3,-1
 192 64 l 1,4,5
 192 64 192 64 192 -64 c 1,6,-1
 128 -64 l 1,7,-1
 128 -128 l 1,8,-1
 256 -128 l 1,9,-1
 256 -64 l 1,0,-1
0 768 m 1,10,11
 0 768 0 768 0 128 c 1,12,-1
 128 128 l 1,13,14
 128 128 128 128 128 512 c 1,15,-1
 192 512 l 1,16,-1
 192 448 l 1,17,-1
 256 448 l 1,18,-1
 256 384 l 1,19,-1
 320 384 l 1,20,21
 320 384 320 384 320 128 c 1,22,-1
 448 128 l 1,23,24
 448 128 448 128 448 768 c 1,25,-1
 320 768 l 1,26,-1
 320 576 l 1,27,-1
 256 576 l 1,28,-1
 256 640 l 1,29,-1
 192 640 l 1,30,-1
 192 704 l 1,31,-1
 128 704 l 1,32,-1
 128 768 l 1,33,-1
 0 768 l 1,10,11
EndSplineSet
Validated: 9
EndChar

